SplineFontDB: 3.2
FontName: tmil54
FullName: tmil54
FamilyName: tmil54
Weight: Regular
Copyright: Copyright (c) 2016, Ek Type. All rights reserved.
Version: 2.538;PS 1.000;hotconv 16.6.51;makeotf.lib2.5.65220; ttfautohint (v1.6)
ItalicAngle: 0
UnderlinePosition: -133
UnderlineWidth: 20
Ascent: 800
Descent: 200
InvalidEm: 0
sfntRevision: 0x000289ba
LayerCount: 2
Layer: 0 1 "Back" 1
Layer: 1 1 "Fore" 0
XUID: [1021 467 -1121320856 6296929]
StyleMap: 0x0040
FSType: 0
OS2Version: 3
OS2_WeightWidthSlopeOnly: 0
OS2_UseTypoMetrics: 0
CreationTime: 1495124585
ModificationTime: 1673405644
PfmFamily: 17
TTFWeight: 400
TTFWidth: 5
LineGap: 0
VLineGap: 0
Panose: 2 11 0 0 0 0 0 0 0 0
OS2TypoAscent: 1130
OS2TypoAOffset: 0
OS2TypoDescent: -532
OS2TypoDOffset: 0
OS2TypoLinegap: 0
OS2WinAscent: 1130
OS2WinAOffset: 0
OS2WinDescent: 532
OS2WinDOffset: 0
HheadAscent: 1130
HheadAOffset: 0
HheadDescent: -532
HheadDOffset: 0
OS2SubXSize: 650
OS2SubYSize: 600
OS2SubXOff: 0
OS2SubYOff: 75
OS2SupXSize: 650
OS2SupYSize: 600
OS2SupXOff: 0
OS2SupYOff: 350
OS2StrikeYSize: 20
OS2StrikeYPos: 280
OS2CapHeight: 630
OS2XHeight: 468
OS2Vendor: 'EKTF'
OS2CodePages: 20000093.00000000
OS2UnicodeRanges: a010002f.4000204a.00000000.00000000
Lookup: 1 0 0 "'onum' Oldstyle Figures lookup 0" { "'onum' Oldstyle Figures lookup 0 subtable" ("oldstyle") } ['onum' ('DFLT' <'dflt' > 'latn' <'dflt' > 'taml' <'dflt' > 'tml2' <'dflt' > ) ]
Lookup: 4 0 1 "'liga' Standard Ligatures lookup 1" { "'liga' Standard Ligatures lookup 1 subtable"  } ['liga' ('DFLT' <'dflt' > 'latn' <'dflt' > 'taml' <'dflt' > 'tml2' <'dflt' > ) ]
Lookup: 4 0 0 "'dlig' Discretionary Ligatures lookup 2" { "'dlig' Discretionary Ligatures lookup 2 subtable"  } ['dlig' ('DFLT' <'dflt' > 'latn' <'dflt' > 'taml' <'dflt' > 'tml2' <'dflt' > ) ]
Lookup: 1 0 0 "'smcp' Lowercase to Small Capitals lookup 3" { "'smcp' Lowercase to Small Capitals lookup 3 subtable"  } ['smcp' ('DFLT' <'dflt' > 'latn' <'dflt' > 'taml' <'dflt' > 'tml2' <'dflt' > ) ]

StartChar: ampersand
Encoding: 38 38 3
Width: 658
GlyphClass: 2
Flags: W
LayerCount: 2
Fore
SplineSet
30 186 m 0,0,1
 30 223 30 223 42.5 253 c 128,-1,2
 55 283 55 283 76 307 c 128,-1,3
 97 331 97 331 125 349 c 128,-1,4
 153 367 153 367 185 380 c 1,5,6
 159 409 159 409 139.5 446.5 c 128,-1,7
 120 484 120 484 120 529 c 0,8,9
 120 562 120 562 133 588 c 128,-1,10
 146 614 146 614 168.5 632.5 c 128,-1,11
 191 651 191 651 221.5 660.5 c 128,-1,12
 252 670 252 670 286 670 c 256,13,14
 320 670 320 670 349.5 660 c 128,-1,15
 379 650 379 650 400.5 631.5 c 128,-1,16
 422 613 422 613 434 587 c 128,-1,17
 446 561 446 561 446 530 c 0,18,19
 446 477 446 477 419 442 c 128,-1,20
 392 407 392 407 348 385 c 1,21,-1
 307 434 l 1,22,23
 333 448 333 448 348.5 471 c 128,-1,24
 364 494 364 494 364 525 c 0,25,26
 364 560 364 560 341.5 582 c 128,-1,27
 319 604 319 604 284 604 c 0,28,29
 246 604 246 604 225 583 c 128,-1,30
 204 562 204 562 204 528 c 0,31,32
 204 483 204 483 229 445.5 c 128,-1,33
 254 408 254 408 301 361 c 2,34,-1
 469 191 l 1,35,36
 486 217 486 217 501 251.5 c 128,-1,37
 516 286 516 286 527 318 c 1,38,-1
 599 289 l 1,39,40
 583 244 583 244 563 205 c 128,-1,41
 543 166 543 166 523 136 c 1,42,-1
 658 0 l 1,43,-1
 550 0 l 1,44,-1
 474 78 l 1,45,46
 460 62 460 62 439.5 46.5 c 128,-1,47
 419 31 419 31 392 19 c 128,-1,48
 365 7 365 7 331.5 -0.5 c 128,-1,49
 298 -8 298 -8 258 -8 c 0,50,51
 206 -8 206 -8 164 6.5 c 128,-1,52
 122 21 122 21 92 47 c 128,-1,53
 62 73 62 73 46 108.5 c 128,-1,54
 30 144 30 144 30 186 c 0,0,1
116 188 m 0,55,56
 116 125 116 125 157.5 92.5 c 128,-1,57
 199 60 199 60 268 60 c 0,58,59
 289 60 289 60 311.5 65 c 128,-1,60
 334 70 334 70 355 79.5 c 128,-1,61
 376 89 376 89 393.5 102 c 128,-1,62
 411 115 411 115 423 131 c 1,63,-1
 227 330 l 1,64,65
 205 319 205 319 185 305 c 128,-1,66
 165 291 165 291 149.5 273.5 c 128,-1,67
 134 256 134 256 125 234.5 c 128,-1,68
 116 213 116 213 116 188 c 0,55,56
EndSplineSet
EndChar

StartChar: plus
Encoding: 43 43 4
Width: 562
GlyphClass: 2
Flags: W
LayerCount: 2
Fore
SplineSet
522 338 m 1,0,-1
 522 274 l 1,1,-1
 313 274 l 1,2,-1
 313 65 l 1,3,-1
 249 65 l 1,4,-1
 249 274 l 1,5,-1
 40 274 l 1,6,-1
 40 338 l 1,7,-1
 249 338 l 1,8,-1
 249 547 l 1,9,-1
 313 547 l 1,10,-1
 313 338 l 1,11,-1
 522 338 l 1,0,-1
EndSplineSet
EndChar

StartChar: less
Encoding: 60 60 5
Width: 496
GlyphClass: 2
Flags: W
LayerCount: 2
Fore
SplineSet
66 225 m 1,0,-1
 66 283 l 1,1,-1
 430 493 l 1,2,-1
 430 421 l 1,3,-1
 131 254 l 1,4,-1
 430 87 l 1,5,-1
 430 15 l 1,6,-1
 66 225 l 1,0,-1
EndSplineSet
EndChar

StartChar: equal
Encoding: 61 61 6
Width: 463
GlyphClass: 2
Flags: W
LayerCount: 2
Fore
SplineSet
423 253 m 1,0,-1
 423 190 l 1,1,-1
 40 190 l 1,2,-1
 40 253 l 1,3,-1
 423 253 l 1,0,-1
423 422 m 1,4,-1
 423 359 l 1,5,-1
 40 359 l 1,6,-1
 40 422 l 1,7,-1
 423 422 l 1,4,-1
EndSplineSet
EndChar

StartChar: greater
Encoding: 62 62 7
Width: 496
GlyphClass: 2
Flags: W
LayerCount: 2
Fore
SplineSet
66 87 m 1,0,-1
 365 254 l 1,1,-1
 66 421 l 1,2,-1
 66 493 l 1,3,-1
 430 283 l 1,4,-1
 430 225 l 1,5,-1
 66 15 l 1,6,-1
 66 87 l 1,0,-1
EndSplineSet
EndChar

StartChar: at
Encoding: 64 64 8
Width: 965
GlyphClass: 2
Flags: W
LayerCount: 2
Fore
SplineSet
564 62 m 1,0,-1
 562 62 l 1,1,2
 545 45 545 45 528.5 31.5 c 128,-1,3
 512 18 512 18 493 9 c 128,-1,4
 474 0 474 0 452.5 -4.5 c 128,-1,5
 431 -9 431 -9 403 -9 c 0,6,7
 342 -9 342 -9 306 24.5 c 128,-1,8
 270 58 270 58 270 112 c 0,9,10
 270 118 270 118 270.5 124 c 128,-1,11
 271 130 271 130 272 136 c 0,12,13
 278 173 278 173 297 199.5 c 128,-1,14
 316 226 316 226 345.5 243.5 c 128,-1,15
 375 261 375 261 412.5 269 c 128,-1,16
 450 277 450 277 493 277 c 2,17,-1
 583 277 l 1,18,-1
 590 317 l 2,19,20
 592 324 592 324 592 330.5 c 128,-1,21
 592 337 592 337 592 342 c 0,22,23
 592 378 592 378 570 391.5 c 128,-1,24
 548 405 548 405 510 405 c 0,25,26
 486 405 486 405 449 396.5 c 128,-1,27
 412 388 412 388 365 364 c 1,28,-1
 341 428 l 1,29,30
 392 453 392 453 436 465 c 128,-1,31
 480 477 480 477 527 477 c 0,32,33
 561 477 561 477 589.5 470.5 c 128,-1,34
 618 464 618 464 638 449 c 128,-1,35
 658 434 658 434 669.5 410 c 128,-1,36
 681 386 681 386 681 350 c 0,37,38
 681 340 681 340 680 329 c 128,-1,39
 679 318 679 318 677 306 c 2,40,-1
 651 146 l 2,41,42
 645 114 645 114 645 96 c 0,43,44
 645 76 645 76 652 68 c 128,-1,45
 659 60 659 60 676 60 c 0,46,47
 710 60 710 60 738.5 82 c 128,-1,48
 767 104 767 104 788 141.5 c 128,-1,49
 809 179 809 179 821 227.5 c 128,-1,50
 833 276 833 276 833 329 c 0,51,52
 833 392 833 392 813.5 446 c 128,-1,53
 794 500 794 500 756.5 539.5 c 128,-1,54
 719 579 719 579 664.5 602 c 128,-1,55
 610 625 610 625 540 625 c 0,56,57
 456 625 456 625 382 596.5 c 128,-1,58
 308 568 308 568 253 511.5 c 128,-1,59
 198 455 198 455 166 370.5 c 128,-1,60
 134 286 134 286 134 174 c 0,61,62
 134 83 134 83 163.5 21 c 128,-1,63
 193 -41 193 -41 240.5 -79 c 128,-1,64
 288 -117 288 -117 347.5 -133.5 c 128,-1,65
 407 -150 407 -150 466 -150 c 0,66,67
 530 -150 530 -150 575 -138.5 c 128,-1,68
 620 -127 620 -127 660 -111 c 1,69,-1
 678 -173 l 1,70,71
 636 -191 636 -191 577.5 -205 c 128,-1,72
 519 -219 519 -219 450 -219 c 0,73,74
 376 -219 376 -219 304.5 -198 c 128,-1,75
 233 -177 233 -177 177 -130.5 c 128,-1,76
 121 -84 121 -84 86.5 -10.5 c 128,-1,77
 52 63 52 63 52 169 c 0,78,79
 52 300 52 300 94 398 c 128,-1,80
 136 496 136 496 204.5 561.5 c 128,-1,81
 273 627 273 627 359.5 659.5 c 128,-1,82
 446 692 446 692 536 692 c 0,83,84
 628 692 628 692 699 664.5 c 128,-1,85
 770 637 770 637 818.5 589 c 128,-1,86
 867 541 867 541 892 475.5 c 128,-1,87
 917 410 917 410 917 333 c 0,88,89
 917 259 917 259 897 197.5 c 128,-1,90
 877 136 877 136 842.5 92 c 128,-1,91
 808 48 808 48 760.5 23.5 c 128,-1,92
 713 -1 713 -1 659 -1 c 0,93,94
 633 -1 633 -1 613 2.5 c 128,-1,95
 593 6 593 6 582 11 c 1,96,-1
 564 62 l 1,0,-1
575 215 m 1,97,-1
 500 215 l 2,98,99
 430 215 430 215 399.5 191.5 c 128,-1,100
 369 168 369 168 364 133 c 0,101,102
 363 129 363 129 363 125.5 c 128,-1,103
 363 122 363 122 363 119 c 0,104,105
 363 87 363 87 384.5 71.5 c 128,-1,106
 406 56 406 56 437 56 c 0,107,108
 503 56 503 56 560 121 c 1,109,-1
 575 215 l 1,97,-1
EndSplineSet
EndChar

StartChar: asciicircum
Encoding: 94 94 9
Width: 516
GlyphClass: 2
Flags: W
LayerCount: 2
Fore
SplineSet
456 416 m 1,0,-1
 380 416 l 1,1,-1
 258 659 l 1,2,-1
 138 416 l 1,3,-1
 61 416 l 1,4,-1
 228 720 l 1,5,-1
 287 720 l 1,6,-1
 456 416 l 1,0,-1
EndSplineSet
EndChar

StartChar: underscore
Encoding: 95 95 10
Width: 366
GlyphClass: 2
Flags: W
LayerCount: 2
Fore
SplineSet
356 -190 m 1,0,-1
 356 -250 l 1,1,-1
 10 -250 l 1,2,-1
 10 -190 l 1,3,-1
 356 -190 l 1,0,-1
EndSplineSet
EndChar

StartChar: asciitilde
Encoding: 126 126 11
Width: 586
GlyphClass: 2
Flags: W
LayerCount: 2
Fore
SplineSet
48 210 m 1,0,1
 48 285 48 285 87 323.5 c 128,-1,2
 126 362 126 362 186 362 c 0,3,4
 216 362 216 362 244.5 349 c 128,-1,5
 273 336 273 336 300 320 c 128,-1,6
 327 304 327 304 352.5 291 c 128,-1,7
 378 278 378 278 402 278 c 0,8,9
 439 278 439 278 459 299.5 c 128,-1,10
 479 321 479 321 479 361 c 1,11,-1
 538 361 l 1,12,13
 538 316 538 316 525.5 287 c 128,-1,14
 513 258 513 258 493.5 240.5 c 128,-1,15
 474 223 474 223 450 216 c 128,-1,16
 426 209 426 209 403 209 c 0,17,18
 373 209 373 209 344 222.5 c 128,-1,19
 315 236 315 236 288 252 c 128,-1,20
 261 268 261 268 235.5 281.5 c 128,-1,21
 210 295 210 295 185 295 c 0,22,23
 147 295 147 295 127 270 c 128,-1,24
 107 245 107 245 107 210 c 1,25,-1
 48 210 l 1,0,1
EndSplineSet
EndChar

StartChar: A
Encoding: 65 65 12
Width: 1019
GlyphClass: 2
Flags: W
LayerCount: 2
Fore
SplineSet
671 199 m 1,0,1
 673 206 673 206 674 217.5 c 128,-1,2
 675 229 675 229 675 243 c 0,3,4
 675 283 675 283 663 317 c 128,-1,5
 651 351 651 351 630 377 c 128,-1,6
 609 403 609 403 580.5 419.5 c 128,-1,7
 552 436 552 436 519 441 c 1,8,9
 538 426 538 426 549 405.5 c 128,-1,10
 560 385 560 385 560 361 c 0,11,12
 560 310 560 310 524.5 279.5 c 128,-1,13
 489 249 489 249 432 249 c 0,14,15
 404 249 404 249 379.5 257.5 c 128,-1,16
 355 266 355 266 337 281 c 128,-1,17
 319 296 319 296 309 317.5 c 128,-1,18
 299 339 299 339 299 365 c 0,19,20
 299 426 299 426 347.5 463 c 128,-1,21
 396 500 396 500 476 500 c 0,22,23
 537 500 537 500 587.5 481 c 128,-1,24
 638 462 638 462 674.5 428 c 128,-1,25
 711 394 711 394 731 346 c 128,-1,26
 751 298 751 298 751 241 c 0,27,28
 751 228 751 228 750 216.5 c 128,-1,29
 749 205 749 205 748 199 c 1,30,-1
 870 199 l 1,31,-1
 870 495 l 1,32,-1
 944 495 l 1,33,-1
 944 -82 l 1,34,-1
 870 -82 l 1,35,-1
 870 137 l 1,36,-1
 738 137 l 1,37,38
 721 83 721 83 685 43.5 c 128,-1,39
 649 4 649 4 598 -21.5 c 128,-1,40
 547 -47 547 -47 484 -59 c 128,-1,41
 421 -71 421 -71 351 -71 c 0,42,43
 280 -71 280 -71 219 -59.5 c 128,-1,44
 158 -48 158 -48 113.5 -26 c 128,-1,45
 69 -4 69 -4 43.5 28 c 128,-1,46
 18 60 18 60 18 101 c 0,47,48
 18 148 18 148 48.5 173.5 c 128,-1,49
 79 199 79 199 136 199 c 2,50,-1
 671 199 l 1,0,1
354 -5 m 0,51,52
 469 -5 469 -5 550 31.5 c 128,-1,53
 631 68 631 68 658 137 c 1,54,-1
 145 137 l 2,55,56
 119 137 119 137 108 125.5 c 128,-1,57
 97 114 97 114 97 97 c 0,58,59
 97 76 97 76 115 57.5 c 128,-1,60
 133 39 133 39 167 25 c 128,-1,61
 201 11 201 11 248 3 c 128,-1,62
 295 -5 295 -5 354 -5 c 0,51,52
493 370 m 0,63,64
 493 398 493 398 478.5 416 c 128,-1,65
 464 434 464 434 444 442 c 1,66,67
 414 440 414 440 393.5 419.5 c 128,-1,68
 373 399 373 399 373 368 c 0,69,70
 373 342 373 342 390.5 325.5 c 128,-1,71
 408 309 408 309 434 309 c 256,72,73
 460 309 460 309 476.5 326 c 128,-1,74
 493 343 493 343 493 370 c 0,63,64
EndSplineSet
EndChar

StartChar: B
Encoding: 66 66 13
Width: 537
GlyphClass: 2
Flags: W
LayerCount: 2
Fore
SplineSet
269 630 m 2,0,1
 363 630 363 630 415.5 589.5 c 128,-1,2
 468 549 468 549 468 471 c 0,3,4
 468 413 468 413 435.5 380.5 c 128,-1,5
 403 348 403 348 354 335 c 1,6,7
 382 330 382 330 406 317.5 c 128,-1,8
 430 305 430 305 448 285 c 128,-1,9
 466 265 466 265 476.5 237.5 c 128,-1,10
 487 210 487 210 487 176 c 0,11,12
 487 137 487 137 470 104.5 c 128,-1,13
 453 72 453 72 423 49 c 128,-1,14
 393 26 393 26 352 13 c 128,-1,15
 311 0 311 0 262 0 c 2,16,-1
 80 0 l 1,17,-1
 80 630 l 1,18,-1
 269 630 l 2,0,1
172 367 m 1,19,-1
 247 367 l 2,20,21
 272 367 272 367 295 371 c 128,-1,22
 318 375 318 375 335.5 386 c 128,-1,23
 353 397 353 397 363.5 415.5 c 128,-1,24
 374 434 374 434 374 464 c 0,25,26
 374 512 374 512 341.5 534 c 128,-1,27
 309 556 309 556 255 556 c 2,28,-1
 172 556 l 1,29,-1
 172 367 l 1,19,-1
172 74 m 1,30,-1
 252 74 l 2,31,32
 280 74 280 74 305 79.5 c 128,-1,33
 330 85 330 85 349 98 c 128,-1,34
 368 111 368 111 379.5 132.5 c 128,-1,35
 391 154 391 154 391 185 c 256,36,37
 391 216 391 216 377.5 236.5 c 128,-1,38
 364 257 364 257 342 270 c 128,-1,39
 320 283 320 283 292 288.5 c 128,-1,40
 264 294 264 294 236 294 c 2,41,-1
 172 294 l 1,42,-1
 172 74 l 1,30,-1
EndSplineSet
EndChar

StartChar: C
Encoding: 67 67 14
Width: 559
GlyphClass: 2
Flags: W
LayerCount: 2
Fore
SplineSet
355 67 m 0,0,1
 405 67 405 67 437.5 75 c 128,-1,2
 470 83 470 83 502 98 c 1,3,-1
 523 24 l 1,4,5
 488 7 488 7 446.5 -1 c 128,-1,6
 405 -9 405 -9 345 -9 c 0,7,8
 283 -9 283 -9 228 12 c 128,-1,9
 173 33 173 33 132.5 74 c 128,-1,10
 92 115 92 115 68.5 175.5 c 128,-1,11
 45 236 45 236 45 315 c 0,12,13
 45 392 45 392 68 452.5 c 128,-1,14
 91 513 91 513 131.5 554.5 c 128,-1,15
 172 596 172 596 228 617.5 c 128,-1,16
 284 639 284 639 350 639 c 0,17,18
 412 639 412 639 452 629 c 128,-1,19
 492 619 492 619 526 602 c 1,20,-1
 504 530 l 1,21,22
 485 538 485 538 468.5 544.5 c 128,-1,23
 452 551 452 551 435.5 555 c 128,-1,24
 419 559 419 559 401.5 561 c 128,-1,25
 384 563 384 563 362 563 c 0,26,27
 318 563 318 563 278.5 549.5 c 128,-1,28
 239 536 239 536 209.5 506 c 128,-1,29
 180 476 180 476 162.5 428.5 c 128,-1,30
 145 381 145 381 145 314 c 0,31,32
 145 246 145 246 162 199 c 128,-1,33
 179 152 179 152 207.5 123 c 128,-1,34
 236 94 236 94 274 80.5 c 128,-1,35
 312 67 312 67 355 67 c 0,0,1
EndSplineSet
EndChar

StartChar: D
Encoding: 68 68 15
Width: 642
GlyphClass: 2
Flags: W
LayerCount: 2
Fore
SplineSet
285 630 m 2,0,1
 352 630 352 630 409 611 c 128,-1,2
 466 592 466 592 507.5 554.5 c 128,-1,3
 549 517 549 517 572.5 460.5 c 128,-1,4
 596 404 596 404 596 329 c 0,5,6
 596 238 596 238 568 175 c 128,-1,7
 540 112 540 112 492.5 73 c 128,-1,8
 445 34 445 34 382.5 17 c 128,-1,9
 320 0 320 0 250 0 c 2,10,-1
 80 0 l 1,11,-1
 80 630 l 1,12,-1
 285 630 l 2,0,1
172 76 m 1,13,-1
 241 76 l 2,14,15
 289 76 289 76 335 86.5 c 128,-1,16
 381 97 381 97 416.5 125.5 c 128,-1,17
 452 154 452 154 474 203 c 128,-1,18
 496 252 496 252 496 329 c 0,19,20
 496 383 496 383 480 425 c 128,-1,21
 464 467 464 467 434 495.5 c 128,-1,22
 404 524 404 524 361.5 539 c 128,-1,23
 319 554 319 554 267 554 c 2,24,-1
 172 554 l 1,25,-1
 172 76 l 1,13,-1
EndSplineSet
EndChar

StartChar: E
Encoding: 69 69 16
Width: 501
GlyphClass: 2
Flags: W
LayerCount: 2
Fore
SplineSet
80 630 m 1,0,-1
 460 630 l 1,1,-1
 460 554 l 1,2,-1
 172 554 l 1,3,-1
 172 365 l 1,4,-1
 434 365 l 1,5,-1
 434 290 l 1,6,-1
 172 290 l 1,7,-1
 172 76 l 1,8,-1
 463 76 l 1,9,-1
 463 0 l 1,10,-1
 80 0 l 1,11,-1
 80 630 l 1,0,-1
EndSplineSet
EndChar

StartChar: F
Encoding: 70 70 17
Width: 485
GlyphClass: 2
Flags: W
LayerCount: 2
Fore
SplineSet
450 630 m 1,0,-1
 450 554 l 1,1,-1
 172 554 l 1,2,-1
 172 350 l 1,3,-1
 428 350 l 1,4,-1
 428 275 l 1,5,-1
 172 275 l 1,6,-1
 172 0 l 1,7,-1
 80 0 l 1,8,-1
 80 630 l 1,9,-1
 450 630 l 1,0,-1
EndSplineSet
EndChar

StartChar: G
Encoding: 71 71 18
Width: 618
GlyphClass: 2
Flags: W
LayerCount: 2
Fore
SplineSet
355 639 m 0,0,1
 410 639 410 639 454.5 631 c 128,-1,2
 499 623 499 623 537 603 c 1,3,-1
 515 531 l 1,4,5
 478 548 478 548 442.5 556 c 128,-1,6
 407 564 407 564 366 564 c 0,7,8
 322 564 322 564 282 551 c 128,-1,9
 242 538 242 538 211.5 508.5 c 128,-1,10
 181 479 181 479 163 431.5 c 128,-1,11
 145 384 145 384 145 314 c 0,12,13
 145 193 145 193 200 130 c 128,-1,14
 255 67 255 67 355 67 c 0,15,16
 393 67 393 67 420.5 71 c 128,-1,17
 448 75 448 75 474 85 c 1,18,-1
 474 260 l 1,19,-1
 355 260 l 1,20,-1
 355 332 l 1,21,-1
 560 332 l 1,22,-1
 560 28 l 1,23,24
 520 12 520 12 471 1.5 c 128,-1,25
 422 -9 422 -9 355 -9 c 0,26,27
 290 -9 290 -9 233.5 12 c 128,-1,28
 177 33 177 33 135 74 c 128,-1,29
 93 115 93 115 69 175 c 128,-1,30
 45 235 45 235 45 314 c 256,31,32
 45 393 45 393 68.5 454 c 128,-1,33
 92 515 92 515 133 556 c 128,-1,34
 174 597 174 597 231 618 c 128,-1,35
 288 639 288 639 355 639 c 0,0,1
EndSplineSet
EndChar

StartChar: H
Encoding: 72 72 19
Width: 1351
GlyphClass: 2
Flags: W
LayerCount: 2
Fore
SplineSet
856 500 m 0,0,1
 880 500 880 500 900.5 492.5 c 128,-1,2
 921 485 921 485 937 473 c 128,-1,3
 953 461 953 461 964 446 c 128,-1,4
 975 431 975 431 980 416 c 1,5,6
 984 431 984 431 993 446 c 128,-1,7
 1002 461 1002 461 1017 473 c 128,-1,8
 1032 485 1032 485 1053.5 492.5 c 128,-1,9
 1075 500 1075 500 1102 500 c 0,10,11
 1137 500 1137 500 1172 483 c 128,-1,12
 1207 466 1207 466 1235.5 429 c 128,-1,13
 1264 392 1264 392 1281.5 334.5 c 128,-1,14
 1299 277 1299 277 1299 195 c 0,15,16
 1299 32 1299 32 1216 -53.5 c 128,-1,17
 1133 -139 1133 -139 964 -139 c 2,18,-1
 335 -139 l 6,19,20
 303 -139 303 -139 289 -152.5 c 132,-1,21
 275 -166 275 -166 275 -188 c 4,22,23
 275 -205 275 -205 282.5 -221 c 132,-1,24
 290 -237 290 -237 299 -250 c 5,25,-1
 237 -283 l 5,26,27
 223 -265 223 -265 211 -239 c 132,-1,28
 199 -213 199 -213 199 -181 c 4,29,30
 199 -150 199 -150 209.5 -129.5 c 132,-1,31
 220 -109 220 -109 237 -97 c 132,-1,32
 254 -85 254 -85 275.5 -80 c 132,-1,33
 297 -75 297 -75 319 -75 c 6,34,-1
 974 -75 l 2,35,36
 1104 -75 1104 -75 1163 -4.5 c 128,-1,37
 1222 66 1222 66 1222 198 c 0,38,39
 1222 263 1222 263 1210.5 308 c 128,-1,40
 1199 353 1199 353 1180.5 381 c 128,-1,41
 1162 409 1162 409 1139 421.5 c 128,-1,42
 1116 434 1116 434 1092 434 c 0,43,44
 1054 434 1054 434 1035 410.5 c 128,-1,45
 1016 387 1016 387 1016 343 c 2,46,-1
 1016 0 l 1,47,-1
 942 0 l 1,48,-1
 942 336 l 2,49,50
 942 378 942 378 921 406 c 128,-1,51
 900 434 900 434 858 434 c 0,52,53
 820 434 820 434 801.5 409 c 128,-1,54
 783 384 783 384 783 340 c 2,55,-1
 783 0 l 1,56,-1
 482 0 l 1,57,-1
 459 48 l 1,58,59
 488 84 488 84 502.5 130.5 c 128,-1,60
 517 177 517 177 517 228 c 0,61,62
 517 274 517 274 503.5 312 c 128,-1,63
 490 350 490 350 465 377 c 128,-1,64
 440 404 440 404 403.5 419 c 128,-1,65
 367 434 367 434 321 434 c 0,66,67
 274 434 274 434 236 419 c 128,-1,68
 198 404 198 404 171 377 c 128,-1,69
 144 350 144 350 128.5 311.5 c 128,-1,70
 113 273 113 273 112 227 c 1,71,72
 130 256 130 256 162 274.5 c 128,-1,73
 194 293 194 293 234 293 c 0,74,75
 266 293 266 293 293 282 c 128,-1,76
 320 271 320 271 339.5 251.5 c 128,-1,77
 359 232 359 232 370 205 c 128,-1,78
 381 178 381 178 381 147 c 0,79,80
 381 112 381 112 369 84 c 128,-1,81
 357 56 357 56 336 35.5 c 128,-1,82
 315 15 315 15 285.5 4 c 128,-1,83
 256 -7 256 -7 221 -7 c 0,84,85
 182 -7 182 -7 150 9 c 128,-1,86
 118 25 118 25 95 54.5 c 128,-1,87
 72 84 72 84 59 125.5 c 128,-1,88
 46 167 46 167 46 217 c 0,89,90
 46 280 46 280 66.5 332.5 c 128,-1,91
 87 385 87 385 124.5 422 c 128,-1,92
 162 459 162 459 213 479.5 c 128,-1,93
 264 500 264 500 326 500 c 0,94,95
 384 500 384 500 433 480.5 c 128,-1,96
 482 461 482 461 518 425.5 c 128,-1,97
 554 390 554 390 574 341 c 128,-1,98
 594 292 594 292 594 233 c 0,99,100
 594 206 594 206 589.5 180 c 128,-1,101
 585 154 585 154 578 131.5 c 128,-1,102
 571 109 571 109 562.5 91.5 c 128,-1,103
 554 74 554 74 547 63 c 1,104,-1
 709 63 l 1,105,-1
 709 333 l 2,106,107
 709 422 709 422 750.5 461 c 128,-1,108
 792 500 792 500 856 500 c 0,0,1
219 230 m 0,109,110
 200 230 200 230 184.5 223.5 c 128,-1,111
 169 217 169 217 156 206 c 128,-1,112
 143 195 143 195 134 181.5 c 128,-1,113
 125 168 125 168 119 153 c 1,114,115
 128 105 128 105 157 80.5 c 128,-1,116
 186 56 186 56 221 56 c 0,117,118
 260 56 260 56 283.5 81 c 128,-1,119
 307 106 307 106 307 144 c 256,120,121
 307 182 307 182 284 206 c 128,-1,122
 261 230 261 230 219 230 c 0,109,110
EndSplineSet
EndChar

StartChar: I
Encoding: 73 73 20
Width: 251
GlyphClass: 2
Flags: W
LayerCount: 2
Fore
SplineSet
172 630 m 1,0,-1
 172 0 l 1,1,-1
 80 0 l 1,2,-1
 80 630 l 1,3,-1
 172 630 l 1,0,-1
EndSplineSet
EndChar

StartChar: J
Encoding: 74 74 21
Width: 269
GlyphClass: 2
Flags: W
LayerCount: 2
Fore
SplineSet
197 630 m 1,0,-1
 197 115 l 2,1,2
 197 45 197 45 190.5 0 c 128,-1,3
 184 -45 184 -45 159 -79 c 0,4,5
 129 -121 129 -121 81 -137.5 c 128,-1,6
 33 -154 33 -154 -15 -155 c 1,7,-1
 -15 -80 l 1,8,9
 44 -79 44 -79 76 -43 c 0,10,11
 94 -23 94 -23 99.5 6 c 128,-1,12
 105 35 105 35 105 67 c 2,13,-1
 105 630 l 1,14,-1
 197 630 l 1,0,-1
EndSplineSet
EndChar

StartChar: K
Encoding: 75 75 22
Width: 576
GlyphClass: 2
Flags: W
LayerCount: 2
Fore
SplineSet
80 0 m 1,0,-1
 80 630 l 1,1,-1
 172 630 l 1,2,-1
 172 345 l 1,3,-1
 437 630 l 1,4,-1
 551 630 l 1,5,-1
 291 351 l 1,6,-1
 571 0 l 1,7,-1
 455 0 l 1,8,-1
 225 288 l 1,9,-1
 172 231 l 1,10,-1
 172 0 l 1,11,-1
 80 0 l 1,0,-1
EndSplineSet
EndChar

StartChar: L
Encoding: 76 76 23
Width: 456
GlyphClass: 2
Flags: W
LayerCount: 2
Fore
SplineSet
80 630 m 1,0,-1
 172 630 l 1,1,-1
 172 78 l 1,2,-1
 441 78 l 1,3,-1
 441 0 l 1,4,-1
 80 0 l 1,5,-1
 80 630 l 1,0,-1
EndSplineSet
EndChar

StartChar: M
Encoding: 77 77 24
Width: 811
GlyphClass: 2
Flags: W
LayerCount: 2
Fore
SplineSet
117 630 m 1,0,-1
 237 630 l 1,1,-1
 369 228 l 2,2,3
 379 199 379 199 388 171.5 c 128,-1,4
 397 144 397 144 405 116 c 1,5,-1
 407 116 l 1,6,7
 415 144 415 144 423.5 170 c 128,-1,8
 432 196 432 196 443 228 c 2,9,-1
 572 630 l 1,10,-1
 692 630 l 1,11,-1
 747 0 l 1,12,-1
 655 0 l 1,13,-1
 629 334 l 2,14,15
 625 383 625 383 623 431.5 c 128,-1,16
 621 480 621 480 619 530 c 1,17,-1
 617 530 l 1,18,19
 603 481 603 481 588.5 432 c 128,-1,20
 574 383 574 383 558 334 c 2,21,-1
 447 0 l 1,22,-1
 363 0 l 1,23,-1
 252 335 l 2,24,25
 235 386 235 386 221 432.5 c 128,-1,26
 207 479 207 479 193 530 c 1,27,-1
 191 530 l 1,28,29
 189 481 189 481 185.5 432 c 128,-1,30
 182 383 182 383 178 334 c 2,31,-1
 154 0 l 1,32,-1
 64 0 l 1,33,-1
 117 630 l 1,0,-1
EndSplineSet
EndChar

StartChar: N
Encoding: 78 78 25
Width: 672
GlyphClass: 2
Flags: W
LayerCount: 2
Fore
SplineSet
80 630 m 1,0,-1
 160 630 l 1,1,-1
 447 231 l 2,2,3
 463 209 463 209 478 186 c 128,-1,4
 493 163 493 163 505 141 c 1,5,-1
 507 141 l 1,6,7
 505 176 505 176 504 211 c 128,-1,8
 503 246 503 246 503 281 c 2,9,-1
 503 630 l 1,10,-1
 593 630 l 1,11,-1
 593 0 l 1,12,-1
 513 0 l 1,13,-1
 229 394 l 2,14,15
 214 415 214 415 198 441.5 c 128,-1,16
 182 468 182 468 168 494 c 1,17,-1
 166 494 l 1,18,19
 168 452 168 452 169 410 c 128,-1,20
 170 368 170 368 170 326 c 2,21,-1
 170 0 l 1,22,-1
 80 0 l 1,23,-1
 80 630 l 1,0,-1
EndSplineSet
EndChar

StartChar: O
Encoding: 79 79 26
Width: 686
GlyphClass: 2
Flags: W
LayerCount: 2
Fore
SplineSet
345 639 m 256,0,1
 409 639 409 639 463 618.5 c 128,-1,2
 517 598 517 598 556.5 557.5 c 128,-1,3
 596 517 596 517 618 456.5 c 128,-1,4
 640 396 640 396 640 315 c 0,5,6
 640 236 640 236 617 175.5 c 128,-1,7
 594 115 594 115 554 74 c 128,-1,8
 514 33 514 33 459.5 12 c 128,-1,9
 405 -9 405 -9 341 -9 c 256,10,11
 277 -9 277 -9 223 11.5 c 128,-1,12
 169 32 169 32 129.5 72.5 c 128,-1,13
 90 113 90 113 68 173.5 c 128,-1,14
 46 234 46 234 46 315 c 0,15,16
 46 394 46 394 69 454.5 c 128,-1,17
 92 515 92 515 132 556 c 128,-1,18
 172 597 172 597 226.5 618 c 128,-1,19
 281 639 281 639 345 639 c 256,0,1
146 315 m 256,20,21
 146 251 146 251 161.5 204 c 128,-1,22
 177 157 177 157 204 126 c 128,-1,23
 231 95 231 95 267.5 80 c 128,-1,24
 304 65 304 65 345 65 c 256,25,26
 386 65 386 65 421.5 80 c 128,-1,27
 457 95 457 95 483.5 126 c 128,-1,28
 510 157 510 157 525 204 c 128,-1,29
 540 251 540 251 540 315 c 0,30,31
 540 381 540 381 524.5 428 c 128,-1,32
 509 475 509 475 482 505.5 c 128,-1,33
 455 536 455 536 418.5 550.5 c 128,-1,34
 382 565 382 565 341 565 c 256,35,36
 300 565 300 565 264 550 c 128,-1,37
 228 535 228 535 202 504 c 128,-1,38
 176 473 176 473 161 426 c 128,-1,39
 146 379 146 379 146 315 c 256,20,21
EndSplineSet
EndChar

StartChar: P
Encoding: 80 80 27
Width: 523
GlyphClass: 2
Flags: W
LayerCount: 2
Fore
SplineSet
80 630 m 1,0,-1
 278 630 l 2,1,2
 327 630 327 630 367 617.5 c 128,-1,3
 407 605 407 605 436 580.5 c 128,-1,4
 465 556 465 556 481 520.5 c 128,-1,5
 497 485 497 485 497 439 c 0,6,7
 497 389 497 389 480 352.5 c 128,-1,8
 463 316 463 316 432 292 c 128,-1,9
 401 268 401 268 359 256 c 128,-1,10
 317 244 317 244 266 244 c 2,11,-1
 172 244 l 1,12,-1
 172 0 l 1,13,-1
 80 0 l 1,14,-1
 80 630 l 1,0,-1
172 319 m 1,15,-1
 229 319 l 2,16,17
 266 319 266 319 298 324 c 128,-1,18
 330 329 330 329 352.5 342 c 128,-1,19
 375 355 375 355 388 378.5 c 128,-1,20
 401 402 401 402 401 438 c 0,21,22
 401 471 401 471 388.5 493.5 c 128,-1,23
 376 516 376 516 356 530 c 128,-1,24
 336 544 336 544 310 550 c 128,-1,25
 284 556 284 556 257 556 c 2,26,-1
 172 556 l 1,27,-1
 172 319 l 1,15,-1
EndSplineSet
EndChar

StartChar: Q
Encoding: 81 81 28
Width: 682
GlyphClass: 2
Flags: W
LayerCount: 2
Fore
SplineSet
345 639 m 256,0,1
 409 639 409 639 463 618.5 c 128,-1,2
 517 598 517 598 556.5 557.5 c 128,-1,3
 596 517 596 517 618 456.5 c 128,-1,4
 640 396 640 396 640 315 c 0,5,6
 640 210 640 210 597 136 c 128,-1,7
 554 62 554 62 458 8 c 2,8,-1
 322 -68 l 1,9,10
 352 -68 352 -68 377.5 -75.5 c 128,-1,11
 403 -83 403 -83 429 -92 c 128,-1,12
 455 -101 455 -101 483 -108.5 c 128,-1,13
 511 -116 511 -116 545 -116 c 0,14,15
 565 -116 565 -116 587.5 -109.5 c 128,-1,16
 610 -103 610 -103 630 -89 c 1,17,-1
 666 -156 l 1,18,19
 638 -174 638 -174 604.5 -183 c 128,-1,20
 571 -192 571 -192 542 -192 c 0,21,22
 507 -192 507 -192 472.5 -182.5 c 128,-1,23
 438 -173 438 -173 404 -161.5 c 128,-1,24
 370 -150 370 -150 337 -140.5 c 128,-1,25
 304 -131 304 -131 271 -131 c 0,26,27
 245 -131 245 -131 219.5 -139 c 128,-1,28
 194 -147 194 -147 168 -162 c 1,29,-1
 130 -93 l 1,30,-1
 284 -4 l 1,31,32
 231 4 231 4 187.5 28.5 c 128,-1,33
 144 53 144 53 112.5 92.5 c 128,-1,34
 81 132 81 132 63.5 188 c 128,-1,35
 46 244 46 244 46 315 c 0,36,37
 46 394 46 394 69 454.5 c 128,-1,38
 92 515 92 515 132 556 c 128,-1,39
 172 597 172 597 226.5 618 c 128,-1,40
 281 639 281 639 345 639 c 256,0,1
146 315 m 256,41,42
 146 251 146 251 160 203.5 c 128,-1,43
 174 156 174 156 199.5 124 c 128,-1,44
 225 92 225 92 260 76 c 128,-1,45
 295 60 295 60 336 60 c 256,46,47
 377 60 377 60 414 76.5 c 128,-1,48
 451 93 451 93 479 125.5 c 128,-1,49
 507 158 507 158 523.5 205.5 c 128,-1,50
 540 253 540 253 540 315 c 0,51,52
 540 381 540 381 524.5 428 c 128,-1,53
 509 475 509 475 482 505.5 c 128,-1,54
 455 536 455 536 418.5 550.5 c 128,-1,55
 382 565 382 565 341 565 c 256,56,57
 300 565 300 565 264 550 c 128,-1,58
 228 535 228 535 202 504 c 128,-1,59
 176 473 176 473 161 426 c 128,-1,60
 146 379 146 379 146 315 c 256,41,42
EndSplineSet
EndChar

StartChar: R
Encoding: 82 82 29
Width: 537
GlyphClass: 2
Flags: W
LayerCount: 2
Fore
SplineSet
80 630 m 1,0,-1
 285 630 l 2,1,2
 334 630 334 630 371.5 616 c 128,-1,3
 409 602 409 602 434 577 c 128,-1,4
 459 552 459 552 472 517.5 c 128,-1,5
 485 483 485 483 485 442 c 0,6,7
 485 406 485 406 474 377 c 128,-1,8
 463 348 463 348 445 326.5 c 128,-1,9
 427 305 427 305 403.5 289.5 c 128,-1,10
 380 274 380 274 356 264 c 1,11,-1
 522 0 l 1,12,-1
 419 0 l 1,13,-1
 270 247 l 1,14,-1
 167 247 l 1,15,-1
 167 0 l 1,16,-1
 80 0 l 1,17,-1
 80 630 l 1,0,-1
167 322 m 1,18,-1
 243 322 l 2,19,20
 274 322 274 322 300.5 328.5 c 128,-1,21
 327 335 327 335 346.5 348.5 c 128,-1,22
 366 362 366 362 377.5 384 c 128,-1,23
 389 406 389 406 389 437 c 0,24,25
 389 498 389 498 355.5 527 c 128,-1,26
 322 556 322 556 258 556 c 2,27,-1
 167 556 l 1,28,-1
 167 322 l 1,18,-1
EndSplineSet
EndChar

StartChar: S
Encoding: 83 83 30
Width: 505
GlyphClass: 2
Flags: W
LayerCount: 2
Fore
SplineSet
257 639 m 0,0,1
 303 639 303 639 346 631.5 c 128,-1,2
 389 624 389 624 431 604 c 1,3,-1
 409 528 l 1,4,5
 366 548 366 548 331.5 556.5 c 128,-1,6
 297 565 297 565 261 565 c 0,7,8
 204 565 204 565 171 540 c 128,-1,9
 138 515 138 515 138 470 c 0,10,11
 138 432 138 432 162.5 409 c 128,-1,12
 187 386 187 386 243 369 c 2,13,-1
 306 349 l 2,14,15
 392 322 392 322 427.5 275.5 c 128,-1,16
 463 229 463 229 463 171 c 0,17,18
 463 130 463 130 446.5 96.5 c 128,-1,19
 430 63 430 63 400.5 39.5 c 128,-1,20
 371 16 371 16 331 3.5 c 128,-1,21
 291 -9 291 -9 243 -9 c 256,22,23
 195 -9 195 -9 145.5 -0.5 c 128,-1,24
 96 8 96 8 47 31 c 1,25,-1
 69 106 l 1,26,27
 112 85 112 85 153 75 c 128,-1,28
 194 65 194 65 239 65 c 0,29,30
 293 65 293 65 331 90 c 128,-1,31
 369 115 369 115 369 164 c 0,32,33
 369 182 369 182 363.5 197.5 c 128,-1,34
 358 213 358 213 344.5 227 c 128,-1,35
 331 241 331 241 308 253 c 128,-1,36
 285 265 285 265 250 276 c 2,37,-1
 187 296 l 2,38,39
 118 318 118 318 81 356 c 128,-1,40
 44 394 44 394 44 459 c 0,41,42
 44 542 44 542 98.5 590.5 c 128,-1,43
 153 639 153 639 257 639 c 0,0,1
EndSplineSet
EndChar

StartChar: T
Encoding: 84 84 31
Width: 673
GlyphClass: 2
Flags: W
LayerCount: 2
Fore
SplineSet
559 495 m 1,0,-1
 559 433 l 1,1,-1
 409 433 l 1,2,-1
 409 293 l 1,3,-1
 425 293 l 2,4,5
 467 293 467 293 506.5 282 c 128,-1,6
 546 271 546 271 577 247.5 c 128,-1,7
 608 224 608 224 627 186.5 c 128,-1,8
 646 149 646 149 646 96 c 0,9,10
 646 37 646 37 623.5 -6.5 c 128,-1,11
 601 -50 601 -50 560 -79.5 c 128,-1,12
 519 -109 519 -109 462 -123.5 c 128,-1,13
 405 -138 405 -138 335 -138 c 2,14,-1
 219 -138 l 6,15,16
 187 -138 187 -138 173 -151.5 c 132,-1,17
 159 -165 159 -165 159 -187 c 4,18,19
 159 -204 159 -204 166.5 -220 c 132,-1,20
 174 -236 174 -236 183 -249 c 5,21,-1
 121 -282 l 5,22,23
 107 -264 107 -264 95 -238 c 132,-1,24
 83 -212 83 -212 83 -180 c 4,25,26
 83 -149 83 -149 93.5 -128.5 c 132,-1,27
 104 -108 104 -108 121 -96 c 132,-1,28
 138 -84 138 -84 159.5 -79 c 132,-1,29
 181 -74 181 -74 203 -74 c 6,30,-1
 330 -74 l 2,31,32
 451 -74 451 -74 510 -28.5 c 128,-1,33
 569 17 569 17 569 102 c 0,34,35
 569 165 569 165 529.5 197.5 c 128,-1,36
 490 230 490 230 424 230 c 2,37,-1
 409 230 l 1,38,-1
 409 146 l 2,39,40
 409 79 409 79 361 36 c 128,-1,41
 313 -7 313 -7 226 -7 c 0,42,43
 185 -7 185 -7 149.5 4 c 128,-1,44
 114 15 114 15 88 36 c 128,-1,45
 62 57 62 57 47 86.5 c 128,-1,46
 32 116 32 116 32 153 c 0,47,48
 32 180 32 180 40 202 c 128,-1,49
 48 224 48 224 61.5 240.5 c 128,-1,50
 75 257 75 257 92.5 268 c 128,-1,51
 110 279 110 279 129 283 c 1,52,-1
 129 495 l 1,53,-1
 559 495 l 1,0,-1
197 230 m 2,54,55
 155 230 155 230 130 210 c 128,-1,56
 105 190 105 190 105 152 c 0,57,58
 105 109 105 109 139 82.5 c 128,-1,59
 173 56 173 56 230 56 c 0,60,61
 281 56 281 56 309 82.5 c 128,-1,62
 337 109 337 109 337 156 c 2,63,-1
 337 230 l 1,64,-1
 197 230 l 2,54,55
201 293 m 1,65,-1
 337 293 l 1,66,-1
 337 433 l 1,67,-1
 201 433 l 1,68,-1
 201 293 l 1,65,-1
EndSplineSet
EndChar

StartChar: U
Encoding: 85 85 32
Width: 640
GlyphClass: 2
Flags: W
LayerCount: 2
Fore
SplineSet
72 630 m 1,0,-1
 164 630 l 1,1,-1
 164 253 l 2,2,3
 164 152 164 152 201 109 c 128,-1,4
 238 66 238 66 320 66 c 0,5,6
 401 66 401 66 438.5 114 c 128,-1,7
 476 162 476 162 476 241 c 2,8,-1
 476 630 l 1,9,-1
 568 630 l 1,10,-1
 568 244 l 2,11,12
 568 115 568 115 502 53 c 128,-1,13
 436 -9 436 -9 320 -9 c 0,14,15
 203 -9 203 -9 137.5 52.5 c 128,-1,16
 72 114 72 114 72 249 c 2,17,-1
 72 630 l 1,0,-1
EndSplineSet
EndChar

StartChar: V
Encoding: 86 86 33
Width: 574
GlyphClass: 2
Flags: W
LayerCount: 2
Fore
SplineSet
94 630 m 1,0,-1
 225 274 l 2,1,2
 239 237 239 237 255.5 192.5 c 128,-1,3
 272 148 272 148 286 110 c 1,4,-1
 288 110 l 1,5,-1
 348 274 l 1,6,-1
 481 630 l 1,7,-1
 577 630 l 1,8,-1
 329 0 l 1,9,-1
 240 0 l 1,10,-1
 -3 630 l 1,11,-1
 94 630 l 1,0,-1
EndSplineSet
EndChar

StartChar: W
Encoding: 87 87 34
Width: 859
GlyphClass: 2
Flags: W
LayerCount: 2
Fore
SplineSet
102 630 m 1,0,-1
 209 259 l 2,1,2
 213 247 213 247 217.5 228.5 c 128,-1,3
 222 210 222 210 227 189.5 c 128,-1,4
 232 169 232 169 236 148.5 c 128,-1,5
 240 128 240 128 242 110 c 1,6,-1
 244 110 l 1,7,8
 247 128 247 128 251.5 148.5 c 128,-1,9
 256 169 256 169 261 189.5 c 128,-1,10
 266 210 266 210 270.5 228 c 128,-1,11
 275 246 275 246 279 259 c 2,12,-1
 389 630 l 1,13,-1
 471 630 l 1,14,-1
 585 259 l 2,15,16
 589 246 589 246 593.5 228 c 128,-1,17
 598 210 598 210 602.5 190 c 128,-1,18
 607 170 607 170 611.5 149 c 128,-1,19
 616 128 616 128 619 110 c 1,20,-1
 621 110 l 1,21,22
 624 129 624 129 628.5 150 c 128,-1,23
 633 171 633 171 638 191.5 c 128,-1,24
 643 212 643 212 647.5 229.5 c 128,-1,25
 652 247 652 247 655 259 c 2,26,-1
 758 630 l 1,27,-1
 851 630 l 1,28,-1
 666 0 l 1,29,-1
 573 0 l 1,30,-1
 477 335 l 2,31,32
 470 360 470 360 463.5 382 c 128,-1,33
 457 404 457 404 451.5 424 c 128,-1,34
 446 444 446 444 440.5 464.5 c 128,-1,35
 435 485 435 485 429 508 c 1,36,-1
 427 508 l 1,37,38
 417 463 417 463 405 418 c 128,-1,39
 393 373 393 373 382 335 c 2,40,-1
 289 0 l 1,41,-1
 197 0 l 1,42,-1
 8 630 l 1,43,-1
 102 630 l 1,0,-1
EndSplineSet
EndChar

StartChar: X
Encoding: 88 88 35
Width: 545
GlyphClass: 2
Flags: W
LayerCount: 2
Fore
SplineSet
120 630 m 1,0,-1
 271 384 l 1,1,-1
 429 630 l 1,2,-1
 530 630 l 1,3,-1
 323 320 l 1,4,-1
 540 0 l 1,5,-1
 434 0 l 1,6,-1
 271 256 l 1,7,-1
 107 0 l 1,8,-1
 6 0 l 1,9,-1
 216 320 l 1,10,-1
 15 630 l 1,11,-1
 120 630 l 1,0,-1
EndSplineSet
EndChar

StartChar: Y
Encoding: 89 89 36
Width: 523
GlyphClass: 2
Flags: W
LayerCount: 2
Fore
SplineSet
111 630 m 1,0,-1
 268 348 l 1,1,-1
 426 630 l 1,2,-1
 523 630 l 1,3,-1
 310 264 l 1,4,-1
 310 0 l 1,5,-1
 218 0 l 1,6,-1
 218 264 l 1,7,-1
 10 630 l 1,8,-1
 111 630 l 1,0,-1
EndSplineSet
EndChar

StartChar: Z
Encoding: 90 90 37
Width: 511
GlyphClass: 2
Flags: W
LayerCount: 2
Fore
SplineSet
481 630 m 1,0,-1
 481 575 l 1,1,-1
 135 74 l 1,2,-1
 486 74 l 1,3,-1
 486 0 l 1,4,-1
 26 0 l 1,5,-1
 26 65 l 1,6,-1
 366 556 l 1,7,-1
 41 556 l 1,8,-1
 41 630 l 1,9,-1
 481 630 l 1,0,-1
EndSplineSet
EndChar

StartChar: grave
Encoding: 96 96 38
Width: 210
GlyphClass: 2
Flags: W
LayerCount: 2
Fore
SplineSet
22 720 m 1,0,-1
 110 720 l 1,1,-1
 190 555 l 1,2,-1
 128 555 l 1,3,-1
 22 720 l 1,0,-1
EndSplineSet
EndChar

StartChar: a
Encoding: 97 97 39
Width: 489
GlyphClass: 2
Flags: W
LayerCount: 2
Fore
SplineSet
73 428 m 1,0,1
 97 440 97 440 118 449.5 c 128,-1,2
 139 459 139 459 160 465 c 128,-1,3
 181 471 181 471 203 474 c 128,-1,4
 225 477 225 477 251 477 c 0,5,6
 290 477 290 477 322.5 468.5 c 128,-1,7
 355 460 355 460 378.5 440 c 128,-1,8
 402 420 402 420 415 387.5 c 128,-1,9
 428 355 428 355 428 306 c 2,10,-1
 428 0 l 1,11,-1
 355 0 l 1,12,-1
 344 52 l 1,13,-1
 342 52 l 1,14,15
 311 19 311 19 274 5 c 128,-1,16
 237 -9 237 -9 192 -9 c 0,17,18
 158 -9 158 -9 129.5 0.5 c 128,-1,19
 101 10 101 10 80 27.5 c 128,-1,20
 59 45 59 45 47.5 70 c 128,-1,21
 36 95 36 95 36 126 c 0,22,23
 36 200 36 200 94.5 238.5 c 128,-1,24
 153 277 153 277 249 277 c 2,25,-1
 339 277 l 1,26,-1
 339 317 l 2,27,28
 339 368 339 368 313 386.5 c 128,-1,29
 287 405 287 405 243 405 c 0,30,31
 217 405 217 405 183.5 396.5 c 128,-1,32
 150 388 150 388 107 364 c 1,33,-1
 73 428 l 1,0,1
340 217 m 1,34,-1
 266 215 l 2,35,36
 191 213 191 213 159.5 188.5 c 128,-1,37
 128 164 128 164 128 129 c 0,38,39
 128 108 128 108 135 93.5 c 128,-1,40
 142 79 142 79 153.5 71 c 128,-1,41
 165 63 165 63 180.5 59.5 c 128,-1,42
 196 56 196 56 213 56 c 0,43,44
 246 56 246 56 280 71.5 c 128,-1,45
 314 87 314 87 340 121 c 1,46,-1
 340 217 l 1,34,-1
EndSplineSet
Substitution2: "'ss01' Style Set 1 lookup 15 subtable" a.alt
Substitution2: "'salt' Stylistic Alternatives lookup 10 subtable" a.alt
Substitution2: "'smcp' Lowercase to Small Capitals lookup 3 subtable" Asmall
EndChar

StartChar: b
Encoding: 98 98 40
Width: 540
GlyphClass: 2
Flags: W
LayerCount: 2
Fore
SplineSet
502 235 m 0,0,1
 502 179 502 179 485 134 c 128,-1,2
 468 89 468 89 439 57 c 128,-1,3
 410 25 410 25 371 8 c 128,-1,4
 332 -9 332 -9 288 -9 c 0,5,6
 242 -9 242 -9 207.5 4 c 128,-1,7
 173 17 173 17 143 44 c 1,8,-1
 141 44 l 1,9,-1
 132 0 l 1,10,-1
 69 0 l 1,11,-1
 69 710 l 1,12,-1
 156 710 l 1,13,-1
 156 411 l 1,14,15
 188 445 188 445 226.5 461 c 128,-1,16
 265 477 265 477 307 477 c 0,17,18
 397 477 397 477 449.5 413 c 128,-1,19
 502 349 502 349 502 235 c 0,0,1
410 234 m 0,20,21
 410 312 410 312 377 358.5 c 128,-1,22
 344 405 344 405 284 405 c 0,23,24
 246 405 246 405 215 388 c 128,-1,25
 184 371 184 371 156 340 c 1,26,-1
 156 112 l 1,27,28
 177 88 177 88 203.5 73.5 c 128,-1,29
 230 59 230 59 265 59 c 0,30,31
 293 59 293 59 319.5 69 c 128,-1,32
 346 79 346 79 366 100.5 c 128,-1,33
 386 122 386 122 398 155 c 128,-1,34
 410 188 410 188 410 234 c 0,20,21
EndSplineSet
Substitution2: "'smcp' Lowercase to Small Capitals lookup 3 subtable" Bsmall
EndChar

StartChar: c
Encoding: 99 99 41
Width: 559
GlyphClass: 2
Flags: W
LayerCount: 2
Fore
SplineSet
335.120117188 159.58984375 m 5,0,-1
 283.166015625 159.58984375 l 5,1,-1
 283.166015625 502.51953125 l 5,2,-1
 335.120117188 502.51953125 l 5,3,-1
 335.120117188 357.620117188 l 5,4,5
 333 377 333 377 343.71875 380.803710938 c 4,6,7
 367 390 367 390 395.174804688 389.98046875 c 4,8,9
 418 390 418 390 435.321289062 384.42578125 c 4,10,11
 459 377 459 377 463.366210938 368.969726562 c 4,12,13
 472 354 472 354 479.897460938 345.544921875 c 4,14,15
 485.506835938 340.448242188 485.506835938 340.448242188 485.506835938 316.08203125 c 6,16,-1
 485.506835938 159.58984375 l 5,17,-1
 433.55078125 159.58984375 l 5,18,-1
 433.55078125 285.456054688 l 6,19,20
 434 312 434 312 420.561523438 323.37109375 c 4,21,22
 408 335 408 335 381.005859375 335.205078125 c 4,23,24
 361 335 361 335 358 327 c 132,-1,25
 355 319 355 319 335.120117188 303.809570312 c 5,26,-1
 335.120117188 159.58984375 l 5,0,-1
355 67 m 0,27,28
 405 67 405 67 437.5 75 c 128,-1,29
 470 83 470 83 502 98 c 1,30,-1
 523 24 l 1,31,32
 488 7 488 7 446.5 -1 c 128,-1,33
 405 -9 405 -9 345 -9 c 0,34,35
 283 -9 283 -9 228 12 c 128,-1,36
 173 33 173 33 132.5 74 c 128,-1,37
 92 115 92 115 68.5 175.5 c 128,-1,38
 45 236 45 236 45 315 c 0,39,40
 45 392 45 392 68 452.5 c 128,-1,41
 91 513 91 513 131.5 554.5 c 128,-1,42
 172 596 172 596 228 617.5 c 128,-1,43
 284 639 284 639 350 639 c 0,44,45
 412 639 412 639 452 629 c 128,-1,46
 492 619 492 619 526 602 c 1,47,-1
 504 530 l 1,48,49
 485 538 485 538 468.5 544.5 c 128,-1,50
 452 551 452 551 435.5 555 c 128,-1,51
 419 559 419 559 401.5 561 c 128,-1,52
 384 563 384 563 362 563 c 0,53,54
 318 563 318 563 278.5 549.5 c 128,-1,55
 239 536 239 536 209.5 506 c 128,-1,56
 180 476 180 476 162.5 428.5 c 128,-1,57
 145 381 145 381 145 314 c 0,58,59
 145 246 145 246 162 199 c 128,-1,60
 179 152 179 152 207.5 123 c 128,-1,61
 236 94 236 94 274 80.5 c 128,-1,62
 312 67 312 67 355 67 c 0,27,28
EndSplineSet
Substitution2: "'smcp' Lowercase to Small Capitals lookup 3 subtable" Csmall
EndChar

StartChar: d
Encoding: 100 100 42
Width: 536
GlyphClass: 2
Flags: W
LayerCount: 2
Fore
SplineSet
380 710 m 1,0,-1
 468 710 l 1,1,-1
 468 0 l 1,2,-1
 394 0 l 1,3,-1
 383 52 l 1,4,-1
 380 52 l 1,5,6
 349 20 349 20 317.5 5.5 c 128,-1,7
 286 -9 286 -9 238 -9 c 0,8,9
 200 -9 200 -9 164.5 6 c 128,-1,10
 129 21 129 21 101 51 c 128,-1,11
 73 81 73 81 56 126.5 c 128,-1,12
 39 172 39 172 39 234 c 0,13,14
 39 289 39 289 53.5 334 c 128,-1,15
 68 379 68 379 95 411 c 128,-1,16
 122 443 122 443 161 460 c 128,-1,17
 200 477 200 477 250 477 c 0,18,19
 287 477 287 477 320.5 465.5 c 128,-1,20
 354 454 354 454 380 431 c 1,21,-1
 380 710 l 1,0,-1
380 357 m 1,22,23
 333 410 333 410 269 410 c 0,24,25
 242 410 242 410 216.5 400.5 c 128,-1,26
 191 391 191 391 171.5 370 c 128,-1,27
 152 349 152 349 140 316 c 128,-1,28
 128 283 128 283 128 237 c 0,29,30
 128 189 128 189 139 155.5 c 128,-1,31
 150 122 150 122 168.5 100.5 c 128,-1,32
 187 79 187 79 210.5 69 c 128,-1,33
 234 59 234 59 258 59 c 0,34,35
 333 59 333 59 380 124 c 1,36,-1
 380 357 l 1,22,23
EndSplineSet
Substitution2: "'smcp' Lowercase to Small Capitals lookup 3 subtable" Dsmall
EndChar

StartChar: e
Encoding: 101 101 43
Width: 504
GlyphClass: 2
Flags: W
LayerCount: 2
Fore
SplineSet
468 225 m 1,0,-1
 131 225 l 1,1,-1
 131 221 l 2,2,3
 131 143 131 143 173.5 101 c 128,-1,4
 216 59 216 59 289 59 c 0,5,6
 327 59 327 59 356.5 65 c 128,-1,7
 386 71 386 71 421 85 c 1,8,-1
 439 20 l 1,9,10
 410 7 410 7 370.5 -1 c 128,-1,11
 331 -9 331 -9 286 -9 c 0,12,13
 235 -9 235 -9 190.5 5 c 128,-1,14
 146 19 146 19 112 48.5 c 128,-1,15
 78 78 78 78 58.5 124 c 128,-1,16
 39 170 39 170 39 234 c 0,17,18
 39 289 39 289 55.5 334 c 128,-1,19
 72 379 72 379 102 410.5 c 128,-1,20
 132 442 132 442 174.5 459.5 c 128,-1,21
 217 477 217 477 270 477 c 0,22,23
 315 477 315 477 351.5 462 c 128,-1,24
 388 447 388 447 414 420 c 128,-1,25
 440 393 440 393 454 355 c 128,-1,26
 468 317 468 317 468 271 c 2,27,-1
 468 225 l 1,0,-1
377 288 m 1,28,29
 377 314 377 314 370.5 336.5 c 128,-1,30
 364 359 364 359 350.5 376 c 128,-1,31
 337 393 337 393 316 403 c 128,-1,32
 295 413 295 413 265 413 c 0,33,34
 210 413 210 413 175.5 378 c 128,-1,35
 141 343 141 343 133 286 c 1,36,-1
 377 288 l 1,28,29
EndSplineSet
Substitution2: "'smcp' Lowercase to Small Capitals lookup 3 subtable" Esmall
EndChar

StartChar: f
Encoding: 102 102 44
Width: 332
GlyphClass: 2
Flags: W
LayerCount: 2
Fore
SplineSet
245 715 m 0,0,1
 273 715 273 715 303.5 707 c 128,-1,2
 334 699 334 699 358 687 c 1,3,-1
 340 626 l 1,4,5
 320 634 320 634 302 638.5 c 128,-1,6
 284 643 284 643 264 643 c 0,7,8
 216 643 216 643 195.5 616 c 128,-1,9
 175 589 175 589 175 524 c 2,10,-1
 175 470 l 1,11,-1
 318 470 l 1,12,-1
 318 404 l 1,13,-1
 175 404 l 1,14,-1
 175 0 l 1,15,-1
 88 0 l 1,16,-1
 88 404 l 1,17,-1
 19 404 l 1,18,-1
 19 470 l 1,19,-1
 88 470 l 1,20,-1
 88 553 l 2,21,22
 88 631 88 631 128.5 673 c 128,-1,23
 169 715 169 715 245 715 c 0,0,1
EndSplineSet
Substitution2: "'smcp' Lowercase to Small Capitals lookup 3 subtable" Fsmall
EndChar

StartChar: g
Encoding: 103 103 45
Width: 541
GlyphClass: 2
Flags: W
LayerCount: 2
Fore
SplineSet
61 314 m 0,0,1
 61 353 61 353 75 383.5 c 128,-1,2
 89 414 89 414 114.5 435 c 128,-1,3
 140 456 140 456 175 466.5 c 128,-1,4
 210 477 210 477 251 477 c 0,5,6
 266 477 266 477 280 475 c 128,-1,7
 294 473 294 473 308 470 c 2,8,-1
 511 470 l 1,9,-1
 511 405 l 1,10,-1
 480 405 l 1,11,-1
 400 416 l 1,12,13
 419 396 419 396 429.5 370 c 128,-1,14
 440 344 440 344 440 315 c 0,15,16
 440 276 440 276 426 245.5 c 128,-1,17
 412 215 412 215 387 194 c 128,-1,18
 362 173 362 173 327 162.5 c 128,-1,19
 292 152 292 152 251 152 c 0,20,21
 220 152 220 152 197 156 c 1,22,23
 174 148 174 148 165 135.5 c 128,-1,24
 156 123 156 123 156 109 c 0,25,26
 156 86 156 86 171.5 78 c 128,-1,27
 187 70 187 70 213 70 c 2,28,-1
 337 70 l 2,29,30
 415 70 415 70 456.5 34.5 c 128,-1,31
 498 -1 498 -1 498 -62 c 0,32,33
 498 -101 498 -101 481 -132 c 128,-1,34
 464 -163 464 -163 432.5 -185 c 128,-1,35
 401 -207 401 -207 356 -218.5 c 128,-1,36
 311 -230 311 -230 255 -230 c 0,37,38
 153 -230 153 -230 92.5 -193.5 c 128,-1,39
 32 -157 32 -157 32 -86 c 0,40,41
 32 -49 32 -49 55.5 -24 c 128,-1,42
 79 1 79 1 117 14 c 1,43,44
 97 28 97 28 87 43.5 c 128,-1,45
 77 59 77 59 77 85 c 0,46,47
 77 116 77 116 95.5 138 c 128,-1,48
 114 160 114 160 146 173 c 1,49,50
 106 191 106 191 83.5 225.5 c 128,-1,51
 61 260 61 260 61 314 c 0,0,1
168 0 m 1,52,53
 117 -23 117 -23 117 -72 c 0,54,55
 117 -160 117 -160 259 -160 c 0,56,57
 301 -160 301 -160 330 -152 c 128,-1,58
 359 -144 359 -144 377 -131 c 128,-1,59
 395 -118 395 -118 403.5 -102 c 128,-1,60
 412 -86 412 -86 412 -69 c 0,61,62
 412 -27 412 -27 383.5 -13.5 c 128,-1,63
 355 0 355 0 312 0 c 2,64,-1
 168 0 l 1,52,53
351 312 m 0,65,66
 351 365 351 365 323.5 390 c 128,-1,67
 296 415 296 415 251 415 c 256,68,69
 206 415 206 415 178.5 390 c 128,-1,70
 151 365 151 365 151 316 c 0,71,72
 151 264 151 264 178.5 239.5 c 128,-1,73
 206 215 206 215 251 215 c 256,74,75
 296 215 296 215 323.5 239 c 128,-1,76
 351 263 351 263 351 312 c 0,65,66
EndSplineSet
Substitution2: "'ss01' Style Set 1 lookup 15 subtable" g.alt
Substitution2: "'salt' Stylistic Alternatives lookup 10 subtable" g.alt
Substitution2: "'smcp' Lowercase to Small Capitals lookup 3 subtable" Gsmall
EndChar

StartChar: h
Encoding: 104 104 46
Width: 540
GlyphClass: 2
Flags: W
LayerCount: 2
Fore
SplineSet
157 0 m 1,0,-1
 69 0 l 1,1,-1
 69 710 l 1,2,-1
 157 710 l 1,3,-1
 157 410 l 1,4,5
 190 439 190 439 230 458 c 128,-1,6
 270 477 270 477 318 477 c 0,7,8
 357 477 357 477 386 465.5 c 128,-1,9
 415 454 415 454 433.5 433.5 c 128,-1,10
 452 413 452 413 461.5 385 c 128,-1,11
 471 357 471 357 471 324 c 2,12,-1
 471 0 l 1,13,-1
 383 0 l 1,14,-1
 383 302 l 2,15,16
 383 356 383 356 361 380.5 c 128,-1,17
 339 405 339 405 294 405 c 0,18,19
 260 405 260 405 225.5 388 c 128,-1,20
 191 371 191 371 157 340 c 1,21,-1
 157 0 l 1,0,-1
EndSplineSet
Substitution2: "'smcp' Lowercase to Small Capitals lookup 3 subtable" Hsmall
EndChar

StartChar: i
Encoding: 105 105 47
Width: 246
GlyphClass: 2
Flags: W
LayerCount: 2
Fore
SplineSet
82 0 m 1,0,-1
 82 470 l 1,1,-1
 170 470 l 1,2,-1
 170 0 l 1,3,-1
 82 0 l 1,0,-1
126 591 m 0,4,5
 103 591 103 591 86.5 606.5 c 128,-1,6
 70 622 70 622 70 645 c 256,7,8
 70 668 70 668 86.5 684 c 128,-1,9
 103 700 103 700 126 700 c 0,10,11
 148 700 148 700 165 684 c 128,-1,12
 182 668 182 668 182 645 c 256,13,14
 182 622 182 622 165 606.5 c 128,-1,15
 148 591 148 591 126 591 c 0,4,5
EndSplineSet
Substitution2: "'smcp' Lowercase to Small Capitals lookup 3 subtable" Ismall
EndChar

StartChar: j
Encoding: 106 106 48
Width: 246
GlyphClass: 2
Flags: W
LayerCount: 2
Fore
SplineSet
79 470 m 1,0,-1
 167 470 l 1,1,-1
 167 71 l 2,2,3
 167 14 167 14 160.5 -33.5 c 128,-1,4
 154 -81 154 -81 136 -119.5 c 128,-1,5
 118 -158 118 -158 86 -188 c 128,-1,6
 54 -218 54 -218 4 -240 c 1,7,-1
 -37 -174 l 1,8,9
 -6 -158 -6 -158 16.5 -141 c 128,-1,10
 39 -124 39 -124 52.5 -98.5 c 128,-1,11
 66 -73 66 -73 72.5 -35.5 c 128,-1,12
 79 2 79 2 79 60 c 2,13,-1
 79 470 l 1,0,-1
122 591 m 0,14,15
 99 591 99 591 82.5 606.5 c 128,-1,16
 66 622 66 622 66 645 c 256,17,18
 66 668 66 668 82.5 684 c 128,-1,19
 99 700 99 700 122 700 c 0,20,21
 144 700 144 700 161 684 c 128,-1,22
 178 668 178 668 178 645 c 256,23,24
 178 622 178 622 161 606.5 c 128,-1,25
 144 591 144 591 122 591 c 0,14,15
EndSplineSet
Substitution2: "'smcp' Lowercase to Small Capitals lookup 3 subtable" Jsmall
EndChar

StartChar: k
Encoding: 107 107 49
Width: 467
GlyphClass: 2
Flags: W
LayerCount: 2
Fore
SplineSet
156 172 m 1,0,-1
 156 0 l 1,1,-1
 69 0 l 1,2,-1
 69 710 l 1,3,-1
 156 710 l 1,4,-1
 156 268 l 1,5,-1
 345 470 l 1,6,-1
 454 470 l 1,7,-1
 261 272 l 1,8,-1
 463 0 l 1,9,-1
 359 0 l 1,10,-1
 203 219 l 1,11,-1
 156 172 l 1,0,-1
EndSplineSet
Substitution2: "'smcp' Lowercase to Small Capitals lookup 3 subtable" Ksmall
EndChar

StartChar: l
Encoding: 108 108 50
Width: 230
GlyphClass: 2
Flags: W
LayerCount: 2
Fore
SplineSet
72 0 m 1,0,-1
 72 710 l 1,1,-1
 158 710 l 1,2,-1
 158 0 l 1,3,-1
 72 0 l 1,0,-1
EndSplineSet
Substitution2: "'smcp' Lowercase to Small Capitals lookup 3 subtable" Lsmall
EndChar

StartChar: m
Encoding: 109 109 51
Width: 824
GlyphClass: 2
Flags: W
LayerCount: 2
Fore
SplineSet
156 0 m 1,0,-1
 68 0 l 1,1,-1
 68 470 l 1,2,-1
 136 470 l 1,3,-1
 149 405 l 1,4,5
 182 438 182 438 220 457.5 c 128,-1,6
 258 477 258 477 311 477 c 0,7,8
 361 477 361 477 393 456.5 c 128,-1,9
 425 436 425 436 441 400 c 1,10,11
 476 437 476 437 518 457 c 128,-1,12
 560 477 560 477 611 477 c 0,13,14
 683 477 683 477 719.5 436.5 c 128,-1,15
 756 396 756 396 756 324 c 2,16,-1
 756 0 l 1,17,-1
 668 0 l 1,18,-1
 668 308 l 2,19,20
 668 355 668 355 648 380 c 128,-1,21
 628 405 628 405 582 405 c 0,22,23
 514 405 514 405 455 344 c 1,24,25
 456 339 456 339 456 334 c 128,-1,26
 456 329 456 329 456 324 c 2,27,-1
 456 0 l 1,28,-1
 368 0 l 1,29,-1
 368 308 l 2,30,31
 368 355 368 355 348 380 c 128,-1,32
 328 405 328 405 282 405 c 0,33,34
 214 405 214 405 156 341 c 1,35,-1
 156 0 l 1,0,-1
EndSplineSet
Substitution2: "'smcp' Lowercase to Small Capitals lookup 3 subtable" Msmall
EndChar

StartChar: n
Encoding: 110 110 52
Width: 534
GlyphClass: 2
Flags: W
LayerCount: 2
Fore
SplineSet
156 0 m 1,0,-1
 68 0 l 1,1,-1
 68 470 l 1,2,-1
 137 470 l 1,3,-1
 150 405 l 1,4,5
 185 440 185 440 223.5 458.5 c 128,-1,6
 262 477 262 477 312 477 c 0,7,8
 384 477 384 477 425 436.5 c 128,-1,9
 466 396 466 396 466 324 c 2,10,-1
 466 0 l 1,11,-1
 378 0 l 1,12,-1
 378 311 l 2,13,14
 378 354 378 354 355.5 379.5 c 128,-1,15
 333 405 333 405 287 405 c 0,16,17
 217 405 217 405 156 342 c 1,18,-1
 156 0 l 1,0,-1
EndSplineSet
Substitution2: "'smcp' Lowercase to Small Capitals lookup 3 subtable" Nsmall
EndChar

StartChar: o
Encoding: 111 111 53
Width: 538
GlyphClass: 2
Flags: W
LayerCount: 2
Fore
SplineSet
499 240 m 0,0,1
 499 181 499 181 481 134.5 c 128,-1,2
 463 88 463 88 431.5 56 c 128,-1,3
 400 24 400 24 358 7.5 c 128,-1,4
 316 -9 316 -9 267 -9 c 256,5,6
 218 -9 218 -9 176.5 6.5 c 128,-1,7
 135 22 135 22 104.5 52.5 c 128,-1,8
 74 83 74 83 56.5 127.5 c 128,-1,9
 39 172 39 172 39 230 c 0,10,11
 39 289 39 289 57 335 c 128,-1,12
 75 381 75 381 106.5 412.5 c 128,-1,13
 138 444 138 444 180 460.5 c 128,-1,14
 222 477 222 477 271 477 c 256,15,16
 320 477 320 477 361.5 462 c 128,-1,17
 403 447 403 447 433.5 417 c 128,-1,18
 464 387 464 387 481.5 342.5 c 128,-1,19
 499 298 499 298 499 240 c 0,0,1
407 235 m 0,20,21
 407 282 407 282 395 315 c 128,-1,22
 383 348 383 348 363.5 369 c 128,-1,23
 344 390 344 390 319 399.5 c 128,-1,24
 294 409 294 409 268 409 c 256,25,26
 242 409 242 409 217 401 c 128,-1,27
 192 393 192 393 173 373 c 128,-1,28
 154 353 154 353 142.5 319.5 c 128,-1,29
 131 286 131 286 131 235 c 0,30,31
 131 188 131 188 143 154.5 c 128,-1,32
 155 121 155 121 174.5 100 c 128,-1,33
 194 79 194 79 219 69 c 128,-1,34
 244 59 244 59 270 59 c 256,35,36
 296 59 296 59 321 67.5 c 128,-1,37
 346 76 346 76 365 96.5 c 128,-1,38
 384 117 384 117 395.5 150.5 c 128,-1,39
 407 184 407 184 407 235 c 0,20,21
EndSplineSet
Substitution2: "'smcp' Lowercase to Small Capitals lookup 3 subtable" Osmall
EndChar

StartChar: p
Encoding: 112 112 54
Width: 531
GlyphClass: 2
Flags: W
LayerCount: 2
Fore
SplineSet
263 -9 m 0,0,1
 231 -9 231 -9 201.5 0 c 128,-1,2
 172 9 172 9 151 24 c 1,3,-1
 151 -230 l 1,4,-1
 64 -230 l 1,5,-1
 64 477 l 1,6,-1
 137 477 l 1,7,-1
 150 416 l 1,8,9
 177 441 177 441 211 459 c 128,-1,10
 245 477 245 477 291 477 c 0,11,12
 385 477 385 477 439 417 c 128,-1,13
 493 357 493 357 493 245 c 0,14,15
 493 179 493 179 473.5 131 c 128,-1,16
 454 83 454 83 421.5 52 c 128,-1,17
 389 21 389 21 347.5 6 c 128,-1,18
 306 -9 306 -9 263 -9 c 0,0,1
272 405 m 0,19,20
 230 405 230 405 199 384.5 c 128,-1,21
 168 364 168 364 151 343 c 1,22,-1
 151 92 l 1,23,24
 174 75 174 75 200 67 c 128,-1,25
 226 59 226 59 252 59 c 0,26,27
 279 59 279 59 306 68.5 c 128,-1,28
 333 78 333 78 354 100 c 128,-1,29
 375 122 375 122 388 157 c 128,-1,30
 401 192 401 192 401 243 c 0,31,32
 401 318 401 318 369.5 361.5 c 128,-1,33
 338 405 338 405 272 405 c 0,19,20
EndSplineSet
Substitution2: "'smcp' Lowercase to Small Capitals lookup 3 subtable" Psmall
EndChar

StartChar: q
Encoding: 113 113 55
Width: 536
GlyphClass: 2
Flags: W
LayerCount: 2
Fore
SplineSet
380 34 m 1,0,1
 354 11 354 11 322.5 1 c 128,-1,2
 291 -9 291 -9 251 -9 c 0,3,4
 201 -9 201 -9 161.5 8.5 c 128,-1,5
 122 26 122 26 95 57.5 c 128,-1,6
 68 89 68 89 53.5 134 c 128,-1,7
 39 179 39 179 39 235 c 0,8,9
 39 287 39 287 53 331.5 c 128,-1,10
 67 376 67 376 94.5 408 c 128,-1,11
 122 440 122 440 162.5 458.5 c 128,-1,12
 203 477 203 477 255 477 c 0,13,14
 270 477 270 477 288 473.5 c 128,-1,15
 306 470 306 470 323.5 463 c 128,-1,16
 341 456 341 456 357 445.5 c 128,-1,17
 373 435 373 435 385 422 c 1,18,-1
 395 470 l 1,19,-1
 468 470 l 1,20,-1
 468 -230 l 1,21,-1
 380 -230 l 1,22,-1
 380 34 l 1,0,1
380 350 m 1,23,24
 362 375 362 375 333.5 392.5 c 128,-1,25
 305 410 305 410 270 410 c 0,26,27
 241 410 241 410 215.5 400.5 c 128,-1,28
 190 391 190 391 170.5 370 c 128,-1,29
 151 349 151 349 139.5 316.5 c 128,-1,30
 128 284 128 284 128 238 c 0,31,32
 128 149 128 149 165.5 104 c 128,-1,33
 203 59 203 59 263 59 c 0,34,35
 300 59 300 59 330 73.5 c 128,-1,36
 360 88 360 88 380 111 c 1,37,-1
 380 350 l 1,23,24
EndSplineSet
Substitution2: "'smcp' Lowercase to Small Capitals lookup 3 subtable" Qsmall
EndChar

StartChar: r
Encoding: 114 114 56
Width: 372
GlyphClass: 2
Flags: W
LayerCount: 2
Fore
SplineSet
66 0 m 1,0,-1
 66 470 l 1,1,-1
 132 470 l 1,2,-1
 147 376 l 1,3,4
 164 421 164 421 203 449 c 128,-1,5
 242 477 242 477 293 477 c 0,6,7
 319 477 319 477 336 473 c 128,-1,8
 353 469 353 469 367 463 c 1,9,-1
 350 386 l 1,10,11
 338 392 338 392 323.5 396 c 128,-1,12
 309 400 309 400 289 400 c 0,13,14
 260 400 260 400 235.5 390 c 128,-1,15
 211 380 211 380 192.5 360 c 128,-1,16
 174 340 174 340 163.5 310.5 c 128,-1,17
 153 281 153 281 153 243 c 2,18,-1
 153 0 l 1,19,-1
 66 0 l 1,0,-1
EndSplineSet
Substitution2: "'smcp' Lowercase to Small Capitals lookup 3 subtable" Rsmall
EndChar

StartChar: s
Encoding: 115 115 57
Width: 407
GlyphClass: 2
Flags: W
LayerCount: 2
Fore
SplineSet
332 382 m 1,0,1
 299 398 299 398 272 404 c 128,-1,2
 245 410 245 410 218 410 c 0,3,4
 170 410 170 410 147 392.5 c 128,-1,5
 124 375 124 375 124 346 c 0,6,7
 124 325 124 325 140 309.5 c 128,-1,8
 156 294 156 294 207 279 c 2,9,-1
 237 270 l 2,10,11
 304 250 304 250 338.5 218.5 c 128,-1,12
 373 187 373 187 373 133 c 0,13,14
 373 69 373 69 325.5 30 c 128,-1,15
 278 -9 278 -9 193 -9 c 0,16,17
 148 -9 148 -9 106.5 -1 c 128,-1,18
 65 7 65 7 35 21 c 1,19,-1
 56 90 l 1,20,21
 85 76 85 76 119 67.5 c 128,-1,22
 153 59 153 59 188 59 c 0,23,24
 233 59 233 59 259.5 75 c 128,-1,25
 286 91 286 91 286 128 c 0,26,27
 286 160 286 160 263 173.5 c 128,-1,28
 240 187 240 187 197 200 c 2,29,-1
 166 210 l 2,30,31
 101 231 101 231 69.5 262.5 c 128,-1,32
 38 294 38 294 38 344 c 0,33,34
 38 374 38 374 51 399 c 128,-1,35
 64 424 64 424 86.5 441 c 128,-1,36
 109 458 109 458 140 467.5 c 128,-1,37
 171 477 171 477 208 477 c 0,38,39
 243 477 243 477 280.5 470.5 c 128,-1,40
 318 464 318 464 352 449 c 1,41,-1
 332 382 l 1,0,1
EndSplineSet
Substitution2: "'smcp' Lowercase to Small Capitals lookup 3 subtable" Ssmall
EndChar

StartChar: t
Encoding: 116 116 58
Width: 364
GlyphClass: 2
Flags: W
LayerCount: 2
Fore
SplineSet
315 404 m 1,0,-1
 177 404 l 1,1,-1
 177 131 l 2,2,3
 177 96 177 96 194.5 84 c 128,-1,4
 212 72 212 72 240 72 c 0,5,6
 260 72 260 72 284 76.5 c 128,-1,7
 308 81 308 81 326 87 c 1,8,-1
 340 20 l 1,9,10
 320 12 320 12 289 6 c 128,-1,11
 258 0 258 0 224 0 c 0,12,13
 154 0 154 0 122 30.5 c 128,-1,14
 90 61 90 61 90 119 c 2,15,-1
 90 404 l 1,16,-1
 20 404 l 1,17,-1
 20 470 l 1,18,-1
 90 470 l 1,19,-1
 90 620 l 1,20,-1
 177 620 l 1,21,-1
 177 470 l 1,22,-1
 315 470 l 1,23,-1
 315 404 l 1,0,-1
EndSplineSet
Substitution2: "'smcp' Lowercase to Small Capitals lookup 3 subtable" Tsmall
EndChar

StartChar: u
Encoding: 117 117 59
Width: 539
GlyphClass: 2
Flags: W
LayerCount: 2
Fore
SplineSet
383 470 m 1,0,-1
 471 470 l 1,1,-1
 471 0 l 1,2,-1
 402 0 l 1,3,-1
 390 59 l 1,4,-1
 386 59 l 1,5,6
 360 30 360 30 321.5 10.5 c 128,-1,7
 283 -9 283 -9 232 -9 c 0,8,9
 159 -9 159 -9 113.5 32.5 c 128,-1,10
 68 74 68 74 68 158 c 2,11,-1
 68 470 l 1,12,-1
 156 470 l 1,13,-1
 156 169 l 2,14,15
 156 139 156 139 163.5 118 c 128,-1,16
 171 97 171 97 183.5 84.5 c 128,-1,17
 196 72 196 72 213 66.5 c 128,-1,18
 230 61 230 61 250 61 c 0,19,20
 290 61 290 61 322 78 c 128,-1,21
 354 95 354 95 383 125 c 1,22,-1
 383 470 l 1,0,-1
EndSplineSet
Substitution2: "'smcp' Lowercase to Small Capitals lookup 3 subtable" Usmall
EndChar

StartChar: v
Encoding: 118 118 60
Width: 463
GlyphClass: 2
Flags: W
LayerCount: 2
Fore
SplineSet
357 470 m 1,0,-1
 451 470 l 1,1,-1
 276 0 l 1,2,-1
 190 0 l 1,3,-1
 13 470 l 1,4,-1
 108 470 l 1,5,-1
 214 147 l 1,6,-1
 232 73 l 1,7,-1
 236 73 l 1,8,-1
 253 146 l 1,9,-1
 357 470 l 1,0,-1
EndSplineSet
Substitution2: "'smcp' Lowercase to Small Capitals lookup 3 subtable" Vsmall
EndChar

StartChar: w
Encoding: 119 119 61
Width: 712
GlyphClass: 2
Flags: W
LayerCount: 2
Fore
SplineSet
11 470 m 1,0,-1
 105 470 l 1,1,-1
 185 174 l 1,2,-1
 203 69 l 1,3,-1
 207 69 l 1,4,-1
 229 174 l 1,5,-1
 310 470 l 1,6,-1
 405 470 l 1,7,-1
 488 174 l 1,8,-1
 509 69 l 1,9,-1
 513 69 l 1,10,-1
 535 174 l 1,11,-1
 613 470 l 1,12,-1
 703 470 l 1,13,-1
 560 0 l 1,14,-1
 460 0 l 1,15,-1
 380 288 l 1,16,-1
 357 404 l 1,17,-1
 333 288 l 1,18,-1
 251 0 l 1,19,-1
 156 0 l 1,20,-1
 11 470 l 1,0,-1
EndSplineSet
Substitution2: "'smcp' Lowercase to Small Capitals lookup 3 subtable" Wsmall
EndChar

StartChar: x
Encoding: 120 120 62
Width: 448
GlyphClass: 2
Flags: W
LayerCount: 2
Fore
SplineSet
274 238 m 1,0,-1
 439 0 l 1,1,-1
 339 0 l 1,2,-1
 258 118 l 1,3,-1
 221 179 l 1,4,-1
 187 119 l 1,5,-1
 109 0 l 1,6,-1
 11 0 l 1,7,-1
 174 238 l 1,8,-1
 19 470 l 1,9,-1
 118 470 l 1,10,-1
 192 355 l 1,11,-1
 228 295 l 1,12,-1
 263 355 l 1,13,-1
 332 470 l 1,14,-1
 428 470 l 1,15,-1
 274 238 l 1,0,-1
EndSplineSet
Substitution2: "'smcp' Lowercase to Small Capitals lookup 3 subtable" Xsmall
EndChar

StartChar: y
Encoding: 121 121 63
Width: 461
GlyphClass: 2
Flags: W
LayerCount: 2
Fore
SplineSet
9 470 m 1,0,-1
 103 470 l 1,1,-1
 203 201 l 1,2,-1
 237 89 l 1,3,-1
 239 89 l 1,4,-1
 273 201 l 1,5,-1
 364 470 l 1,6,-1
 454 470 l 1,7,-1
 273 -40 l 2,8,9
 243 -125 243 -125 197.5 -173 c 128,-1,10
 152 -221 152 -221 89 -243 c 1,11,-1
 51 -173 l 1,12,13
 98 -155 98 -155 134.5 -121 c 128,-1,14
 171 -87 171 -87 191 -27 c 2,15,-1
 200 0 l 1,16,-1
 9 470 l 1,0,-1
EndSplineSet
Substitution2: "'smcp' Lowercase to Small Capitals lookup 3 subtable" Ysmall
EndChar

StartChar: z
Encoding: 122 122 64
Width: 411
GlyphClass: 2
Flags: W
LayerCount: 2
Fore
SplineSet
382 419 m 1,0,-1
 133 66 l 1,1,-1
 387 66 l 1,2,-1
 387 0 l 1,3,-1
 25 0 l 1,4,-1
 25 54 l 1,5,-1
 274 404 l 1,6,-1
 42 404 l 1,7,-1
 42 470 l 1,8,-1
 382 470 l 1,9,-1
 382 419 l 1,0,-1
EndSplineSet
Substitution2: "'smcp' Lowercase to Small Capitals lookup 3 subtable" Zsmall
EndChar

StartChar: Anusvara.tm
Encoding: 2946 2946 66
Width: 263
GlyphClass: 2
Flags: W
LayerCount: 2
Fore
SplineSet
134 780 m 0,0,1
 161 780 161 780 184 771 c 128,-1,2
 207 762 207 762 224.5 746 c 128,-1,3
 242 730 242 730 251.5 707 c 128,-1,4
 261 684 261 684 261 657 c 0,5,6
 261 627 261 627 250 604.5 c 128,-1,7
 239 582 239 582 220.5 566.5 c 128,-1,8
 202 551 202 551 178.5 543.5 c 128,-1,9
 155 536 155 536 131 536 c 256,10,11
 107 536 107 536 84 543.5 c 128,-1,12
 61 551 61 551 42.5 566 c 128,-1,13
 24 581 24 581 13 604 c 128,-1,14
 2 627 2 627 2 657 c 0,15,16
 2 712 2 712 38 746 c 128,-1,17
 74 780 74 780 134 780 c 0,0,1
130 723 m 0,18,19
 104 723 104 723 88.5 705 c 128,-1,20
 73 687 73 687 73 657 c 0,21,22
 73 625 73 625 90 608.5 c 128,-1,23
 107 592 107 592 134 592 c 0,24,25
 159 592 159 592 175 610 c 128,-1,26
 191 628 191 628 191 657 c 0,27,28
 191 690 191 690 173 706.5 c 128,-1,29
 155 723 155 723 130 723 c 0,18,19
EndSplineSet
EndChar

StartChar: Aaytam.tm
Encoding: 2947 2947 67
Width: 619
GlyphClass: 2
Flags: W
LayerCount: 2
Fore
SplineSet
311 515 m 0,0,1
 338 515 338 515 361 506 c 128,-1,2
 384 497 384 497 401.5 481 c 128,-1,3
 419 465 419 465 428.5 442 c 128,-1,4
 438 419 438 419 438 392 c 0,5,6
 438 362 438 362 427 339.5 c 128,-1,7
 416 317 416 317 397.5 301.5 c 128,-1,8
 379 286 379 286 355.5 278.5 c 128,-1,9
 332 271 332 271 308 271 c 256,10,11
 284 271 284 271 261 278.5 c 128,-1,12
 238 286 238 286 219.5 301 c 128,-1,13
 201 316 201 316 190 339 c 128,-1,14
 179 362 179 362 179 392 c 0,15,16
 179 447 179 447 215 481 c 128,-1,17
 251 515 251 515 311 515 c 0,0,1
307 458 m 0,18,19
 281 458 281 458 265.5 440 c 128,-1,20
 250 422 250 422 250 392 c 0,21,22
 250 360 250 360 267 343.5 c 128,-1,23
 284 327 284 327 311 327 c 0,24,25
 336 327 336 327 352 345 c 128,-1,26
 368 363 368 363 368 392 c 0,27,28
 368 425 368 425 350 441.5 c 128,-1,29
 332 458 332 458 307 458 c 0,18,19
148 234 m 0,30,31
 175 234 175 234 198 225 c 128,-1,32
 221 216 221 216 238.5 200 c 128,-1,33
 256 184 256 184 265.5 161 c 128,-1,34
 275 138 275 138 275 111 c 256,35,36
 275 84 275 84 265 61 c 128,-1,37
 255 38 255 38 237.5 22 c 128,-1,38
 220 6 220 6 196 -3 c 128,-1,39
 172 -12 172 -12 144 -12 c 0,40,41
 87 -12 87 -12 51.5 22 c 128,-1,42
 16 56 16 56 16 111 c 256,43,44
 16 166 16 166 52 200 c 128,-1,45
 88 234 88 234 148 234 c 0,30,31
144 177 m 0,46,47
 118 177 118 177 102.5 159 c 128,-1,48
 87 141 87 141 87 111 c 0,49,50
 87 79 87 79 104 62.5 c 128,-1,51
 121 46 121 46 148 46 c 0,52,53
 173 46 173 46 189 64 c 128,-1,54
 205 82 205 82 205 111 c 0,55,56
 205 144 205 144 187 160.5 c 128,-1,57
 169 177 169 177 144 177 c 0,46,47
475 234 m 0,58,59
 502 234 502 234 525 225 c 128,-1,60
 548 216 548 216 565.5 200 c 128,-1,61
 583 184 583 184 592.5 161 c 128,-1,62
 602 138 602 138 602 111 c 256,63,64
 602 84 602 84 592 61 c 128,-1,65
 582 38 582 38 564.5 22 c 128,-1,66
 547 6 547 6 523 -3 c 128,-1,67
 499 -12 499 -12 471 -12 c 0,68,69
 414 -12 414 -12 378.5 22 c 128,-1,70
 343 56 343 56 343 111 c 256,71,72
 343 166 343 166 379 200 c 128,-1,73
 415 234 415 234 475 234 c 0,58,59
471 177 m 0,74,75
 445 177 445 177 429.5 159 c 128,-1,76
 414 141 414 141 414 111 c 0,77,78
 414 79 414 79 431 62.5 c 128,-1,79
 448 46 448 46 475 46 c 0,80,81
 500 46 500 46 516 64 c 128,-1,82
 532 82 532 82 532 111 c 0,83,84
 532 144 532 144 514 160.5 c 128,-1,85
 496 177 496 177 471 177 c 0,74,75
EndSplineSet
EndChar

StartChar: vowelA.tm
Encoding: 2949 2949 68
Width: 1019
GlyphClass: 2
Flags: W
LayerCount: 2
Fore
SplineSet
671 199 m 1,0,1
 673 206 673 206 674 217.5 c 128,-1,2
 675 229 675 229 675 243 c 0,3,4
 675 283 675 283 663 317 c 128,-1,5
 651 351 651 351 630 377 c 128,-1,6
 609 403 609 403 580.5 419.5 c 128,-1,7
 552 436 552 436 519 441 c 1,8,9
 538 426 538 426 549 405.5 c 128,-1,10
 560 385 560 385 560 361 c 0,11,12
 560 310 560 310 524.5 279.5 c 128,-1,13
 489 249 489 249 432 249 c 0,14,15
 404 249 404 249 379.5 257.5 c 128,-1,16
 355 266 355 266 337 281 c 128,-1,17
 319 296 319 296 309 317.5 c 128,-1,18
 299 339 299 339 299 365 c 0,19,20
 299 426 299 426 347.5 463 c 128,-1,21
 396 500 396 500 476 500 c 0,22,23
 537 500 537 500 587.5 481 c 128,-1,24
 638 462 638 462 674.5 428 c 128,-1,25
 711 394 711 394 731 346 c 128,-1,26
 751 298 751 298 751 241 c 0,27,28
 751 228 751 228 750 216.5 c 128,-1,29
 749 205 749 205 748 199 c 1,30,-1
 870 199 l 1,31,-1
 870 495 l 1,32,-1
 944 495 l 1,33,-1
 944 -82 l 1,34,-1
 870 -82 l 1,35,-1
 870 137 l 1,36,-1
 738 137 l 1,37,38
 721 83 721 83 685 43.5 c 128,-1,39
 649 4 649 4 598 -21.5 c 128,-1,40
 547 -47 547 -47 484 -59 c 128,-1,41
 421 -71 421 -71 351 -71 c 0,42,43
 280 -71 280 -71 219 -59.5 c 128,-1,44
 158 -48 158 -48 113.5 -26 c 128,-1,45
 69 -4 69 -4 43.5 28 c 128,-1,46
 18 60 18 60 18 101 c 0,47,48
 18 148 18 148 48.5 173.5 c 128,-1,49
 79 199 79 199 136 199 c 2,50,-1
 671 199 l 1,0,1
354 -5 m 0,51,52
 469 -5 469 -5 550 31.5 c 128,-1,53
 631 68 631 68 658 137 c 1,54,-1
 145 137 l 2,55,56
 119 137 119 137 108 125.5 c 128,-1,57
 97 114 97 114 97 97 c 0,58,59
 97 76 97 76 115 57.5 c 128,-1,60
 133 39 133 39 167 25 c 128,-1,61
 201 11 201 11 248 3 c 128,-1,62
 295 -5 295 -5 354 -5 c 0,51,52
493 370 m 0,63,64
 493 398 493 398 478.5 416 c 128,-1,65
 464 434 464 434 444 442 c 1,66,67
 414 440 414 440 393.5 419.5 c 128,-1,68
 373 399 373 399 373 368 c 0,69,70
 373 342 373 342 390.5 325.5 c 128,-1,71
 408 309 408 309 434 309 c 256,72,73
 460 309 460 309 476.5 326 c 128,-1,74
 493 343 493 343 493 370 c 0,63,64
EndSplineSet
Substitution2: "'ss03' Style Set 3 lookup 17 subtable" vowelAAlt.tm
EndChar

StartChar: vowelAa.tm
Encoding: 2950 2950 69
Width: 1214
GlyphClass: 2
Flags: W
LayerCount: 2
Fore
SplineSet
671 199 m 1,0,1
 673 206 673 206 674 217.5 c 128,-1,2
 675 229 675 229 675 243 c 0,3,4
 675 283 675 283 663 317 c 128,-1,5
 651 351 651 351 630 377 c 128,-1,6
 609 403 609 403 580.5 419.5 c 128,-1,7
 552 436 552 436 519 441 c 1,8,9
 538 426 538 426 549 405.5 c 128,-1,10
 560 385 560 385 560 361 c 0,11,12
 560 310 560 310 524.5 279.5 c 128,-1,13
 489 249 489 249 432 249 c 0,14,15
 404 249 404 249 379.5 257.5 c 128,-1,16
 355 266 355 266 337 281 c 128,-1,17
 319 296 319 296 309 317.5 c 128,-1,18
 299 339 299 339 299 365 c 0,19,20
 299 398 299 398 313 423 c 128,-1,21
 327 448 327 448 351 465 c 128,-1,22
 375 482 375 482 406.5 491 c 128,-1,23
 438 500 438 500 472 500 c 0,24,25
 536 500 536 500 588 480 c 128,-1,26
 640 460 640 460 676 425 c 128,-1,27
 712 390 712 390 731.5 343 c 128,-1,28
 751 296 751 296 751 241 c 0,29,30
 751 228 751 228 750 216.5 c 128,-1,31
 749 205 749 205 748 199 c 1,32,-1
 873 199 l 1,33,-1
 873 495 l 1,34,-1
 947 495 l 1,35,-1
 947 122 l 1,36,37
 965 139 965 139 991 150 c 128,-1,38
 1017 161 1017 161 1046 161 c 0,39,40
 1083 161 1083 161 1112 147.5 c 128,-1,41
 1141 134 1141 134 1161.5 110 c 128,-1,42
 1182 86 1182 86 1193 53 c 128,-1,43
 1204 20 1204 20 1204 -20 c 0,44,45
 1204 -73 1204 -73 1183.5 -120 c 128,-1,46
 1163 -167 1163 -167 1125.5 -202 c 128,-1,47
 1088 -237 1088 -237 1035.5 -257.5 c 128,-1,48
 983 -278 983 -278 918 -278 c 0,49,50
 870 -278 870 -278 831 -265 c 128,-1,51
 792 -252 792 -252 763.5 -228.5 c 128,-1,52
 735 -205 735 -205 719.5 -173 c 128,-1,53
 704 -141 704 -141 704 -102 c 0,54,55
 704 -70 704 -70 711.5 -47 c 128,-1,56
 719 -24 719 -24 729 -11 c 1,57,-1
 796 -42 l 1,58,59
 791 -50 791 -50 787 -65.5 c 128,-1,60
 783 -81 783 -81 783 -102 c 0,61,62
 783 -153 783 -153 821 -183 c 128,-1,63
 859 -213 859 -213 922 -213 c 0,64,65
 968 -213 968 -213 1005.5 -198 c 128,-1,66
 1043 -183 1043 -183 1069.5 -156.5 c 128,-1,67
 1096 -130 1096 -130 1110.5 -95 c 128,-1,68
 1125 -60 1125 -60 1125 -19 c 0,69,70
 1125 32 1125 32 1100.5 63 c 128,-1,71
 1076 94 1076 94 1028 94 c 0,72,73
 1005 94 1005 94 983 82.5 c 128,-1,74
 961 71 961 71 947 48 c 1,75,-1
 947 -86 l 1,76,-1
 873 -86 l 1,77,-1
 873 137 l 1,78,-1
 738 137 l 1,79,80
 721 83 721 83 685 43.5 c 128,-1,81
 649 4 649 4 598 -21.5 c 128,-1,82
 547 -47 547 -47 484 -59 c 128,-1,83
 421 -71 421 -71 351 -71 c 0,84,85
 280 -71 280 -71 219 -59.5 c 128,-1,86
 158 -48 158 -48 113.5 -26 c 128,-1,87
 69 -4 69 -4 43.5 28 c 128,-1,88
 18 60 18 60 18 101 c 0,89,90
 18 148 18 148 48.5 173.5 c 128,-1,91
 79 199 79 199 136 199 c 2,92,-1
 671 199 l 1,0,1
354 -5 m 0,93,94
 469 -5 469 -5 550 31.5 c 128,-1,95
 631 68 631 68 658 137 c 1,96,-1
 145 137 l 2,97,98
 119 137 119 137 108 125.5 c 128,-1,99
 97 114 97 114 97 97 c 0,100,101
 97 76 97 76 115.5 57.5 c 128,-1,102
 134 39 134 39 167.5 25 c 128,-1,103
 201 11 201 11 248.5 3 c 128,-1,104
 296 -5 296 -5 354 -5 c 0,93,94
493 370 m 0,105,106
 493 398 493 398 478.5 416 c 128,-1,107
 464 434 464 434 444 442 c 1,108,109
 414 440 414 440 393.5 419.5 c 128,-1,110
 373 399 373 399 373 368 c 0,111,112
 373 342 373 342 390.5 325.5 c 128,-1,113
 408 309 408 309 434 309 c 256,114,115
 460 309 460 309 476.5 326 c 128,-1,116
 493 343 493 343 493 370 c 0,105,106
EndSplineSet
Substitution2: "'ss03' Style Set 3 lookup 17 subtable" vowelAaAlt.tm
EndChar

StartChar: vowelI.tm
Encoding: 2951 2951 70
Width: 867
GlyphClass: 2
Flags: W
LayerCount: 2
Fore
SplineSet
438 690 m 0,0,1
 524 690 524 690 594 662.5 c 128,-1,2
 664 635 664 635 714 585 c 128,-1,3
 764 535 764 535 791 465 c 128,-1,4
 818 395 818 395 818 310 c 0,5,6
 818 256 818 256 809.5 211.5 c 128,-1,7
 801 167 801 167 790 135 c 1,8,-1
 721 155 l 1,9,10
 729 184 729 184 737.5 223.5 c 128,-1,11
 746 263 746 263 746 313 c 0,12,13
 746 382 746 382 723.5 439.5 c 128,-1,14
 701 497 701 497 660 537.5 c 128,-1,15
 619 578 619 578 561.5 600.5 c 128,-1,16
 504 623 504 623 433 623 c 0,17,18
 372 623 372 623 320 604 c 128,-1,19
 268 585 268 585 229.5 550 c 128,-1,20
 191 515 191 515 169.5 465 c 128,-1,21
 148 415 148 415 148 353 c 0,22,23
 148 295 148 295 162 240.5 c 128,-1,24
 176 186 176 186 205 132 c 1,25,26
 247 149 247 149 295.5 156.5 c 128,-1,27
 344 164 344 164 408 164 c 0,28,29
 448 164 448 164 486 158 c 128,-1,30
 524 152 524 152 556 144 c 1,31,32
 563 168 563 168 567.5 197 c 128,-1,33
 572 226 572 226 572 256 c 0,34,35
 572 316 572 316 548.5 363.5 c 128,-1,36
 525 411 525 411 487 433 c 0,37,38
 482 436 482 436 474 439 c 128,-1,39
 466 442 466 442 461 443 c 1,40,41
 466 439 466 439 471.5 434 c 128,-1,42
 477 429 477 429 479 426 c 0,43,44
 490 413 490 413 496.5 398.5 c 128,-1,45
 503 384 503 384 503 365 c 0,46,47
 503 316 503 316 468 285 c 128,-1,48
 433 254 433 254 378 254 c 0,49,50
 352 254 352 254 328.5 262 c 128,-1,51
 305 270 305 270 287.5 285.5 c 128,-1,52
 270 301 270 301 259.5 323 c 128,-1,53
 249 345 249 345 249 373 c 0,54,55
 249 430 249 430 292.5 466.5 c 128,-1,56
 336 503 336 503 412 503 c 0,57,58
 460 503 460 503 502 486.5 c 128,-1,59
 544 470 544 470 575.5 438 c 128,-1,60
 607 406 607 406 625.5 359.5 c 128,-1,61
 644 313 644 313 644 254 c 0,62,63
 644 223 644 223 639.5 188.5 c 128,-1,64
 635 154 635 154 626 123 c 1,65,66
 691 98 691 98 729 46 c 128,-1,67
 767 -6 767 -6 767 -65 c 0,68,69
 767 -110 767 -110 750 -143 c 128,-1,70
 733 -176 733 -176 705 -197.5 c 128,-1,71
 677 -219 677 -219 641 -229.5 c 128,-1,72
 605 -240 605 -240 568 -240 c 0,73,74
 485 -240 485 -240 406 -187 c 1,75,76
 388 -199 388 -199 365.5 -209 c 128,-1,77
 343 -219 343 -219 319.5 -226 c 128,-1,78
 296 -233 296 -233 272.5 -236.5 c 128,-1,79
 249 -240 249 -240 229 -240 c 0,80,81
 192 -240 192 -240 156 -229.5 c 128,-1,82
 120 -219 120 -219 91.5 -197 c 128,-1,83
 63 -175 63 -175 45.5 -142.5 c 128,-1,84
 28 -110 28 -110 28 -65 c 0,85,86
 28 -9 28 -9 59.5 35 c 128,-1,87
 91 79 91 79 142 104 c 1,88,89
 74 220 74 220 74 351 c 0,90,91
 74 432 74 432 103.5 495.5 c 128,-1,92
 133 559 133 559 182.5 602 c 128,-1,93
 232 645 232 645 298 667.5 c 128,-1,94
 364 690 364 690 438 690 c 0,0,1
407 -111 m 1,95,96
 427 -96 427 -96 446.5 -74 c 128,-1,97
 466 -52 466 -52 483 -26 c 128,-1,98
 500 0 500 0 514.5 28.5 c 128,-1,99
 529 57 529 57 540 85 c 1,100,101
 511 93 511 93 476 98 c 128,-1,102
 441 103 441 103 402 103 c 0,103,104
 354 103 354 103 310.5 96 c 128,-1,105
 267 89 267 89 238 78 c 1,106,107
 273 21 273 21 317.5 -28 c 128,-1,108
 362 -77 362 -77 407 -111 c 1,95,96
606 62 m 1,109,110
 579 -5 579 -5 540.5 -59.5 c 128,-1,111
 502 -114 502 -114 464 -148 c 1,112,113
 488 -161 488 -161 514.5 -168.5 c 128,-1,114
 541 -176 541 -176 568 -176 c 0,115,116
 592 -176 592 -176 614.5 -168.5 c 128,-1,117
 637 -161 637 -161 654.5 -147 c 128,-1,118
 672 -133 672 -133 683 -111.5 c 128,-1,119
 694 -90 694 -90 694 -62 c 0,120,121
 694 -15 694 -15 667 16 c 128,-1,122
 640 47 640 47 606 62 c 1,109,110
347 -147 m 1,123,124
 299 -110 299 -110 255 -60.5 c 128,-1,125
 211 -11 211 -11 173 50 c 1,126,127
 145 38 145 38 122.5 11 c 128,-1,128
 100 -16 100 -16 100 -63 c 0,129,130
 100 -90 100 -90 112 -111 c 128,-1,131
 124 -132 124 -132 143 -146.5 c 128,-1,132
 162 -161 162 -161 186 -168.5 c 128,-1,133
 210 -176 210 -176 233 -176 c 0,134,135
 262 -176 262 -176 290.5 -169 c 128,-1,136
 319 -162 319 -162 347 -147 c 1,123,124
391 447 m 1,137,138
 361 446 361 446 340 427 c 128,-1,139
 319 408 319 408 319 376 c 0,140,141
 319 348 319 348 335.5 331.5 c 128,-1,142
 352 315 352 315 380 315 c 0,143,144
 406 315 406 315 422.5 332 c 128,-1,145
 439 349 439 349 439 377 c 0,146,147
 439 402 439 402 425 421.5 c 128,-1,148
 411 441 411 441 391 447 c 1,137,138
EndSplineSet
Substitution2: "'ss03' Style Set 3 lookup 17 subtable" vowelIAlt.tm
EndChar

StartChar: vowelIi.tm
Encoding: 2952 2952 71
Width: 643
GlyphClass: 2
Flags: W
LayerCount: 2
Fore
SplineSet
582 495 m 1,0,-1
 582 432 l 1,1,-1
 460 432 l 1,2,-1
 460 0 l 1,3,-1
 383 0 l 1,4,-1
 383 432 l 1,5,-1
 149 432 l 1,6,-1
 149 0 l 1,7,-1
 73 0 l 1,8,-1
 73 495 l 1,9,-1
 582 495 l 1,0,-1
569 297 m 0,10,11
 594 297 594 297 609.5 281.5 c 128,-1,12
 625 266 625 266 625 241 c 0,13,14
 625 217 625 217 609.5 201 c 128,-1,15
 594 185 594 185 571 185 c 0,16,17
 546 185 546 185 530.5 201 c 128,-1,18
 515 217 515 217 515 241 c 0,19,20
 515 266 515 266 530.5 281.5 c 128,-1,21
 546 297 546 297 569 297 c 0,10,11
266 297 m 0,22,23
 291 297 291 297 306.5 281.5 c 128,-1,24
 322 266 322 266 322 241 c 0,25,26
 322 217 322 217 306.5 201 c 128,-1,27
 291 185 291 185 268 185 c 0,28,29
 243 185 243 185 227.5 201 c 128,-1,30
 212 217 212 217 212 241 c 0,31,32
 212 266 212 266 227.5 281.5 c 128,-1,33
 243 297 243 297 266 297 c 0,22,23
EndSplineSet
EndChar

StartChar: vowelU.tm
Encoding: 2953 2953 72
Width: 763
GlyphClass: 2
Flags: W
LayerCount: 2
Fore
SplineSet
247 500 m 0,0,1
 299 500 299 500 342 487.5 c 128,-1,2
 385 475 385 475 415.5 452 c 128,-1,3
 446 429 446 429 462.5 397 c 128,-1,4
 479 365 479 365 479 325 c 0,5,6
 479 244 479 244 423.5 195 c 128,-1,7
 368 146 368 146 266 135 c 2,8,-1
 161 124 l 2,9,10
 114 120 114 120 114 91 c 0,11,12
 114 76 114 76 125.5 69.5 c 128,-1,13
 137 63 137 63 154 63 c 2,14,-1
 760 63 l 1,15,-1
 760 0 l 1,16,-1
 164 0 l 2,17,18
 100 0 100 0 69.5 25.5 c 128,-1,19
 39 51 39 51 39 95 c 0,20,21
 39 138 39 138 69.5 159.5 c 128,-1,22
 100 181 100 181 158 188 c 2,23,-1
 256 199 l 2,24,25
 326 207 326 207 363.5 239.5 c 128,-1,26
 401 272 401 272 401 325 c 0,27,28
 401 356 401 356 389.5 378 c 128,-1,29
 378 400 378 400 359 414.5 c 128,-1,30
 340 429 340 429 315.5 436 c 128,-1,31
 291 443 291 443 265 444 c 1,32,33
 285 429 285 429 298 408 c 128,-1,34
 311 387 311 387 311 361 c 0,35,36
 311 311 311 311 276 280 c 128,-1,37
 241 249 241 249 184 249 c 0,38,39
 126 249 126 249 89.5 281 c 128,-1,40
 53 313 53 313 53 364 c 0,41,42
 53 426 53 426 105.5 463 c 128,-1,43
 158 500 158 500 247 500 c 0,0,1
244 370 m 0,44,45
 244 394 244 394 230.5 413 c 128,-1,46
 217 432 217 432 194 441 c 1,47,48
 164 438 164 438 145 417.5 c 128,-1,49
 126 397 126 397 126 368 c 0,50,51
 126 342 126 342 143 326 c 128,-1,52
 160 310 160 310 186 310 c 256,53,54
 212 310 212 310 228 327 c 128,-1,55
 244 344 244 344 244 370 c 0,44,45
EndSplineSet
EndChar

StartChar: vowelUu.tm
Encoding: 2954 2954 73
Width: 1264
GlyphClass: 2
Flags: W
LayerCount: 2
Fore
SplineSet
164 0 m 2,0,1
 100 0 100 0 69.5 25.5 c 128,-1,2
 39 51 39 51 39 95 c 0,3,4
 39 138 39 138 69.5 159.5 c 128,-1,5
 100 181 100 181 158 188 c 2,6,-1
 256 199 l 2,7,8
 326 207 326 207 363.5 239.5 c 128,-1,9
 401 272 401 272 401 325 c 0,10,11
 401 356 401 356 389.5 378 c 128,-1,12
 378 400 378 400 359 414.5 c 128,-1,13
 340 429 340 429 315.5 436 c 128,-1,14
 291 443 291 443 265 444 c 1,15,16
 285 429 285 429 298 408 c 128,-1,17
 311 387 311 387 311 361 c 0,18,19
 311 311 311 311 276 280 c 128,-1,20
 241 249 241 249 184 249 c 0,21,22
 126 249 126 249 89.5 281 c 128,-1,23
 53 313 53 313 53 364 c 0,24,25
 53 426 53 426 105.5 463 c 128,-1,26
 158 500 158 500 247 500 c 0,27,28
 299 500 299 500 342 487.5 c 128,-1,29
 385 475 385 475 415.5 452 c 128,-1,30
 446 429 446 429 462.5 397 c 128,-1,31
 479 365 479 365 479 325 c 0,32,33
 479 244 479 244 423.5 195 c 128,-1,34
 368 146 368 146 266 135 c 2,35,-1
 161 124 l 2,36,37
 114 120 114 120 114 91 c 0,38,39
 114 76 114 76 125.5 69.5 c 128,-1,40
 137 63 137 63 154 63 c 2,41,-1
 1247 63 l 1,42,-1
 1247 0 l 1,43,-1
 164 0 l 2,0,1
1247 495 m 1,44,-1
 1247 436 l 1,45,-1
 1175 436 l 1,46,-1
 1175 120 l 1,47,-1
 1105 120 l 1,48,-1
 1105 436 l 1,49,-1
 980 436 l 1,50,-1
 980 120 l 1,51,-1
 912 120 l 1,52,-1
 912 299 l 2,53,54
 912 325 912 325 903 350 c 128,-1,55
 894 375 894 375 876 395 c 128,-1,56
 858 415 858 415 830.5 427 c 128,-1,57
 803 439 803 439 766 439 c 0,58,59
 709 439 709 439 672.5 403 c 128,-1,60
 636 367 636 367 631 307 c 1,61,62
 645 326 645 326 666.5 338.5 c 128,-1,63
 688 351 688 351 717 351 c 0,64,65
 767 351 767 351 798.5 319.5 c 128,-1,66
 830 288 830 288 830 238 c 0,67,68
 830 211 830 211 820 189 c 128,-1,69
 810 167 810 167 792.5 151.5 c 128,-1,70
 775 136 775 136 752 127.5 c 128,-1,71
 729 119 729 119 702 119 c 0,72,73
 673 119 673 119 648 131 c 128,-1,74
 623 143 623 143 605 165 c 128,-1,75
 587 187 587 187 576.5 218.5 c 128,-1,76
 566 250 566 250 566 289 c 0,77,78
 566 336 566 336 581.5 375 c 128,-1,79
 597 414 597 414 624.5 441.5 c 128,-1,80
 652 469 652 469 689 484 c 128,-1,81
 726 499 726 499 768 499 c 0,82,83
 795 499 795 499 819 491.5 c 128,-1,84
 843 484 843 484 862 472 c 128,-1,85
 881 460 881 460 894 445.5 c 128,-1,86
 907 431 907 431 913 416 c 1,87,-1
 913 495 l 1,88,-1
 1247 495 l 1,44,-1
702 295 m 0,89,90
 679 295 679 295 661.5 280 c 128,-1,91
 644 265 644 265 636 243 c 1,92,93
 642 210 642 210 661 194 c 128,-1,94
 680 178 680 178 703 178 c 0,95,96
 730 178 730 178 746 194.5 c 128,-1,97
 762 211 762 211 762 237 c 256,98,99
 762 263 762 263 746.5 279 c 128,-1,100
 731 295 731 295 702 295 c 0,89,90
244 370 m 0,101,102
 244 394 244 394 230.5 413 c 128,-1,103
 217 432 217 432 194 441 c 1,104,105
 164 438 164 438 145 417.5 c 128,-1,106
 126 397 126 397 126 368 c 0,107,108
 126 342 126 342 143 326 c 128,-1,109
 160 310 160 310 186 310 c 256,110,111
 212 310 212 310 228 327 c 128,-1,112
 244 344 244 344 244 370 c 0,101,102
EndSplineSet
EndChar

StartChar: vowelE.tm
Encoding: 2958 2958 74
Width: 677
GlyphClass: 2
Flags: W
LayerCount: 2
Fore
SplineSet
682 495 m 1,0,-1
 682 433 l 1,1,-1
 572 433 l 1,2,-1
 572 0 l 1,3,-1
 499 0 l 1,4,-1
 499 433 l 1,5,-1
 350 433 l 2,6,7
 302 433 302 433 261 420.5 c 128,-1,8
 220 408 220 408 189 383.5 c 128,-1,9
 158 359 158 359 138 321 c 128,-1,10
 118 283 118 283 113 232 c 1,11,12
 132 259 132 259 163 276 c 128,-1,13
 194 293 194 293 232 293 c 0,14,15
 264 293 264 293 291 282 c 128,-1,16
 318 271 318 271 337.5 251.5 c 128,-1,17
 357 232 357 232 368 205 c 128,-1,18
 379 178 379 178 379 147 c 0,19,20
 379 112 379 112 367 84 c 128,-1,21
 355 56 355 56 334 35.5 c 128,-1,22
 313 15 313 15 283.5 4 c 128,-1,23
 254 -7 254 -7 219 -7 c 0,24,25
 180 -7 180 -7 148 8.5 c 128,-1,26
 116 24 116 24 93 52.5 c 128,-1,27
 70 81 70 81 57 121 c 128,-1,28
 44 161 44 161 44 211 c 0,29,30
 44 281 44 281 67.5 334 c 128,-1,31
 91 387 91 387 132.5 423 c 128,-1,32
 174 459 174 459 229.5 477 c 128,-1,33
 285 495 285 495 348 495 c 2,34,-1
 682 495 l 1,0,-1
217 230 m 0,35,36
 198 230 198 230 182.5 223.5 c 128,-1,37
 167 217 167 217 154 206 c 128,-1,38
 141 195 141 195 132 181.5 c 128,-1,39
 123 168 123 168 117 153 c 1,40,41
 126 105 126 105 155 80.5 c 128,-1,42
 184 56 184 56 219 56 c 0,43,44
 258 56 258 56 281.5 81 c 128,-1,45
 305 106 305 106 305 144 c 256,46,47
 305 182 305 182 282 206 c 128,-1,48
 259 230 259 230 217 230 c 0,35,36
EndSplineSet
EndChar

StartChar: vowelEe.tm
Encoding: 2959 2959 75
Width: 683
GlyphClass: 2
Flags: W
LayerCount: 2
Fore
SplineSet
688 495 m 1,0,-1
 688 433 l 1,1,-1
 578 433 l 1,2,-1
 578 14 l 1,3,-1
 415 -171 l 1,4,-1
 362 -124 l 1,5,-1
 505 34 l 1,6,-1
 505 433 l 1,7,-1
 346 433 l 2,8,9
 300 433 300 433 259.5 420.5 c 128,-1,10
 219 408 219 408 188.5 383.5 c 128,-1,11
 158 359 158 359 138 321 c 128,-1,12
 118 283 118 283 113 232 c 1,13,14
 132 259 132 259 163 276 c 128,-1,15
 194 293 194 293 232 293 c 0,16,17
 264 293 264 293 291 282 c 128,-1,18
 318 271 318 271 337.5 251.5 c 128,-1,19
 357 232 357 232 368 205 c 128,-1,20
 379 178 379 178 379 147 c 0,21,22
 379 112 379 112 367 84 c 128,-1,23
 355 56 355 56 334 35.5 c 128,-1,24
 313 15 313 15 283.5 4 c 128,-1,25
 254 -7 254 -7 219 -7 c 0,26,27
 180 -7 180 -7 148 8.5 c 128,-1,28
 116 24 116 24 93 52.5 c 128,-1,29
 70 81 70 81 57 121 c 128,-1,30
 44 161 44 161 44 211 c 0,31,32
 44 281 44 281 68 334 c 128,-1,33
 92 387 92 387 133 423 c 128,-1,34
 174 459 174 459 230 477 c 128,-1,35
 286 495 286 495 350 495 c 2,36,-1
 688 495 l 1,0,-1
217 230 m 0,37,38
 198 230 198 230 182.5 223.5 c 128,-1,39
 167 217 167 217 154 206 c 128,-1,40
 141 195 141 195 132 181.5 c 128,-1,41
 123 168 123 168 117 153 c 1,42,43
 126 105 126 105 155 80.5 c 128,-1,44
 184 56 184 56 219 56 c 0,45,46
 258 56 258 56 281.5 81 c 128,-1,47
 305 106 305 106 305 144 c 256,48,49
 305 182 305 182 282 206 c 128,-1,50
 259 230 259 230 217 230 c 0,37,38
EndSplineSet
EndChar

StartChar: vowelAi.tm
Encoding: 2960 2960 76
Width: 810
GlyphClass: 2
Flags: W
LayerCount: 2
Fore
SplineSet
242 500 m 0,0,1
 278 500 278 500 308 490 c 128,-1,2
 338 480 338 480 362 462 c 128,-1,3
 386 444 386 444 402.5 420 c 128,-1,4
 419 396 419 396 427 368 c 1,5,6
 432 396 432 396 445.5 420 c 128,-1,7
 459 444 459 444 479.5 462 c 128,-1,8
 500 480 500 480 527 490 c 128,-1,9
 554 500 554 500 586 500 c 0,10,11
 627 500 627 500 660.5 486 c 128,-1,12
 694 472 694 472 718 447.5 c 128,-1,13
 742 423 742 423 755 389 c 128,-1,14
 768 355 768 355 768 316 c 0,15,16
 768 264 768 264 750 225.5 c 128,-1,17
 732 187 732 187 699 159.5 c 128,-1,18
 666 132 666 132 620.5 113.5 c 128,-1,19
 575 95 575 95 520 83 c 2,20,-1
 281 32 l 2,21,22
 253 26 253 26 227 15.5 c 128,-1,23
 201 5 201 5 180.5 -10.5 c 128,-1,24
 160 -26 160 -26 148 -48.5 c 128,-1,25
 136 -71 136 -71 136 -101 c 0,26,27
 136 -154 136 -154 170.5 -183 c 128,-1,28
 205 -212 205 -212 258 -212 c 0,29,30
 286 -212 286 -212 310.5 -201 c 128,-1,31
 335 -190 335 -190 353 -170.5 c 128,-1,32
 371 -151 371 -151 381 -123.5 c 128,-1,33
 391 -96 391 -96 391 -63 c 2,34,-1
 391 -15 l 1,35,-1
 467 -15 l 1,36,-1
 467 -66 l 2,37,38
 467 -130 467 -130 499 -171 c 128,-1,39
 531 -212 531 -212 586 -212 c 0,40,41
 636 -212 636 -212 666.5 -182 c 128,-1,42
 697 -152 697 -152 697 -96 c 0,43,44
 697 -76 697 -76 691.5 -58.5 c 128,-1,45
 686 -41 686 -41 678 -27 c 128,-1,46
 670 -13 670 -13 660.5 -3 c 128,-1,47
 651 7 651 7 643 13 c 1,48,-1
 694 63 l 1,49,50
 725 40 725 40 749.5 -1.5 c 128,-1,51
 774 -43 774 -43 774 -94 c 0,52,53
 774 -141 774 -141 759 -175.5 c 128,-1,54
 744 -210 744 -210 718.5 -232.5 c 128,-1,55
 693 -255 693 -255 659 -266.5 c 128,-1,56
 625 -278 625 -278 586 -278 c 0,57,58
 559 -278 559 -278 533 -269 c 128,-1,59
 507 -260 507 -260 485.5 -243.5 c 128,-1,60
 464 -227 464 -227 449 -204 c 128,-1,61
 434 -181 434 -181 428 -153 c 1,62,63
 411 -212 411 -212 363.5 -245 c 128,-1,64
 316 -278 316 -278 250 -278 c 0,65,66
 210 -278 210 -278 175 -265.5 c 128,-1,67
 140 -253 140 -253 114.5 -230 c 128,-1,68
 89 -207 89 -207 74 -174.5 c 128,-1,69
 59 -142 59 -142 59 -101 c 0,70,71
 59 -56 59 -56 76 -23.5 c 128,-1,72
 93 9 93 9 122.5 32.5 c 128,-1,73
 152 56 152 56 190 71.5 c 128,-1,74
 228 87 228 87 270 96 c 2,75,-1
 521 152 l 2,76,77
 601 170 601 170 646 208 c 128,-1,78
 691 246 691 246 691 314 c 0,79,80
 691 365 691 365 661.5 399.5 c 128,-1,81
 632 434 632 434 580 434 c 0,82,83
 532 434 532 434 498 395 c 128,-1,84
 464 356 464 356 464 277 c 2,85,-1
 464 207 l 1,86,-1
 390 207 l 1,87,-1
 390 270 l 2,88,89
 390 307 390 307 379 337.5 c 128,-1,90
 368 368 368 368 348.5 389.5 c 128,-1,91
 329 411 329 411 301.5 423 c 128,-1,92
 274 435 274 435 241 435 c 0,93,94
 219 435 219 435 198 429.5 c 128,-1,95
 177 424 177 424 159.5 412 c 128,-1,96
 142 400 142 400 129.5 381 c 128,-1,97
 117 362 117 362 112 336 c 1,98,99
 127 353 127 353 150 364.5 c 128,-1,100
 173 376 173 376 202 376 c 0,101,102
 224 376 224 376 245.5 368.5 c 128,-1,103
 267 361 267 361 283 347 c 128,-1,104
 299 333 299 333 309 311 c 128,-1,105
 319 289 319 289 319 261 c 0,106,107
 319 204 319 204 280.5 169 c 128,-1,108
 242 134 242 134 183 134 c 0,109,110
 156 134 156 134 131 144.5 c 128,-1,111
 106 155 106 155 86.5 175 c 128,-1,112
 67 195 67 195 55.5 225.5 c 128,-1,113
 44 256 44 256 44 296 c 0,114,115
 44 346 44 346 60 384 c 128,-1,116
 76 422 76 422 103.5 448 c 128,-1,117
 131 474 131 474 167 487 c 128,-1,118
 203 500 203 500 242 500 c 0,0,1
184 323 m 0,119,120
 156 323 156 323 137.5 305.5 c 128,-1,121
 119 288 119 288 111 267 c 1,122,123
 117 229 117 229 139 212.5 c 128,-1,124
 161 196 161 196 184 196 c 0,125,126
 213 196 213 196 230.5 213.5 c 128,-1,127
 248 231 248 231 248 260 c 256,128,129
 248 289 248 289 230.5 306 c 128,-1,130
 213 323 213 323 184 323 c 0,119,120
EndSplineSet
EndChar

StartChar: vowelO.tm
Encoding: 2962 2962 77
Width: 796
GlyphClass: 2
Flags: W
LayerCount: 2
Fore
SplineSet
401 523 m 0,0,1
 477 523 477 523 542.5 501 c 128,-1,2
 608 479 608 479 656 441 c 128,-1,3
 704 403 704 403 731 351 c 128,-1,4
 758 299 758 299 758 238 c 0,5,6
 758 161 758 161 716.5 116 c 128,-1,7
 675 71 675 71 607 71 c 0,8,9
 561 71 561 71 529.5 100 c 128,-1,10
 498 129 498 129 498 172 c 0,11,12
 498 178 498 178 499.5 187.5 c 128,-1,13
 501 197 501 197 504 203 c 0,14,15
 506 207 506 207 508 210.5 c 128,-1,16
 510 214 510 214 512 218 c 1,17,-1
 511 219 l 2,18,19
 508 217 508 217 503 213.5 c 128,-1,20
 498 210 498 210 494 207 c 0,21,22
 480 196 480 196 469 173.5 c 128,-1,23
 458 151 458 151 458 123 c 0,24,25
 458 63 458 63 501 29.5 c 128,-1,26
 544 -4 544 -4 632 -4 c 2,27,-1
 694 -4 l 1,28,-1
 694 -67 l 1,29,-1
 668 -67 l 2,30,31
 644 -67 644 -67 626.5 -72.5 c 128,-1,32
 609 -78 609 -78 595.5 -88.5 c 128,-1,33
 582 -99 582 -99 572 -114.5 c 128,-1,34
 562 -130 562 -130 552 -149 c 0,35,36
 519 -214 519 -214 473 -246 c 128,-1,37
 427 -278 427 -278 370 -278 c 0,38,39
 337 -278 337 -278 307.5 -268 c 128,-1,40
 278 -258 278 -258 256 -239 c 128,-1,41
 234 -220 234 -220 221 -192.5 c 128,-1,42
 208 -165 208 -165 208 -130 c 0,43,44
 208 -104 208 -104 217 -78.5 c 128,-1,45
 226 -53 226 -53 237 -43 c 1,46,-1
 298 -76 l 1,47,48
 291 -87 291 -87 287 -101.5 c 128,-1,49
 283 -116 283 -116 283 -130 c 0,50,51
 283 -166 283 -166 306.5 -190.5 c 128,-1,52
 330 -215 330 -215 373 -215 c 0,53,54
 394 -215 394 -215 410.5 -207.5 c 128,-1,55
 427 -200 427 -200 439.5 -188.5 c 128,-1,56
 452 -177 452 -177 462 -162.5 c 128,-1,57
 472 -148 472 -148 481 -133 c 0,58,59
 504 -93 504 -93 518 -75.5 c 128,-1,60
 532 -58 532 -58 550 -50 c 1,61,62
 520 -46 520 -46 491 -34 c 128,-1,63
 462 -22 462 -22 439 -1.5 c 128,-1,64
 416 19 416 19 402 48 c 128,-1,65
 388 77 388 77 388 115 c 0,66,67
 388 151 388 151 400.5 179.5 c 128,-1,68
 413 208 413 208 433.5 229.5 c 128,-1,69
 454 251 454 251 480 265 c 128,-1,70
 506 279 506 279 532 285 c 1,71,-1
 564 242 l 1,72,73
 557 234 557 234 551.5 221 c 128,-1,74
 546 208 546 208 546 192 c 0,75,76
 546 166 546 166 563 149 c 128,-1,77
 580 132 580 132 608 132 c 0,78,79
 645 132 645 132 664 160.5 c 128,-1,80
 683 189 683 189 683 234 c 0,81,82
 683 284 683 284 661 325.5 c 128,-1,83
 639 367 639 367 600.5 396.5 c 128,-1,84
 562 426 562 426 510 442 c 128,-1,85
 458 458 458 458 398 458 c 256,86,87
 338 458 338 458 286.5 443 c 128,-1,88
 235 428 235 428 196.5 399.5 c 128,-1,89
 158 371 158 371 134 331 c 128,-1,90
 110 291 110 291 106 240 c 1,91,92
 120 264 120 264 146 280.5 c 128,-1,93
 172 297 172 297 209 297 c 0,94,95
 236 297 236 297 258.5 287 c 128,-1,96
 281 277 281 277 297.5 260 c 128,-1,97
 314 243 314 243 323 220.5 c 128,-1,98
 332 198 332 198 332 173 c 0,99,100
 332 144 332 144 321.5 119.5 c 128,-1,101
 311 95 311 95 292 77 c 128,-1,102
 273 59 273 59 246.5 49 c 128,-1,103
 220 39 220 39 189 39 c 0,104,105
 157 39 157 39 129.5 51.5 c 128,-1,106
 102 64 102 64 82 87 c 128,-1,107
 62 110 62 110 50 144 c 128,-1,108
 38 178 38 178 38 221 c 0,109,110
 38 283 38 283 63.5 338 c 128,-1,111
 89 393 89 393 136 434 c 128,-1,112
 183 475 183 475 250 499 c 128,-1,113
 317 523 317 523 401 523 c 0,0,1
189 238 m 0,114,115
 163 238 163 238 142.5 222 c 128,-1,116
 122 206 122 206 111 178 c 1,117,118
 116 139 116 139 138 119.5 c 128,-1,119
 160 100 160 100 188 100 c 0,120,121
 220 100 220 100 239.5 119.5 c 128,-1,122
 259 139 259 139 259 170 c 256,123,124
 259 201 259 201 240 219.5 c 128,-1,125
 221 238 221 238 189 238 c 0,114,115
EndSplineSet
EndChar

StartChar: vowelOo.tm
Encoding: 2963 2963 78
Width: 796
GlyphClass: 2
Flags: W
LayerCount: 2
Fore
SplineSet
401 523 m 0,0,1
 477 523 477 523 542.5 501 c 128,-1,2
 608 479 608 479 656 441 c 128,-1,3
 704 403 704 403 731 351 c 128,-1,4
 758 299 758 299 758 238 c 0,5,6
 758 161 758 161 716.5 116 c 128,-1,7
 675 71 675 71 607 71 c 0,8,9
 561 71 561 71 529.5 100 c 128,-1,10
 498 129 498 129 498 172 c 0,11,12
 498 176 498 176 499.5 186.5 c 128,-1,13
 501 197 501 197 504 203 c 0,14,15
 506 207 506 207 508 210.5 c 128,-1,16
 510 214 510 214 512 218 c 1,17,-1
 511 219 l 1,18,19
 503 214 503 214 494 207 c 0,20,21
 480 196 480 196 469 173.5 c 128,-1,22
 458 151 458 151 458 123 c 0,23,24
 458 63 458 63 502 29.5 c 128,-1,25
 546 -4 546 -4 640 -4 c 2,26,-1
 694 -4 l 1,27,-1
 694 -67 l 1,28,-1
 667 -67 l 2,29,30
 627 -67 627 -67 599.5 -88.5 c 128,-1,31
 572 -110 572 -110 544 -158 c 0,32,33
 527 -186 527 -186 510 -209 c 128,-1,34
 493 -232 493 -232 471 -248 c 128,-1,35
 449 -264 449 -264 420 -272.5 c 128,-1,36
 391 -281 391 -281 351 -281 c 0,37,38
 317 -281 317 -281 288 -271.5 c 128,-1,39
 259 -262 259 -262 237.5 -245 c 128,-1,40
 216 -228 216 -228 203.5 -204.5 c 128,-1,41
 191 -181 191 -181 191 -152 c 0,42,43
 191 -125 191 -125 201 -104 c 128,-1,44
 211 -83 211 -83 227.5 -68 c 128,-1,45
 244 -53 244 -53 266.5 -45.5 c 128,-1,46
 289 -38 289 -38 313 -38 c 0,47,48
 336 -38 336 -38 357 -45.5 c 128,-1,49
 378 -53 378 -53 394 -67 c 128,-1,50
 410 -81 410 -81 419.5 -100 c 128,-1,51
 429 -119 429 -119 429 -143 c 0,52,53
 429 -170 429 -170 415.5 -194 c 128,-1,54
 402 -218 402 -218 379 -233 c 1,55,56
 398 -231 398 -231 412 -223 c 128,-1,57
 426 -215 426 -215 438 -202.5 c 128,-1,58
 450 -190 450 -190 461 -173.5 c 128,-1,59
 472 -157 472 -157 483 -138 c 0,60,61
 506 -96 506 -96 523 -77.5 c 128,-1,62
 540 -59 540 -59 560 -50 c 1,63,64
 525 -45 525 -45 494 -32.5 c 128,-1,65
 463 -20 463 -20 439.5 1 c 128,-1,66
 416 22 416 22 402 50.5 c 128,-1,67
 388 79 388 79 388 115 c 256,68,69
 388 151 388 151 400.5 179.5 c 128,-1,70
 413 208 413 208 433.5 229.5 c 128,-1,71
 454 251 454 251 480 265 c 128,-1,72
 506 279 506 279 532 285 c 1,73,-1
 564 242 l 1,74,75
 557 234 557 234 551.5 221 c 128,-1,76
 546 208 546 208 546 192 c 0,77,78
 546 166 546 166 563 149 c 128,-1,79
 580 132 580 132 608 132 c 0,80,81
 645 132 645 132 664 160.5 c 128,-1,82
 683 189 683 189 683 234 c 0,83,84
 683 284 683 284 661 325.5 c 128,-1,85
 639 367 639 367 600.5 396.5 c 128,-1,86
 562 426 562 426 510 442 c 128,-1,87
 458 458 458 458 398 458 c 256,88,89
 338 458 338 458 286.5 443 c 128,-1,90
 235 428 235 428 196.5 399.5 c 128,-1,91
 158 371 158 371 134 331 c 128,-1,92
 110 291 110 291 106 240 c 1,93,94
 120 264 120 264 146 280.5 c 128,-1,95
 172 297 172 297 209 297 c 0,96,97
 236 297 236 297 258.5 287 c 128,-1,98
 281 277 281 277 297.5 260 c 128,-1,99
 314 243 314 243 323 220.5 c 128,-1,100
 332 198 332 198 332 173 c 0,101,102
 332 144 332 144 321.5 119.5 c 128,-1,103
 311 95 311 95 292 77 c 128,-1,104
 273 59 273 59 246.5 49 c 128,-1,105
 220 39 220 39 189 39 c 0,106,107
 157 39 157 39 129.5 51.5 c 128,-1,108
 102 64 102 64 82 87 c 128,-1,109
 62 110 62 110 50 144 c 128,-1,110
 38 178 38 178 38 221 c 0,111,112
 38 283 38 283 63.5 338 c 128,-1,113
 89 393 89 393 136 434 c 128,-1,114
 183 475 183 475 250 499 c 128,-1,115
 317 523 317 523 401 523 c 0,0,1
189 238 m 0,116,117
 163 238 163 238 142.5 222 c 128,-1,118
 122 206 122 206 111 178 c 1,119,120
 116 139 116 139 138 119.5 c 128,-1,121
 160 100 160 100 188 100 c 0,122,123
 220 100 220 100 239.5 119.5 c 128,-1,124
 259 139 259 139 259 170 c 256,125,126
 259 201 259 201 240 219.5 c 128,-1,127
 221 238 221 238 189 238 c 0,116,117
259 -154 m 0,128,129
 259 -177 259 -177 272.5 -197 c 128,-1,130
 286 -217 286 -217 315 -226 c 1,131,132
 334 -218 334 -218 348.5 -197 c 128,-1,133
 363 -176 363 -176 363 -153 c 0,134,135
 363 -129 363 -129 350 -114 c 128,-1,136
 337 -99 337 -99 311 -99 c 0,137,138
 288 -99 288 -99 273.5 -114 c 128,-1,139
 259 -129 259 -129 259 -154 c 0,128,129
EndSplineSet
EndChar

StartChar: vowelAu.tm
Encoding: 2964 2964 79
Width: 1709
GlyphClass: 2
Flags: W
LayerCount: 2
Fore
SplineSet
401 523 m 0,0,1
 477 523 477 523 542.5 501 c 128,-1,2
 608 479 608 479 656 441 c 128,-1,3
 704 403 704 403 731 351 c 128,-1,4
 758 299 758 299 758 238 c 0,5,6
 758 161 758 161 716.5 116 c 128,-1,7
 675 71 675 71 607 71 c 0,8,9
 561 71 561 71 529.5 100 c 128,-1,10
 498 129 498 129 498 172 c 0,11,12
 498 178 498 178 499.5 187.5 c 128,-1,13
 501 197 501 197 504 203 c 0,14,15
 506 207 506 207 508 210.5 c 128,-1,16
 510 214 510 214 512 218 c 1,17,-1
 511 219 l 2,18,19
 508 217 508 217 503 213.5 c 128,-1,20
 498 210 498 210 494 207 c 0,21,22
 480 196 480 196 469 173.5 c 128,-1,23
 458 151 458 151 458 123 c 0,24,25
 458 63 458 63 501 29.5 c 128,-1,26
 544 -4 544 -4 632 -4 c 2,27,-1
 694 -4 l 1,28,-1
 694 -67 l 1,29,-1
 668 -67 l 2,30,31
 644 -67 644 -67 626.5 -72.5 c 128,-1,32
 609 -78 609 -78 595.5 -88.5 c 128,-1,33
 582 -99 582 -99 572 -114.5 c 128,-1,34
 562 -130 562 -130 552 -149 c 0,35,36
 519 -214 519 -214 473 -246 c 128,-1,37
 427 -278 427 -278 370 -278 c 0,38,39
 337 -278 337 -278 307.5 -268 c 128,-1,40
 278 -258 278 -258 256 -239 c 128,-1,41
 234 -220 234 -220 221 -192.5 c 128,-1,42
 208 -165 208 -165 208 -130 c 0,43,44
 208 -104 208 -104 217 -78.5 c 128,-1,45
 226 -53 226 -53 237 -43 c 1,46,-1
 298 -76 l 1,47,48
 291 -87 291 -87 287 -101.5 c 128,-1,49
 283 -116 283 -116 283 -130 c 0,50,51
 283 -166 283 -166 306.5 -190.5 c 128,-1,52
 330 -215 330 -215 373 -215 c 0,53,54
 394 -215 394 -215 410.5 -207.5 c 128,-1,55
 427 -200 427 -200 439.5 -188.5 c 128,-1,56
 452 -177 452 -177 462 -162.5 c 128,-1,57
 472 -148 472 -148 481 -133 c 0,58,59
 504 -93 504 -93 518 -75.5 c 128,-1,60
 532 -58 532 -58 550 -50 c 1,61,62
 520 -46 520 -46 491 -34 c 128,-1,63
 462 -22 462 -22 439 -1.5 c 128,-1,64
 416 19 416 19 402 48 c 128,-1,65
 388 77 388 77 388 115 c 0,66,67
 388 151 388 151 400.5 179.5 c 128,-1,68
 413 208 413 208 433.5 229.5 c 128,-1,69
 454 251 454 251 480 265 c 128,-1,70
 506 279 506 279 532 285 c 1,71,-1
 564 242 l 1,72,73
 557 234 557 234 551.5 221 c 128,-1,74
 546 208 546 208 546 192 c 0,75,76
 546 166 546 166 563 149 c 128,-1,77
 580 132 580 132 608 132 c 0,78,79
 645 132 645 132 664 160.5 c 128,-1,80
 683 189 683 189 683 234 c 0,81,82
 683 284 683 284 661 325.5 c 128,-1,83
 639 367 639 367 600.5 396.5 c 128,-1,84
 562 426 562 426 510 442 c 128,-1,85
 458 458 458 458 398 458 c 256,86,87
 338 458 338 458 286.5 443 c 128,-1,88
 235 428 235 428 196.5 399.5 c 128,-1,89
 158 371 158 371 134 331 c 128,-1,90
 110 291 110 291 106 240 c 1,91,92
 120 264 120 264 146 280.5 c 128,-1,93
 172 297 172 297 209 297 c 0,94,95
 236 297 236 297 258.5 287 c 128,-1,96
 281 277 281 277 297.5 260 c 128,-1,97
 314 243 314 243 323 220.5 c 128,-1,98
 332 198 332 198 332 173 c 0,99,100
 332 144 332 144 321.5 119.5 c 128,-1,101
 311 95 311 95 292 77 c 128,-1,102
 273 59 273 59 246.5 49 c 128,-1,103
 220 39 220 39 189 39 c 0,104,105
 157 39 157 39 129.5 51.5 c 128,-1,106
 102 64 102 64 82 87 c 128,-1,107
 62 110 62 110 50 144 c 128,-1,108
 38 178 38 178 38 221 c 0,109,110
 38 283 38 283 63.5 338 c 128,-1,111
 89 393 89 393 136 434 c 128,-1,112
 183 475 183 475 250 499 c 128,-1,113
 317 523 317 523 401 523 c 0,0,1
1711 496 m 1,114,-1
 1711 432 l 1,115,-1
 1604 432 l 1,116,-1
 1604 0 l 1,117,-1
 1529 0 l 1,118,-1
 1529 432 l 1,119,-1
 1359 432 l 1,120,-1
 1359 0 l 1,121,-1
 1286 0 l 1,122,-1
 1286 249 l 1,123,124
 1276 339 1276 339 1225 387 c 128,-1,125
 1174 435 1174 435 1095 435 c 0,126,127
 1015 435 1015 435 964 382 c 128,-1,128
 913 329 913 329 910 229 c 1,129,130
 928 258 928 258 960 275.5 c 128,-1,131
 992 293 992 293 1031 293 c 0,132,133
 1063 293 1063 293 1090 282 c 128,-1,134
 1117 271 1117 271 1136.5 251.5 c 128,-1,135
 1156 232 1156 232 1167 205 c 128,-1,136
 1178 178 1178 178 1178 147 c 0,137,138
 1178 112 1178 112 1166 84 c 128,-1,139
 1154 56 1154 56 1133 35.5 c 128,-1,140
 1112 15 1112 15 1082.5 4 c 128,-1,141
 1053 -7 1053 -7 1018 -7 c 0,142,143
 979 -7 979 -7 946.5 9 c 128,-1,144
 914 25 914 25 891 54.5 c 128,-1,145
 868 84 868 84 855.5 125.5 c 128,-1,146
 843 167 843 167 843 218 c 0,147,148
 843 285 843 285 863 337.5 c 128,-1,149
 883 390 883 390 917.5 426 c 128,-1,150
 952 462 952 462 998.5 481 c 128,-1,151
 1045 500 1045 500 1098 500 c 0,152,153
 1135 500 1135 500 1166 490.5 c 128,-1,154
 1197 481 1197 481 1221 466 c 128,-1,155
 1245 451 1245 451 1262.5 432 c 128,-1,156
 1280 413 1280 413 1289 393 c 1,157,-1
 1289 496 l 1,158,-1
 1711 496 l 1,114,-1
1016 230 m 0,159,160
 997 230 997 230 981.5 223.5 c 128,-1,161
 966 217 966 217 953 206 c 128,-1,162
 940 195 940 195 931 181.5 c 128,-1,163
 922 168 922 168 916 153 c 1,164,165
 925 105 925 105 954 80.5 c 128,-1,166
 983 56 983 56 1018 56 c 0,167,168
 1057 56 1057 56 1080.5 81 c 128,-1,169
 1104 106 1104 106 1104 144 c 256,170,171
 1104 182 1104 182 1081 206 c 128,-1,172
 1058 230 1058 230 1016 230 c 0,159,160
189 238 m 0,173,174
 163 238 163 238 142.5 222 c 128,-1,175
 122 206 122 206 111 178 c 1,176,177
 116 139 116 139 138 119.5 c 128,-1,178
 160 100 160 100 188 100 c 0,179,180
 220 100 220 100 239.5 119.5 c 128,-1,181
 259 139 259 139 259 170 c 256,182,183
 259 201 259 201 240 219.5 c 128,-1,184
 221 238 221 238 189 238 c 0,173,174
EndSplineSet
EndChar

StartChar: Ka.tm
Encoding: 2965 2965 80
Width: 665
GlyphClass: 2
Flags: W
LayerCount: 2
Fore
SplineSet
559 495 m 1,0,-1
 559 433 l 1,1,-1
 409 433 l 1,2,-1
 409 293 l 1,3,-1
 455 293 l 2,4,5
 548 293 548 293 594 252 c 128,-1,6
 640 211 640 211 640 141 c 0,7,8
 640 108 640 108 628 80.5 c 128,-1,9
 616 53 616 53 594.5 33.5 c 128,-1,10
 573 14 573 14 543.5 3.5 c 128,-1,11
 514 -7 514 -7 479 -7 c 0,12,13
 452 -7 452 -7 434 -2 c 1,14,-1
 442 61 l 1,15,16
 450 59 450 59 459.5 58 c 128,-1,17
 469 57 469 57 477 57 c 0,18,19
 516 57 516 57 540 80 c 128,-1,20
 564 103 564 103 564 141 c 0,21,22
 564 230 564 230 452 230 c 2,23,-1
 409 230 l 1,24,-1
 409 146 l 2,25,26
 409 79 409 79 361 36 c 128,-1,27
 313 -7 313 -7 226 -7 c 0,28,29
 185 -7 185 -7 149.5 4 c 128,-1,30
 114 15 114 15 88 36 c 128,-1,31
 62 57 62 57 47 86.5 c 128,-1,32
 32 116 32 116 32 153 c 0,33,34
 32 180 32 180 40 202 c 128,-1,35
 48 224 48 224 61.5 240.5 c 128,-1,36
 75 257 75 257 92.5 268 c 128,-1,37
 110 279 110 279 129 283 c 1,38,-1
 129 495 l 1,39,-1
 559 495 l 1,0,-1
197 230 m 2,40,41
 155 230 155 230 130 210 c 128,-1,42
 105 190 105 190 105 152 c 0,43,44
 105 109 105 109 139 82.5 c 128,-1,45
 173 56 173 56 230 56 c 0,46,47
 281 56 281 56 309 82.5 c 128,-1,48
 337 109 337 109 337 156 c 2,49,-1
 337 230 l 1,50,-1
 197 230 l 2,40,41
201 293 m 1,51,-1
 337 293 l 1,52,-1
 337 433 l 1,53,-1
 201 433 l 1,54,-1
 201 293 l 1,51,-1
EndSplineSet
EndChar

StartChar: Nga.tm
Encoding: 2969 2969 81
Width: 878
GlyphClass: 2
Flags: W
LayerCount: 2
Fore
SplineSet
545 495 m 1,0,-1
 545 433 l 1,1,-1
 375 433 l 1,2,-1
 375 287 l 1,3,4
 389 306 389 306 415.5 321 c 128,-1,5
 442 336 442 336 477 336 c 0,6,7
 507 336 507 336 533 326.5 c 128,-1,8
 559 317 559 317 578.5 298 c 128,-1,9
 598 279 598 279 609 252 c 128,-1,10
 620 225 620 225 620 191 c 0,11,12
 620 152 620 152 602.5 115.5 c 128,-1,13
 585 79 585 79 556 62 c 1,14,-1
 732 62 l 1,15,-1
 732 495 l 1,16,-1
 805 495 l 1,17,-1
 805 0 l 1,18,-1
 302 0 l 1,19,-1
 302 62 l 1,20,-1
 416 62 l 2,21,22
 443 62 443 62 467 71 c 128,-1,23
 491 80 491 80 508 96 c 128,-1,24
 525 112 525 112 535 134.5 c 128,-1,25
 545 157 545 157 545 184 c 0,26,27
 545 221 545 221 524 248.5 c 128,-1,28
 503 276 503 276 458 276 c 0,29,30
 428 276 428 276 404 256 c 128,-1,31
 380 236 380 236 374 203 c 1,32,-1
 374 145 l 1,33,-1
 304 145 l 1,34,-1
 304 433 l 1,35,-1
 147 433 l 1,36,-1
 147 0 l 1,37,-1
 73 0 l 1,38,-1
 73 495 l 1,39,-1
 545 495 l 1,0,-1
EndSplineSet
EndChar

StartChar: Ca.tm
Encoding: 2970 2970 82
Width: 602
GlyphClass: 2
Flags: W
LayerCount: 2
Fore
SplineSet
559 495 m 1,0,-1
 559 433 l 1,1,-1
 409 433 l 1,2,-1
 409 293 l 1,3,-1
 579 293 l 1,4,-1
 579 231 l 1,5,-1
 409 231 l 1,6,-1
 409 146 l 2,7,8
 409 79 409 79 361 36 c 128,-1,9
 313 -7 313 -7 226 -7 c 0,10,11
 185 -7 185 -7 149.5 4 c 128,-1,12
 114 15 114 15 88 36 c 128,-1,13
 62 57 62 57 47 86.5 c 128,-1,14
 32 116 32 116 32 153 c 0,15,16
 32 180 32 180 40 202 c 128,-1,17
 48 224 48 224 61.5 240.5 c 128,-1,18
 75 257 75 257 92.5 268 c 128,-1,19
 110 279 110 279 129 283 c 1,20,-1
 129 495 l 1,21,-1
 559 495 l 1,0,-1
197 230 m 2,22,23
 155 230 155 230 130 210 c 128,-1,24
 105 190 105 190 105 152 c 0,25,26
 105 109 105 109 139 82.5 c 128,-1,27
 173 56 173 56 230 56 c 0,28,29
 281 56 281 56 309 82.5 c 128,-1,30
 337 109 337 109 337 156 c 2,31,-1
 337 230 l 1,32,-1
 197 230 l 2,22,23
201 293 m 1,33,-1
 337 293 l 1,34,-1
 337 433 l 1,35,-1
 201 433 l 1,36,-1
 201 293 l 1,33,-1
EndSplineSet
EndChar

StartChar: Ja.tm
Encoding: 2972 2972 83
Width: 814
GlyphClass: 2
Flags: W
LayerCount: 2
Fore
SplineSet
242 500 m 0,0,1
 278 500 278 500 308 490 c 128,-1,2
 338 480 338 480 362 462 c 128,-1,3
 386 444 386 444 402.5 420 c 128,-1,4
 419 396 419 396 427 368 c 1,5,6
 432 396 432 396 445.5 420 c 128,-1,7
 459 444 459 444 479.5 462 c 128,-1,8
 500 480 500 480 527 490 c 128,-1,9
 554 500 554 500 586 500 c 0,10,11
 627 500 627 500 660.5 486 c 128,-1,12
 694 472 694 472 718 447.5 c 128,-1,13
 742 423 742 423 755 389 c 128,-1,14
 768 355 768 355 768 316 c 0,15,16
 768 264 768 264 750 225.5 c 128,-1,17
 732 187 732 187 699 159.5 c 128,-1,18
 666 132 666 132 620.5 113.5 c 128,-1,19
 575 95 575 95 520 83 c 2,20,-1
 281 32 l 2,21,22
 136 1 136 1 136 -107 c 0,23,24
 136 -154 136 -154 163 -182.5 c 128,-1,25
 190 -211 190 -211 235 -211 c 0,26,27
 269 -211 269 -211 300.5 -193 c 128,-1,28
 332 -175 332 -175 364 -137 c 2,29,-1
 412 -81 l 2,30,31
 467 -16 467 -16 514.5 11.5 c 128,-1,32
 562 39 562 39 617 39 c 0,33,34
 652 39 652 39 681 27.5 c 128,-1,35
 710 16 710 16 730.5 -5 c 128,-1,36
 751 -26 751 -26 762.5 -55.5 c 128,-1,37
 774 -85 774 -85 774 -121 c 0,38,39
 774 -192 774 -192 730.5 -235 c 128,-1,40
 687 -278 687 -278 615 -278 c 0,41,42
 591 -278 591 -278 571.5 -272 c 128,-1,43
 552 -266 552 -266 536.5 -256.5 c 128,-1,44
 521 -247 521 -247 509.5 -236 c 128,-1,45
 498 -225 498 -225 491 -216 c 1,46,-1
 540 -170 l 1,47,48
 548 -181 548 -181 567 -196 c 128,-1,49
 586 -211 586 -211 616 -211 c 0,50,51
 653 -211 653 -211 675 -186.5 c 128,-1,52
 697 -162 697 -162 697 -121 c 0,53,54
 697 -79 697 -79 674 -53.5 c 128,-1,55
 651 -28 651 -28 613 -28 c 0,56,57
 580 -28 580 -28 550 -46.5 c 128,-1,58
 520 -65 520 -65 484 -109 c 2,59,-1
 437 -166 l 2,60,61
 389 -224 389 -224 340 -251 c 128,-1,62
 291 -278 291 -278 233 -278 c 0,63,64
 194 -278 194 -278 162 -266 c 128,-1,65
 130 -254 130 -254 107 -231.5 c 128,-1,66
 84 -209 84 -209 71.5 -177.5 c 128,-1,67
 59 -146 59 -146 59 -108 c 0,68,69
 59 -27 59 -27 110 22.5 c 128,-1,70
 161 72 161 72 270 96 c 2,71,-1
 521 152 l 2,72,73
 602 170 602 170 646.5 208.5 c 128,-1,74
 691 247 691 247 691 314 c 0,75,76
 691 365 691 365 661.5 399.5 c 128,-1,77
 632 434 632 434 580 434 c 0,78,79
 532 434 532 434 498 395 c 128,-1,80
 464 356 464 356 464 277 c 2,81,-1
 464 207 l 1,82,-1
 390 207 l 1,83,-1
 390 270 l 2,84,85
 390 307 390 307 379 337.5 c 128,-1,86
 368 368 368 368 348.5 389.5 c 128,-1,87
 329 411 329 411 301.5 423 c 128,-1,88
 274 435 274 435 241 435 c 0,89,90
 219 435 219 435 198 429.5 c 128,-1,91
 177 424 177 424 159.5 412 c 128,-1,92
 142 400 142 400 129.5 381 c 128,-1,93
 117 362 117 362 112 336 c 1,94,95
 127 353 127 353 150 364.5 c 128,-1,96
 173 376 173 376 202 376 c 0,97,98
 224 376 224 376 245.5 368.5 c 128,-1,99
 267 361 267 361 283 347 c 128,-1,100
 299 333 299 333 309 311 c 128,-1,101
 319 289 319 289 319 261 c 0,102,103
 319 204 319 204 280.5 169 c 128,-1,104
 242 134 242 134 183 134 c 0,105,106
 156 134 156 134 131 144.5 c 128,-1,107
 106 155 106 155 86.5 175 c 128,-1,108
 67 195 67 195 55.5 225.5 c 128,-1,109
 44 256 44 256 44 296 c 0,110,111
 44 346 44 346 60 384 c 128,-1,112
 76 422 76 422 103.5 448 c 128,-1,113
 131 474 131 474 167 487 c 128,-1,114
 203 500 203 500 242 500 c 0,0,1
184 323 m 0,115,116
 156 323 156 323 137.5 305.5 c 128,-1,117
 119 288 119 288 111 267 c 1,118,119
 117 229 117 229 139 212.5 c 128,-1,120
 161 196 161 196 184 196 c 0,121,122
 213 196 213 196 230.5 213.5 c 128,-1,123
 248 231 248 231 248 260 c 256,124,125
 248 289 248 289 230.5 306 c 128,-1,126
 213 323 213 323 184 323 c 0,115,116
EndSplineSet
Substitution2: "'ss01' Style Set 1 lookup 15 subtable" JaAlt.tm
EndChar

StartChar: Nya.tm
Encoding: 2974 2974 84
Width: 1095
GlyphClass: 2
Flags: W
LayerCount: 2
Fore
SplineSet
903 293 m 0,0,1
 940 293 940 293 969.5 279 c 128,-1,2
 999 265 999 265 1020 240 c 128,-1,3
 1041 215 1041 215 1052.5 179 c 128,-1,4
 1064 143 1064 143 1064 100 c 0,5,6
 1064 16 1064 16 1027 -53 c 128,-1,7
 990 -122 990 -122 924.5 -171.5 c 128,-1,8
 859 -221 859 -221 769 -248 c 128,-1,9
 679 -275 679 -275 573 -275 c 0,10,11
 471 -275 471 -275 376.5 -246 c 128,-1,12
 282 -217 282 -217 209.5 -158.5 c 128,-1,13
 137 -100 137 -100 93.5 -12 c 128,-1,14
 50 76 50 76 50 195 c 0,15,16
 50 253 50 253 61 301.5 c 128,-1,17
 72 350 72 350 89 389 c 128,-1,18
 106 428 106 428 126.5 456.5 c 128,-1,19
 147 485 147 485 165 502 c 1,20,-1
 218 456 l 1,21,22
 205 442 205 442 189.5 418 c 128,-1,23
 174 394 174 394 160 361 c 128,-1,24
 146 328 146 328 136.5 286.5 c 128,-1,25
 127 245 127 245 127 195 c 0,26,27
 127 94 127 94 163.5 18 c 128,-1,28
 200 -58 200 -58 262.5 -108.5 c 128,-1,29
 325 -159 325 -159 407 -184.5 c 128,-1,30
 489 -210 489 -210 579 -210 c 0,31,32
 668 -210 668 -210 743 -188 c 128,-1,33
 818 -166 818 -166 872 -125.5 c 128,-1,34
 926 -85 926 -85 956 -29 c 128,-1,35
 986 27 986 27 986 96 c 0,36,37
 986 156 986 156 960.5 194 c 128,-1,38
 935 232 935 232 883 232 c 0,39,40
 857 232 857 232 835 218.5 c 128,-1,41
 813 205 813 205 800 181 c 1,42,-1
 800 0 l 1,43,-1
 727 0 l 1,44,-1
 727 433 l 1,45,-1
 577 433 l 2,46,47
 531 433 531 433 490.5 420.5 c 128,-1,48
 450 408 450 408 419.5 383.5 c 128,-1,49
 389 359 389 359 369 321 c 128,-1,50
 349 283 349 283 344 232 c 1,51,52
 363 259 363 259 394 276 c 128,-1,53
 425 293 425 293 463 293 c 0,54,55
 495 293 495 293 522 282 c 128,-1,56
 549 271 549 271 568.5 251.5 c 128,-1,57
 588 232 588 232 599 205 c 128,-1,58
 610 178 610 178 610 147 c 0,59,60
 610 112 610 112 598 84 c 128,-1,61
 586 56 586 56 565 35.5 c 128,-1,62
 544 15 544 15 514.5 4 c 128,-1,63
 485 -7 485 -7 450 -7 c 0,64,65
 411 -7 411 -7 379 8.5 c 128,-1,66
 347 24 347 24 324 52.5 c 128,-1,67
 301 81 301 81 288 121 c 128,-1,68
 275 161 275 161 275 211 c 0,69,70
 275 281 275 281 299 334 c 128,-1,71
 323 387 323 387 364 423 c 128,-1,72
 405 459 405 459 461 477 c 128,-1,73
 517 495 517 495 581 495 c 2,74,-1
 981 495 l 1,75,-1
 981 433 l 1,76,-1
 800 433 l 1,77,-1
 800 253 l 1,78,79
 816 270 816 270 843 281.5 c 128,-1,80
 870 293 870 293 903 293 c 0,0,1
448 230 m 0,81,82
 429 230 429 230 413.5 223.5 c 128,-1,83
 398 217 398 217 385 206 c 128,-1,84
 372 195 372 195 363 181.5 c 128,-1,85
 354 168 354 168 348 153 c 1,86,87
 357 105 357 105 386 80.5 c 128,-1,88
 415 56 415 56 450 56 c 0,89,90
 489 56 489 56 512.5 81 c 128,-1,91
 536 106 536 106 536 144 c 256,92,93
 536 182 536 182 513 206 c 128,-1,94
 490 230 490 230 448 230 c 0,81,82
EndSplineSet
EndChar

StartChar: Tta.tm
Encoding: 2975 2975 85
Width: 670
GlyphClass: 2
Flags: W
LayerCount: 2
Fore
SplineSet
149 495 m 1,0,-1
 149 66 l 1,1,-1
 667 66 l 1,2,-1
 667 0 l 1,3,-1
 73 0 l 1,4,-1
 73 495 l 1,5,-1
 149 495 l 1,0,-1
EndSplineSet
EndChar

StartChar: Nna.tm
Encoding: 2979 2979 86
Width: 1439
GlyphClass: 2
Flags: W
LayerCount: 2
Fore
SplineSet
379 500 m 0,0,1
 442 500 442 500 499 480 c 128,-1,2
 556 460 556 460 595 434 c 1,3,4
 637 465 637 465 689 482.5 c 128,-1,5
 741 500 741 500 795 500 c 0,6,7
 847 500 847 500 895.5 483 c 128,-1,8
 944 466 944 466 985 436 c 1,9,10
 1016 458 1016 458 1067 476.5 c 128,-1,11
 1118 495 1118 495 1201 495 c 2,12,-1
 1448 495 l 1,13,-1
 1448 433 l 1,14,-1
 1332 433 l 1,15,-1
 1332 0 l 1,16,-1
 1258 0 l 1,17,-1
 1258 432 l 1,18,-1
 1178 432 l 2,19,20
 1126 432 1126 432 1092.5 423.5 c 128,-1,21
 1059 415 1059 415 1035 399 c 1,22,23
 1055 379 1055 379 1074 356 c 128,-1,24
 1093 333 1093 333 1107.5 305.5 c 128,-1,25
 1122 278 1122 278 1131 244 c 128,-1,26
 1140 210 1140 210 1140 170 c 0,27,28
 1140 86 1140 86 1098 39.5 c 128,-1,29
 1056 -7 1056 -7 984 -7 c 0,30,31
 915 -7 915 -7 873 39.5 c 128,-1,32
 831 86 831 86 831 169 c 0,33,34
 831 210 831 210 839.5 243.5 c 128,-1,35
 848 277 848 277 862 304.5 c 128,-1,36
 876 332 876 332 894.5 354.5 c 128,-1,37
 913 377 913 377 934 397 c 1,38,39
 875 436 875 436 791 436 c 0,40,41
 704 436 704 436 649 397 c 1,42,43
 670 377 670 377 689 354.5 c 128,-1,44
 708 332 708 332 723 304 c 128,-1,45
 738 276 738 276 746.5 243 c 128,-1,46
 755 210 755 210 755 170 c 0,47,48
 755 86 755 86 713 39.5 c 128,-1,49
 671 -7 671 -7 599 -7 c 0,50,51
 530 -7 530 -7 488 39.5 c 128,-1,52
 446 86 446 86 446 169 c 0,53,54
 446 248 446 248 475.5 301.5 c 128,-1,55
 505 355 505 355 545 394 c 1,56,57
 520 408 520 408 478 422 c 128,-1,58
 436 436 436 436 371 436 c 0,59,60
 319 436 319 436 273.5 421.5 c 128,-1,61
 228 407 228 407 194 381 c 128,-1,62
 160 355 160 355 139 317.5 c 128,-1,63
 118 280 118 280 115 234 c 1,64,65
 134 260 134 260 164.5 276.5 c 128,-1,66
 195 293 195 293 232 293 c 0,67,68
 264 293 264 293 291 282 c 128,-1,69
 318 271 318 271 337.5 251.5 c 128,-1,70
 357 232 357 232 368 205 c 128,-1,71
 379 178 379 178 379 147 c 0,72,73
 379 112 379 112 367 84 c 128,-1,74
 355 56 355 56 334 35.5 c 128,-1,75
 313 15 313 15 283.5 4 c 128,-1,76
 254 -7 254 -7 219 -7 c 0,77,78
 180 -7 180 -7 148 8 c 128,-1,79
 116 23 116 23 93 50.5 c 128,-1,80
 70 78 70 78 57 117.5 c 128,-1,81
 44 157 44 157 44 207 c 0,82,83
 44 280 44 280 71.5 335 c 128,-1,84
 99 390 99 390 145.5 427 c 128,-1,85
 192 464 192 464 252.5 482 c 128,-1,86
 313 500 313 500 379 500 c 0,0,1
1065 172 m 0,87,88
 1065 206 1065 206 1057.5 235 c 128,-1,89
 1050 264 1050 264 1038 287.5 c 128,-1,90
 1026 311 1026 311 1011.5 329 c 128,-1,91
 997 347 997 347 984 359 c 1,92,93
 970 347 970 347 956.5 329 c 128,-1,94
 943 311 943 311 931.5 287.5 c 128,-1,95
 920 264 920 264 913 235 c 128,-1,96
 906 206 906 206 906 172 c 0,97,98
 906 120 906 120 926 89 c 128,-1,99
 946 58 946 58 987 58 c 0,100,101
 1024 58 1024 58 1044.5 89 c 128,-1,102
 1065 120 1065 120 1065 172 c 0,87,88
680 172 m 0,103,104
 680 205 680 205 672.5 234 c 128,-1,105
 665 263 665 263 653 287 c 128,-1,106
 641 311 641 311 626.5 329 c 128,-1,107
 612 347 612 347 598 359 c 1,108,109
 584 347 584 347 570.5 329 c 128,-1,110
 557 311 557 311 546 287.5 c 128,-1,111
 535 264 535 264 528 235 c 128,-1,112
 521 206 521 206 521 172 c 0,113,114
 521 120 521 120 541 89 c 128,-1,115
 561 58 561 58 602 58 c 0,116,117
 639 58 639 58 659.5 89 c 128,-1,118
 680 120 680 120 680 172 c 0,103,104
217 230 m 0,119,120
 198 230 198 230 182.5 223.5 c 128,-1,121
 167 217 167 217 154 206 c 128,-1,122
 141 195 141 195 132 181.5 c 128,-1,123
 123 168 123 168 117 153 c 1,124,125
 126 105 126 105 155 80.5 c 128,-1,126
 184 56 184 56 219 56 c 0,127,128
 258 56 258 56 281.5 81 c 128,-1,129
 305 106 305 106 305 144 c 256,130,131
 305 182 305 182 282 206 c 128,-1,132
 259 230 259 230 217 230 c 0,119,120
EndSplineSet
EndChar

StartChar: Ta.tm
Encoding: 2980 2980 87
Width: 673
GlyphClass: 2
Flags: W
LayerCount: 2
Fore
SplineSet
559 495 m 1,0,-1
 559 433 l 1,1,-1
 409 433 l 1,2,-1
 409 293 l 1,3,-1
 425 293 l 2,4,5
 467 293 467 293 506.5 282 c 128,-1,6
 546 271 546 271 577 247.5 c 128,-1,7
 608 224 608 224 627 186.5 c 128,-1,8
 646 149 646 149 646 96 c 0,9,10
 646 37 646 37 623.5 -6.5 c 128,-1,11
 601 -50 601 -50 560 -79.5 c 128,-1,12
 519 -109 519 -109 462 -123.5 c 128,-1,13
 405 -138 405 -138 335 -138 c 2,14,-1
 144 -138 l 2,15,16
 112 -138 112 -138 98 -151.5 c 128,-1,17
 84 -165 84 -165 84 -187 c 0,18,19
 84 -204 84 -204 91.5 -220 c 128,-1,20
 99 -236 99 -236 108 -249 c 1,21,-1
 46 -282 l 1,22,23
 32 -264 32 -264 20 -238 c 128,-1,24
 8 -212 8 -212 8 -180 c 0,25,26
 8 -149 8 -149 18.5 -128.5 c 128,-1,27
 29 -108 29 -108 46 -96 c 128,-1,28
 63 -84 63 -84 84.5 -79 c 128,-1,29
 106 -74 106 -74 128 -74 c 2,30,-1
 330 -74 l 2,31,32
 451 -74 451 -74 510 -28.5 c 128,-1,33
 569 17 569 17 569 102 c 0,34,35
 569 165 569 165 529.5 197.5 c 128,-1,36
 490 230 490 230 424 230 c 2,37,-1
 409 230 l 1,38,-1
 409 146 l 2,39,40
 409 79 409 79 361 36 c 128,-1,41
 313 -7 313 -7 226 -7 c 0,42,43
 185 -7 185 -7 149.5 4 c 128,-1,44
 114 15 114 15 88 36 c 128,-1,45
 62 57 62 57 47 86.5 c 128,-1,46
 32 116 32 116 32 153 c 0,47,48
 32 180 32 180 40 202 c 128,-1,49
 48 224 48 224 61.5 240.5 c 128,-1,50
 75 257 75 257 92.5 268 c 128,-1,51
 110 279 110 279 129 283 c 1,52,-1
 129 495 l 1,53,-1
 559 495 l 1,0,-1
197 230 m 2,54,55
 155 230 155 230 130 210 c 128,-1,56
 105 190 105 190 105 152 c 0,57,58
 105 109 105 109 139 82.5 c 128,-1,59
 173 56 173 56 230 56 c 0,60,61
 281 56 281 56 309 82.5 c 128,-1,62
 337 109 337 109 337 156 c 2,63,-1
 337 230 l 1,64,-1
 197 230 l 2,54,55
201 293 m 1,65,-1
 337 293 l 1,66,-1
 337 433 l 1,67,-1
 201 433 l 1,68,-1
 201 293 l 1,65,-1
EndSplineSet
EndChar

StartChar: Na.tm
Encoding: 2984 2984 88
Width: 687
GlyphClass: 2
Flags: W
LayerCount: 2
Fore
SplineSet
500 318 m 0,0,1
 568 318 568 318 611.5 267 c 128,-1,2
 655 216 655 216 655 118 c 0,3,4
 655 61 655 61 633.5 14 c 128,-1,5
 612 -33 612 -33 572 -66.5 c 128,-1,6
 532 -100 532 -100 473.5 -119 c 128,-1,7
 415 -138 415 -138 342 -138 c 2,8,-1
 164 -138 l 2,9,10
 132 -138 132 -138 118 -151.5 c 128,-1,11
 104 -165 104 -165 104 -187 c 0,12,13
 104 -204 104 -204 111.5 -220 c 128,-1,14
 119 -236 119 -236 128 -249 c 1,15,-1
 66 -282 l 1,16,17
 52 -264 52 -264 40 -238 c 128,-1,18
 28 -212 28 -212 28 -180 c 0,19,20
 28 -149 28 -149 38.5 -128.5 c 128,-1,21
 49 -108 49 -108 66 -96 c 128,-1,22
 83 -84 83 -84 104.5 -79 c 128,-1,23
 126 -74 126 -74 148 -74 c 2,24,-1
 338 -74 l 2,25,26
 398 -74 398 -74 442.5 -60 c 128,-1,27
 487 -46 487 -46 517 -20.5 c 128,-1,28
 547 5 547 5 562 40.5 c 128,-1,29
 577 76 577 76 577 118 c 0,30,31
 577 185 577 185 552 220.5 c 128,-1,32
 527 256 527 256 479 256 c 0,33,34
 450 256 450 256 425.5 236.5 c 128,-1,35
 401 217 401 217 390 184 c 1,36,-1
 390 0 l 1,37,-1
 314 0 l 1,38,-1
 314 433 l 1,39,-1
 148 433 l 1,40,-1
 148 0 l 1,41,-1
 73 0 l 1,42,-1
 73 495 l 1,43,-1
 580 495 l 1,44,-1
 580 433 l 1,45,-1
 390 433 l 1,46,-1
 390 265 l 1,47,48
 404 286 404 286 433.5 302 c 128,-1,49
 463 318 463 318 500 318 c 0,0,1
EndSplineSet
EndChar

StartChar: Nnna.tm
Encoding: 2985 2985 89
Width: 1050
GlyphClass: 2
Flags: W
LayerCount: 2
Fore
SplineSet
376 500 m 0,0,1
 442 500 442 500 499.5 480 c 128,-1,2
 557 460 557 460 595 434 c 1,3,4
 628 457 628 457 685 476 c 128,-1,5
 742 495 742 495 818 495 c 2,6,-1
 1059 495 l 1,7,-1
 1059 433 l 1,8,-1
 945 433 l 1,9,-1
 945 0 l 1,10,-1
 871 0 l 1,11,-1
 871 432 l 1,12,-1
 811 432 l 2,13,14
 701 432 701 432 648 396 c 1,15,16
 669 377 669 377 688.5 354.5 c 128,-1,17
 708 332 708 332 723 305 c 128,-1,18
 738 278 738 278 746.5 244.5 c 128,-1,19
 755 211 755 211 755 170 c 0,20,21
 755 86 755 86 713 39.5 c 128,-1,22
 671 -7 671 -7 599 -7 c 0,23,24
 530 -7 530 -7 488 39.5 c 128,-1,25
 446 86 446 86 446 169 c 0,26,27
 446 209 446 209 454 241.5 c 128,-1,28
 462 274 462 274 476 301 c 128,-1,29
 490 328 490 328 507.5 350.5 c 128,-1,30
 525 373 525 373 545 392 c 1,31,32
 520 406 520 406 478 421 c 128,-1,33
 436 436 436 436 372 436 c 0,34,35
 319 436 319 436 274 422.5 c 128,-1,36
 229 409 229 409 195.5 383 c 128,-1,37
 162 357 162 357 140.5 320 c 128,-1,38
 119 283 119 283 115 235 c 1,39,40
 134 261 134 261 164.5 277 c 128,-1,41
 195 293 195 293 232 293 c 0,42,43
 264 293 264 293 291 282 c 128,-1,44
 318 271 318 271 337.5 251.5 c 128,-1,45
 357 232 357 232 368 205 c 128,-1,46
 379 178 379 178 379 147 c 0,47,48
 379 112 379 112 367 84 c 128,-1,49
 355 56 355 56 334 35.5 c 128,-1,50
 313 15 313 15 283.5 4 c 128,-1,51
 254 -7 254 -7 219 -7 c 0,52,53
 180 -7 180 -7 148 8 c 128,-1,54
 116 23 116 23 93 50.5 c 128,-1,55
 70 78 70 78 57 117.5 c 128,-1,56
 44 157 44 157 44 207 c 0,57,58
 44 280 44 280 71 335 c 128,-1,59
 98 390 98 390 143.5 426.5 c 128,-1,60
 189 463 189 463 249 481.5 c 128,-1,61
 309 500 309 500 376 500 c 0,0,1
680 172 m 0,62,63
 680 207 680 207 672 236.5 c 128,-1,64
 664 266 664 266 652 289 c 128,-1,65
 640 312 640 312 625.5 329 c 128,-1,66
 611 346 611 346 598 357 c 1,67,68
 586 346 586 346 572.5 329 c 128,-1,69
 559 312 559 312 547.5 289 c 128,-1,70
 536 266 536 266 528.5 237 c 128,-1,71
 521 208 521 208 521 172 c 0,72,73
 521 120 521 120 541 89 c 128,-1,74
 561 58 561 58 602 58 c 0,75,76
 639 58 639 58 659.5 89 c 128,-1,77
 680 120 680 120 680 172 c 0,62,63
217 230 m 0,78,79
 198 230 198 230 182.5 223.5 c 128,-1,80
 167 217 167 217 154 206 c 128,-1,81
 141 195 141 195 132 181.5 c 128,-1,82
 123 168 123 168 117 153 c 1,83,84
 126 105 126 105 155 80.5 c 128,-1,85
 184 56 184 56 219 56 c 0,86,87
 258 56 258 56 281.5 81 c 128,-1,88
 305 106 305 106 305 144 c 256,89,90
 305 182 305 182 282 206 c 128,-1,91
 259 230 259 230 217 230 c 0,78,79
EndSplineSet
EndChar

StartChar: Pa.tm
Encoding: 2986 2986 90
Width: 661
GlyphClass: 2
Flags: W
LayerCount: 2
Fore
SplineSet
150 495 m 1,0,-1
 150 66 l 1,1,-1
 511 66 l 1,2,-1
 511 495 l 1,3,-1
 588 495 l 1,4,-1
 588 0 l 1,5,-1
 73 0 l 1,6,-1
 73 495 l 1,7,-1
 150 495 l 1,0,-1
EndSplineSet
EndChar

StartChar: Ma.tm
Encoding: 2990 2990 91
Width: 719
GlyphClass: 2
Flags: W
LayerCount: 2
Fore
SplineSet
147 495 m 1,0,-1
 147 63 l 1,1,-1
 321 63 l 1,2,-1
 321 340 l 2,3,4
 321 414 321 414 364 457 c 128,-1,5
 407 500 407 500 481 500 c 0,6,7
 517 500 517 500 551 485.5 c 128,-1,8
 585 471 585 471 612 440 c 128,-1,9
 639 409 639 409 655 362 c 128,-1,10
 671 315 671 315 671 251 c 0,11,12
 671 192 671 192 656 145.5 c 128,-1,13
 641 99 641 99 609.5 67 c 128,-1,14
 578 35 578 35 529 17.5 c 128,-1,15
 480 0 480 0 412 0 c 2,16,-1
 73 0 l 1,17,-1
 73 495 l 1,18,-1
 147 495 l 1,0,-1
395 63 m 1,19,-1
 420 63 l 2,20,21
 467 63 467 63 500.5 76.5 c 128,-1,22
 534 90 534 90 555 114 c 128,-1,23
 576 138 576 138 585.5 172.5 c 128,-1,24
 595 207 595 207 595 249 c 0,25,26
 595 344 595 344 560.5 389 c 128,-1,27
 526 434 526 434 478 434 c 0,28,29
 441 434 441 434 418 411.5 c 128,-1,30
 395 389 395 389 395 336 c 2,31,-1
 395 63 l 1,19,-1
EndSplineSet
EndChar

StartChar: Ya.tm
Encoding: 2991 2991 92
Width: 817
GlyphClass: 2
Flags: W
LayerCount: 2
Fore
SplineSet
144 495 m 1,0,-1
 144 137 l 2,1,2
 144 100 144 100 161.5 80 c 128,-1,3
 179 60 179 60 215 60 c 0,4,5
 232 60 232 60 247 67 c 128,-1,6
 262 74 262 74 274.5 84.5 c 128,-1,7
 287 95 287 95 296.5 108.5 c 128,-1,8
 306 122 306 122 312 134 c 1,9,-1
 312 495 l 1,10,-1
 388 495 l 1,11,-1
 388 65 l 1,12,-1
 668 65 l 1,13,-1
 668 495 l 1,14,-1
 744 495 l 1,15,-1
 744 0 l 1,16,-1
 332 0 l 1,17,-1
 320 59 l 1,18,19
 316 51 316 51 306 40 c 128,-1,20
 296 29 296 29 281 18.5 c 128,-1,21
 266 8 266 8 246 0.5 c 128,-1,22
 226 -7 226 -7 202 -7 c 0,23,24
 69 -7 69 -7 69 140 c 2,25,-1
 69 495 l 1,26,-1
 144 495 l 1,0,-1
EndSplineSet
EndChar

StartChar: Ra.tm
Encoding: 2992 2992 93
Width: 508
GlyphClass: 2
Flags: W
LayerCount: 2
Fore
SplineSet
508 495 m 1,0,-1
 508 432 l 1,1,-1
 403 432 l 1,2,-1
 403 11 l 1,3,-1
 240 -173 l 1,4,-1
 187 -123 l 1,5,-1
 326 33 l 1,6,-1
 326 432 l 1,7,-1
 149 432 l 1,8,-1
 149 0 l 1,9,-1
 73 0 l 1,10,-1
 73 495 l 1,11,-1
 508 495 l 1,0,-1
EndSplineSet
Substitution2: "'ss02' Style Set 2 lookup 16 subtable" RaAltMatraAa.tm
EndChar

StartChar: Rra.tm
Encoding: 2993 2993 94
Width: 712
GlyphClass: 2
Flags: W
LayerCount: 2
Fore
SplineSet
217 500 m 0,0,1
 241 500 241 500 261.5 492.5 c 128,-1,2
 282 485 282 485 298 473 c 128,-1,3
 314 461 314 461 325 446 c 128,-1,4
 336 431 336 431 341 416 c 1,5,6
 345 431 345 431 354 446 c 128,-1,7
 363 461 363 461 378 473 c 128,-1,8
 393 485 393 485 414.5 492.5 c 128,-1,9
 436 500 436 500 463 500 c 0,10,11
 498 500 498 500 533 483 c 128,-1,12
 568 466 568 466 596.5 429 c 128,-1,13
 625 392 625 392 642.5 334.5 c 128,-1,14
 660 277 660 277 660 195 c 0,15,16
 660 32 660 32 577 -53 c 128,-1,17
 494 -138 494 -138 325 -138 c 2,18,-1
 157 -138 l 2,19,20
 125 -138 125 -138 111 -151.5 c 128,-1,21
 97 -165 97 -165 97 -187 c 0,22,23
 97 -204 97 -204 104.5 -220 c 128,-1,24
 112 -236 112 -236 121 -249 c 1,25,-1
 59 -282 l 1,26,27
 45 -264 45 -264 33 -238 c 128,-1,28
 21 -212 21 -212 21 -180 c 0,29,30
 21 -149 21 -149 31.5 -128.5 c 128,-1,31
 42 -108 42 -108 59 -96 c 128,-1,32
 76 -84 76 -84 97.5 -79 c 128,-1,33
 119 -74 119 -74 141 -74 c 2,34,-1
 335 -74 l 2,35,36
 465 -74 465 -74 524 -3.5 c 128,-1,37
 583 67 583 67 583 198 c 0,38,39
 583 263 583 263 571.5 308 c 128,-1,40
 560 353 560 353 541.5 381 c 128,-1,41
 523 409 523 409 500 421.5 c 128,-1,42
 477 434 477 434 454 434 c 0,43,44
 416 434 416 434 396.5 410.5 c 128,-1,45
 377 387 377 387 377 343 c 2,46,-1
 377 0 l 1,47,-1
 303 0 l 1,48,-1
 303 336 l 2,49,50
 303 378 303 378 282 406 c 128,-1,51
 261 434 261 434 219 434 c 0,52,53
 180 434 180 434 162 409.5 c 128,-1,54
 144 385 144 385 144 340 c 2,55,-1
 144 0 l 1,56,-1
 70 0 l 1,57,-1
 70 333 l 2,58,59
 70 422 70 422 111.5 461 c 128,-1,60
 153 500 153 500 217 500 c 0,0,1
EndSplineSet
EndChar

StartChar: La.tm
Encoding: 2994 2994 95
Width: 880
GlyphClass: 2
Flags: W
LayerCount: 2
Fore
SplineSet
307 500 m 0,0,1
 355 500 355 500 399 483.5 c 128,-1,2
 443 467 443 467 476.5 434 c 128,-1,3
 510 401 510 401 530 350.5 c 128,-1,4
 550 300 550 300 550 232 c 2,5,-1
 550 186 l 2,6,7
 550 58 550 58 650 58 c 0,8,9
 700 58 700 58 730 99.5 c 128,-1,10
 760 141 760 141 760 215 c 0,11,12
 760 257 760 257 750 292 c 128,-1,13
 740 327 740 327 722 356 c 128,-1,14
 704 385 704 385 680.5 407.5 c 128,-1,15
 657 430 657 430 630 445 c 1,16,-1
 670 504 l 1,17,18
 700 487 700 487 730 460 c 128,-1,19
 760 433 760 433 783.5 397 c 128,-1,20
 807 361 807 361 822 315.5 c 128,-1,21
 837 270 837 270 837 215 c 0,22,23
 837 164 837 164 823.5 123 c 128,-1,24
 810 82 810 82 785 53 c 128,-1,25
 760 24 760 24 725 8.5 c 128,-1,26
 690 -7 690 -7 647 -7 c 0,27,28
 561 -7 561 -7 517 44.5 c 128,-1,29
 473 96 473 96 473 183 c 2,30,-1
 473 226 l 2,31,32
 473 329 473 329 429 382 c 128,-1,33
 385 435 385 435 301 435 c 256,34,35
 217 435 217 435 165.5 381.5 c 128,-1,36
 114 328 114 328 113 226 c 1,37,38
 130 255 130 255 163 274 c 128,-1,39
 196 293 196 293 236 293 c 0,40,41
 268 293 268 293 295 282 c 128,-1,42
 322 271 322 271 341.5 251.5 c 128,-1,43
 361 232 361 232 372 205 c 128,-1,44
 383 178 383 178 383 147 c 0,45,46
 383 112 383 112 371 84 c 128,-1,47
 359 56 359 56 338 35.5 c 128,-1,48
 317 15 317 15 287.5 4 c 128,-1,49
 258 -7 258 -7 223 -7 c 0,50,51
 184 -7 184 -7 152 8 c 128,-1,52
 120 23 120 23 97 52 c 128,-1,53
 74 81 74 81 61 123 c 128,-1,54
 48 165 48 165 48 219 c 0,55,56
 48 291 48 291 68.5 344 c 128,-1,57
 89 397 89 397 124.5 431.5 c 128,-1,58
 160 466 160 466 207 483 c 128,-1,59
 254 500 254 500 307 500 c 0,0,1
221 230 m 0,60,61
 202 230 202 230 186.5 223.5 c 128,-1,62
 171 217 171 217 158 206 c 128,-1,63
 145 195 145 195 136 181.5 c 128,-1,64
 127 168 127 168 121 153 c 1,65,66
 130 105 130 105 159 80.5 c 128,-1,67
 188 56 188 56 223 56 c 0,68,69
 262 56 262 56 285.5 81 c 128,-1,70
 309 106 309 106 309 144 c 256,71,72
 309 182 309 182 286 206 c 128,-1,73
 263 230 263 230 221 230 c 0,60,61
EndSplineSet
EndChar

StartChar: Lla.tm
Encoding: 2995 2995 96
Width: 917
GlyphClass: 2
Flags: W
LayerCount: 2
Fore
SplineSet
919 496 m 1,0,-1
 919 432 l 1,1,-1
 812 432 l 1,2,-1
 812 0 l 1,3,-1
 737 0 l 1,4,-1
 737 432 l 1,5,-1
 567 432 l 1,6,-1
 567 0 l 1,7,-1
 494 0 l 1,8,-1
 494 249 l 1,9,10
 484 339 484 339 433 387 c 128,-1,11
 382 435 382 435 303 435 c 0,12,13
 223 435 223 435 172 382 c 128,-1,14
 121 329 121 329 118 229 c 1,15,16
 136 258 136 258 168 275.5 c 128,-1,17
 200 293 200 293 239 293 c 0,18,19
 271 293 271 293 298 282 c 128,-1,20
 325 271 325 271 344.5 251.5 c 128,-1,21
 364 232 364 232 375 205 c 128,-1,22
 386 178 386 178 386 147 c 0,23,24
 386 112 386 112 374 84 c 128,-1,25
 362 56 362 56 341 35.5 c 128,-1,26
 320 15 320 15 290.5 4 c 128,-1,27
 261 -7 261 -7 226 -7 c 0,28,29
 187 -7 187 -7 154.5 9 c 128,-1,30
 122 25 122 25 99 54.5 c 128,-1,31
 76 84 76 84 63.5 125.5 c 128,-1,32
 51 167 51 167 51 218 c 0,33,34
 51 285 51 285 71 337.5 c 128,-1,35
 91 390 91 390 125.5 426 c 128,-1,36
 160 462 160 462 206.5 481 c 128,-1,37
 253 500 253 500 306 500 c 0,38,39
 343 500 343 500 374 490.5 c 128,-1,40
 405 481 405 481 429 466 c 128,-1,41
 453 451 453 451 470.5 432 c 128,-1,42
 488 413 488 413 497 393 c 1,43,-1
 497 496 l 1,44,-1
 919 496 l 1,0,-1
224 230 m 0,45,46
 205 230 205 230 189.5 223.5 c 128,-1,47
 174 217 174 217 161 206 c 128,-1,48
 148 195 148 195 139 181.5 c 128,-1,49
 130 168 130 168 124 153 c 1,50,51
 133 105 133 105 162 80.5 c 128,-1,52
 191 56 191 56 226 56 c 0,53,54
 265 56 265 56 288.5 81 c 128,-1,55
 312 106 312 106 312 144 c 256,56,57
 312 182 312 182 289 206 c 128,-1,58
 266 230 266 230 224 230 c 0,45,46
EndSplineSet
EndChar

StartChar: Llla.tm
Encoding: 2996 2996 97
Width: 719
GlyphClass: 2
Flags: W
LayerCount: 2
Fore
SplineSet
147 495 m 1,0,-1
 147 63 l 1,1,-1
 321 63 l 1,2,-1
 321 340 l 2,3,4
 321 414 321 414 364 457 c 128,-1,5
 407 500 407 500 481 500 c 0,6,7
 517 500 517 500 551 485.5 c 128,-1,8
 585 471 585 471 612 440 c 128,-1,9
 639 409 639 409 655 362 c 128,-1,10
 671 315 671 315 671 251 c 0,11,12
 671 192 671 192 656 145.5 c 128,-1,13
 641 99 641 99 609.5 67 c 128,-1,14
 578 35 578 35 529 17.5 c 128,-1,15
 480 0 480 0 412 0 c 2,16,-1
 393 0 l 1,17,-1
 393 -5 l 2,18,19
 393 -36 393 -36 411 -52 c 128,-1,20
 429 -68 429 -68 459 -68 c 2,21,-1
 587 -68 l 1,22,-1
 587 -129 l 1,23,-1
 532 -129 l 2,24,25
 497 -129 497 -129 475.5 -142.5 c 128,-1,26
 454 -156 454 -156 432 -184 c 0,27,28
 417 -203 417 -203 401 -220.5 c 128,-1,29
 385 -238 385 -238 365.5 -251.5 c 128,-1,30
 346 -265 346 -265 323 -273 c 128,-1,31
 300 -281 300 -281 270 -281 c 0,32,33
 209 -281 209 -281 168 -246.5 c 128,-1,34
 127 -212 127 -212 127 -150 c 0,35,36
 127 -120 127 -120 140 -94.5 c 128,-1,37
 153 -69 153 -69 170 -55 c 1,38,-1
 225 -94 l 1,39,40
 215 -103 215 -103 208 -118.5 c 128,-1,41
 201 -134 201 -134 201 -151 c 0,42,43
 201 -182 201 -182 221.5 -199.5 c 128,-1,44
 242 -217 242 -217 273 -217 c 0,45,46
 303 -217 303 -217 323.5 -202 c 128,-1,47
 344 -187 344 -187 361 -166 c 0,48,49
 373 -151 373 -151 386 -137 c 128,-1,50
 399 -123 399 -123 416 -118 c 1,51,52
 377 -110 377 -110 349 -81 c 128,-1,53
 321 -52 321 -52 321 -6 c 2,54,-1
 321 0 l 1,55,-1
 73 0 l 1,56,-1
 73 495 l 1,57,-1
 147 495 l 1,0,-1
395 63 m 1,58,-1
 420 63 l 2,59,60
 467 63 467 63 500.5 76.5 c 128,-1,61
 534 90 534 90 555 114 c 128,-1,62
 576 138 576 138 585.5 172.5 c 128,-1,63
 595 207 595 207 595 249 c 0,64,65
 595 344 595 344 560.5 389 c 128,-1,66
 526 434 526 434 478 434 c 0,67,68
 441 434 441 434 418 411.5 c 128,-1,69
 395 389 395 389 395 336 c 2,70,-1
 395 63 l 1,58,-1
EndSplineSet
EndChar

StartChar: Va.tm
Encoding: 2997 2997 98
Width: 879
GlyphClass: 2
Flags: W
LayerCount: 2
Fore
SplineSet
326 500 m 0,0,1
 383 500 383 500 432 480.5 c 128,-1,2
 481 461 481 461 517 425.5 c 128,-1,3
 553 390 553 390 573.5 341 c 128,-1,4
 594 292 594 292 594 233 c 0,5,6
 594 206 594 206 589.5 180 c 128,-1,7
 585 154 585 154 578 131.5 c 128,-1,8
 571 109 571 109 562.5 91.5 c 128,-1,9
 554 74 554 74 547 63 c 1,10,-1
 732 63 l 1,11,-1
 732 495 l 1,12,-1
 806 495 l 1,13,-1
 806 0 l 1,14,-1
 482 0 l 1,15,-1
 459 48 l 1,16,17
 488 84 488 84 502.5 130.5 c 128,-1,18
 517 177 517 177 517 228 c 0,19,20
 517 274 517 274 503.5 312 c 128,-1,21
 490 350 490 350 464.5 377 c 128,-1,22
 439 404 439 404 403 419 c 128,-1,23
 367 434 367 434 321 434 c 0,24,25
 274 434 274 434 236 419 c 128,-1,26
 198 404 198 404 171 377 c 128,-1,27
 144 350 144 350 128.5 311.5 c 128,-1,28
 113 273 113 273 112 227 c 1,29,30
 130 256 130 256 162 274.5 c 128,-1,31
 194 293 194 293 234 293 c 0,32,33
 266 293 266 293 293 282 c 128,-1,34
 320 271 320 271 339.5 251.5 c 128,-1,35
 359 232 359 232 370 205 c 128,-1,36
 381 178 381 178 381 147 c 0,37,38
 381 112 381 112 369 84 c 128,-1,39
 357 56 357 56 336 35.5 c 128,-1,40
 315 15 315 15 285.5 4 c 128,-1,41
 256 -7 256 -7 221 -7 c 0,42,43
 182 -7 182 -7 150 9 c 128,-1,44
 118 25 118 25 95 54.5 c 128,-1,45
 72 84 72 84 59 125.5 c 128,-1,46
 46 167 46 167 46 217 c 0,47,48
 46 280 46 280 67 332.5 c 128,-1,49
 88 385 88 385 125 422 c 128,-1,50
 162 459 162 459 213.5 479.5 c 128,-1,51
 265 500 265 500 326 500 c 0,0,1
219 230 m 0,52,53
 200 230 200 230 184.5 223.5 c 128,-1,54
 169 217 169 217 156 206 c 128,-1,55
 143 195 143 195 134 181.5 c 128,-1,56
 125 168 125 168 119 153 c 1,57,58
 128 105 128 105 157 80.5 c 128,-1,59
 186 56 186 56 221 56 c 0,60,61
 260 56 260 56 283.5 81 c 128,-1,62
 307 106 307 106 307 144 c 256,63,64
 307 182 307 182 284 206 c 128,-1,65
 261 230 261 230 219 230 c 0,52,53
EndSplineSet
EndChar

StartChar: Sha.tm
Encoding: 2998 2998 99
Width: 948
GlyphClass: 2
Flags: W
LayerCount: 2
Fore
SplineSet
143 177 m 2,0,1
 143 117 143 117 165.5 87 c 128,-1,2
 188 57 188 57 238 57 c 0,3,4
 286 57 286 57 307.5 87.5 c 128,-1,5
 329 118 329 118 329 177 c 2,6,-1
 329 495 l 1,7,-1
 880 495 l 1,8,-1
 880 173 l 2,9,10
 880 82 880 82 834 37.5 c 128,-1,11
 788 -7 788 -7 707 -7 c 0,12,13
 627 -7 627 -7 584 37.5 c 128,-1,14
 541 82 541 82 541 173 c 2,15,-1
 541 434 l 1,16,-1
 403 434 l 1,17,-1
 403 174 l 2,18,19
 403 83 403 83 359.5 38 c 128,-1,20
 316 -7 316 -7 234 -7 c 0,21,22
 153 -7 153 -7 110.5 37.5 c 128,-1,23
 68 82 68 82 68 174 c 2,24,-1
 68 495 l 1,25,-1
 143 495 l 1,26,-1
 143 177 l 2,0,1
615 434 m 1,27,-1
 615 176 l 2,28,29
 615 116 615 116 637.5 86.5 c 128,-1,30
 660 57 660 57 711 57 c 0,31,32
 760 57 760 57 783 87.5 c 128,-1,33
 806 118 806 118 806 176 c 2,34,-1
 806 434 l 1,35,-1
 615 434 l 1,27,-1
EndSplineSet
EndChar

StartChar: Ssa.tm
Encoding: 2999 2999 100
Width: 1097
GlyphClass: 2
Flags: W
LayerCount: 2
Fore
SplineSet
326 500 m 0,0,1
 384 500 384 500 433 480.5 c 128,-1,2
 482 461 482 461 518 425.5 c 128,-1,3
 554 390 554 390 574 341 c 128,-1,4
 594 292 594 292 594 233 c 0,5,6
 594 206 594 206 589.5 180 c 128,-1,7
 585 154 585 154 578 131.5 c 128,-1,8
 571 109 571 109 562.5 91.5 c 128,-1,9
 554 74 554 74 547 63 c 1,10,-1
 743 63 l 1,11,-1
 824 231 l 1,12,13
 746 232 746 232 700 268 c 128,-1,14
 654 304 654 304 654 366 c 0,15,16
 654 397 654 397 666 422 c 128,-1,17
 678 447 678 447 698.5 464.5 c 128,-1,18
 719 482 719 482 746 491 c 128,-1,19
 773 500 773 500 803 500 c 0,20,21
 834 500 834 500 860 490.5 c 128,-1,22
 886 481 886 481 905.5 463.5 c 128,-1,23
 925 446 925 446 936 421.5 c 128,-1,24
 947 397 947 397 947 368 c 0,25,26
 947 348 947 348 940.5 328 c 128,-1,27
 934 308 934 308 925 288 c 1,28,29
 995 283 995 283 1038 250 c 128,-1,30
 1081 217 1081 217 1081 151 c 0,31,32
 1081 82 1081 82 1030 41 c 128,-1,33
 979 0 979 0 881 0 c 2,34,-1
 794 0 l 1,35,-1
 698 -201 l 1,36,-1
 634 -171 l 1,37,-1
 717 0 l 1,38,-1
 482 0 l 1,39,-1
 459 48 l 1,40,41
 488 84 488 84 502.5 130.5 c 128,-1,42
 517 177 517 177 517 228 c 0,43,44
 517 274 517 274 503.5 312 c 128,-1,45
 490 350 490 350 465 377 c 128,-1,46
 440 404 440 404 403.5 419 c 128,-1,47
 367 434 367 434 321 434 c 0,48,49
 274 434 274 434 236 419 c 128,-1,50
 198 404 198 404 171 377 c 128,-1,51
 144 350 144 350 128.5 311.5 c 128,-1,52
 113 273 113 273 112 227 c 1,53,54
 130 256 130 256 162 274.5 c 128,-1,55
 194 293 194 293 234 293 c 0,56,57
 266 293 266 293 293 282 c 128,-1,58
 320 271 320 271 339.5 251.5 c 128,-1,59
 359 232 359 232 370 205 c 128,-1,60
 381 178 381 178 381 147 c 0,61,62
 381 112 381 112 369 84 c 128,-1,63
 357 56 357 56 336 35.5 c 128,-1,64
 315 15 315 15 285.5 4 c 128,-1,65
 256 -7 256 -7 221 -7 c 0,66,67
 182 -7 182 -7 150 9 c 128,-1,68
 118 25 118 25 95 54.5 c 128,-1,69
 72 84 72 84 59 125.5 c 128,-1,70
 46 167 46 167 46 217 c 0,71,72
 46 280 46 280 66.5 332.5 c 128,-1,73
 87 385 87 385 124.5 422 c 128,-1,74
 162 459 162 459 213 479.5 c 128,-1,75
 264 500 264 500 326 500 c 0,0,1
219 230 m 0,76,77
 200 230 200 230 184.5 223.5 c 128,-1,78
 169 217 169 217 156 206 c 128,-1,79
 143 195 143 195 134 181.5 c 128,-1,80
 125 168 125 168 119 153 c 1,81,82
 128 105 128 105 157 80.5 c 128,-1,83
 186 56 186 56 221 56 c 0,84,85
 260 56 260 56 283.5 81 c 128,-1,86
 307 106 307 106 307 144 c 256,87,88
 307 182 307 182 284 206 c 128,-1,89
 261 230 261 230 219 230 c 0,76,77
900 230 m 1,90,-1
 820 63 l 1,91,-1
 886 63 l 2,92,93
 949 63 949 63 977 89.5 c 128,-1,94
 1005 116 1005 116 1005 151 c 0,95,96
 1005 189 1005 189 978 209.5 c 128,-1,97
 951 230 951 230 903 230 c 2,98,-1
 900 230 l 1,90,-1
729 368 m 0,99,100
 729 331 729 331 758 311 c 128,-1,101
 787 291 787 291 843 291 c 2,102,-1
 850 291 l 1,103,104
 872 331 872 331 872 365 c 0,105,106
 872 394 872 394 852 414.5 c 128,-1,107
 832 435 832 435 800 435 c 0,108,109
 767 435 767 435 748 416 c 128,-1,110
 729 397 729 397 729 368 c 0,99,100
EndSplineSet
EndChar

StartChar: Sa.tm
Encoding: 3000 3000 101
Width: 1153
GlyphClass: 2
Flags: W
LayerCount: 2
Fore
SplineSet
315 500 m 0,0,1
 392 500 392 500 442.5 467 c 128,-1,2
 493 434 493 434 519 387 c 1,3,4
 533 434 533 434 567 467 c 128,-1,5
 601 500 601 500 661 500 c 0,6,7
 702 500 702 500 732 484 c 128,-1,8
 762 468 762 468 781.5 441 c 128,-1,9
 801 414 801 414 810 378.5 c 128,-1,10
 819 343 819 343 819 303 c 2,11,-1
 819 186 l 2,12,13
 819 121 819 121 845.5 89.5 c 128,-1,14
 872 58 872 58 922 58 c 0,15,16
 973 58 973 58 1003 100.5 c 128,-1,17
 1033 143 1033 143 1033 218 c 0,18,19
 1033 291 1033 291 1002.5 350.5 c 128,-1,20
 972 410 972 410 918 443 c 1,21,-1
 961 502 l 1,22,23
 1031 453 1031 453 1070.5 378.5 c 128,-1,24
 1110 304 1110 304 1110 218 c 0,25,26
 1110 167 1110 167 1096.5 125.5 c 128,-1,27
 1083 84 1083 84 1058 54.5 c 128,-1,28
 1033 25 1033 25 997.5 9 c 128,-1,29
 962 -7 962 -7 919 -7 c 0,30,31
 832 -7 832 -7 787.5 44.5 c 128,-1,32
 743 96 743 96 743 183 c 2,33,-1
 743 303 l 2,34,35
 743 331 743 331 738.5 355 c 128,-1,36
 734 379 734 379 723 396.5 c 128,-1,37
 712 414 712 414 694.5 424 c 128,-1,38
 677 434 677 434 652 434 c 0,39,40
 609 434 609 434 585 398.5 c 128,-1,41
 561 363 561 363 561 302 c 2,42,-1
 561 0 l 1,43,-1
 486 0 l 1,44,-1
 486 269 l 2,45,46
 486 309 486 309 473 340 c 128,-1,47
 460 371 460 371 436.5 392 c 128,-1,48
 413 413 413 413 380.5 423.5 c 128,-1,49
 348 434 348 434 310 434 c 0,50,51
 271 434 271 434 236 420 c 128,-1,52
 201 406 201 406 175 379 c 128,-1,53
 149 352 149 352 133 313.5 c 128,-1,54
 117 275 117 275 116 226 c 1,55,56
 133 255 133 255 166 274 c 128,-1,57
 199 293 199 293 239 293 c 0,58,59
 271 293 271 293 298 282 c 128,-1,60
 325 271 325 271 344.5 251.5 c 128,-1,61
 364 232 364 232 375 205 c 128,-1,62
 386 178 386 178 386 147 c 0,63,64
 386 112 386 112 374 84 c 128,-1,65
 362 56 362 56 341 35.5 c 128,-1,66
 320 15 320 15 290.5 4 c 128,-1,67
 261 -7 261 -7 226 -7 c 0,68,69
 185 -7 185 -7 152.5 9.5 c 128,-1,70
 120 26 120 26 97.5 55.5 c 128,-1,71
 75 85 75 85 63 126.5 c 128,-1,72
 51 168 51 168 51 219 c 0,73,74
 51 279 51 279 70 330 c 128,-1,75
 89 381 89 381 123.5 419 c 128,-1,76
 158 457 158 457 207 478.5 c 128,-1,77
 256 500 256 500 315 500 c 0,0,1
224 230 m 0,78,79
 205 230 205 230 189.5 223.5 c 128,-1,80
 174 217 174 217 161 206 c 128,-1,81
 148 195 148 195 139 181.5 c 128,-1,82
 130 168 130 168 124 153 c 1,83,84
 133 105 133 105 162 80.5 c 128,-1,85
 191 56 191 56 226 56 c 0,86,87
 265 56 265 56 288.5 81 c 128,-1,88
 312 106 312 106 312 144 c 256,89,90
 312 182 312 182 289 206 c 128,-1,91
 266 230 266 230 224 230 c 0,78,79
EndSplineSet
EndChar

StartChar: Ha.tm
Encoding: 3001 3001 102
Width: 1351
GlyphClass: 2
Flags: W
LayerCount: 2
Fore
SplineSet
856 500 m 0,0,1
 880 500 880 500 900.5 492.5 c 128,-1,2
 921 485 921 485 937 473 c 128,-1,3
 953 461 953 461 964 446 c 128,-1,4
 975 431 975 431 980 416 c 1,5,6
 984 431 984 431 993 446 c 128,-1,7
 1002 461 1002 461 1017 473 c 128,-1,8
 1032 485 1032 485 1053.5 492.5 c 128,-1,9
 1075 500 1075 500 1102 500 c 0,10,11
 1137 500 1137 500 1172 483 c 128,-1,12
 1207 466 1207 466 1235.5 429 c 128,-1,13
 1264 392 1264 392 1281.5 334.5 c 128,-1,14
 1299 277 1299 277 1299 195 c 0,15,16
 1299 32 1299 32 1216 -53.5 c 128,-1,17
 1133 -139 1133 -139 964 -139 c 2,18,-1
 158 -139 l 2,19,20
 126 -139 126 -139 112 -152.5 c 128,-1,21
 98 -166 98 -166 98 -188 c 0,22,23
 98 -205 98 -205 105.5 -221 c 128,-1,24
 113 -237 113 -237 122 -250 c 1,25,-1
 60 -283 l 1,26,27
 46 -265 46 -265 34 -239 c 128,-1,28
 22 -213 22 -213 22 -181 c 0,29,30
 22 -150 22 -150 32.5 -129.5 c 128,-1,31
 43 -109 43 -109 60 -97 c 128,-1,32
 77 -85 77 -85 98.5 -80 c 128,-1,33
 120 -75 120 -75 142 -75 c 2,34,-1
 974 -75 l 2,35,36
 1104 -75 1104 -75 1163 -4.5 c 128,-1,37
 1222 66 1222 66 1222 198 c 0,38,39
 1222 263 1222 263 1210.5 308 c 128,-1,40
 1199 353 1199 353 1180.5 381 c 128,-1,41
 1162 409 1162 409 1139 421.5 c 128,-1,42
 1116 434 1116 434 1092 434 c 0,43,44
 1054 434 1054 434 1035 410.5 c 128,-1,45
 1016 387 1016 387 1016 343 c 2,46,-1
 1016 0 l 1,47,-1
 942 0 l 1,48,-1
 942 336 l 2,49,50
 942 378 942 378 921 406 c 128,-1,51
 900 434 900 434 858 434 c 0,52,53
 820 434 820 434 801.5 409 c 128,-1,54
 783 384 783 384 783 340 c 2,55,-1
 783 0 l 1,56,-1
 482 0 l 1,57,-1
 459 48 l 1,58,59
 488 84 488 84 502.5 130.5 c 128,-1,60
 517 177 517 177 517 228 c 0,61,62
 517 274 517 274 503.5 312 c 128,-1,63
 490 350 490 350 465 377 c 128,-1,64
 440 404 440 404 403.5 419 c 128,-1,65
 367 434 367 434 321 434 c 0,66,67
 274 434 274 434 236 419 c 128,-1,68
 198 404 198 404 171 377 c 128,-1,69
 144 350 144 350 128.5 311.5 c 128,-1,70
 113 273 113 273 112 227 c 1,71,72
 130 256 130 256 162 274.5 c 128,-1,73
 194 293 194 293 234 293 c 0,74,75
 266 293 266 293 293 282 c 128,-1,76
 320 271 320 271 339.5 251.5 c 128,-1,77
 359 232 359 232 370 205 c 128,-1,78
 381 178 381 178 381 147 c 0,79,80
 381 112 381 112 369 84 c 128,-1,81
 357 56 357 56 336 35.5 c 128,-1,82
 315 15 315 15 285.5 4 c 128,-1,83
 256 -7 256 -7 221 -7 c 0,84,85
 182 -7 182 -7 150 9 c 128,-1,86
 118 25 118 25 95 54.5 c 128,-1,87
 72 84 72 84 59 125.5 c 128,-1,88
 46 167 46 167 46 217 c 0,89,90
 46 280 46 280 66.5 332.5 c 128,-1,91
 87 385 87 385 124.5 422 c 128,-1,92
 162 459 162 459 213 479.5 c 128,-1,93
 264 500 264 500 326 500 c 0,94,95
 384 500 384 500 433 480.5 c 128,-1,96
 482 461 482 461 518 425.5 c 128,-1,97
 554 390 554 390 574 341 c 128,-1,98
 594 292 594 292 594 233 c 0,99,100
 594 206 594 206 589.5 180 c 128,-1,101
 585 154 585 154 578 131.5 c 128,-1,102
 571 109 571 109 562.5 91.5 c 128,-1,103
 554 74 554 74 547 63 c 1,104,-1
 709 63 l 1,105,-1
 709 333 l 2,106,107
 709 422 709 422 750.5 461 c 128,-1,108
 792 500 792 500 856 500 c 0,0,1
219 230 m 0,109,110
 200 230 200 230 184.5 223.5 c 128,-1,111
 169 217 169 217 156 206 c 128,-1,112
 143 195 143 195 134 181.5 c 128,-1,113
 125 168 125 168 119 153 c 1,114,115
 128 105 128 105 157 80.5 c 128,-1,116
 186 56 186 56 221 56 c 0,117,118
 260 56 260 56 283.5 81 c 128,-1,119
 307 106 307 106 307 144 c 256,120,121
 307 182 307 182 284 206 c 128,-1,122
 261 230 261 230 219 230 c 0,109,110
EndSplineSet
EndChar

StartChar: RaAltMatraAa.tm
Encoding: 3006 3006 103
Width: 505
GlyphClass: 2
Flags: W
LayerCount: 2
Fore
SplineSet
505 495 m 1,0,-1
 505 432 l 1,1,-1
 400 432 l 1,2,-1
 400 0 l 1,3,-1
 323 0 l 1,4,-1
 323 432 l 1,5,-1
 148 432 l 1,6,-1
 148 0 l 1,7,-1
 73 0 l 1,8,-1
 73 495 l 1,9,-1
 505 495 l 1,0,-1
EndSplineSet
EndChar

StartChar: MatraIDflt.tm
Encoding: 3007 3007 104
Width: 0
GlyphClass: 2
Flags: W
LayerCount: 2
Fore
SplineSet
217 794 m 0,0,1
 311 794 311 794 366.5 735 c 128,-1,2
 422 676 422 676 422 567 c 2,3,-1
 422 0 l 1,4,-1
 348 0 l 1,5,-1
 348 559 l 2,6,7
 348 647 348 647 313 686 c 128,-1,8
 278 725 278 725 212 725 c 0,9,10
 152 725 152 725 113.5 687.5 c 128,-1,11
 75 650 75 650 75 585 c 0,12,13
 75 551 75 551 86.5 524 c 128,-1,14
 98 497 98 497 116 476 c 1,15,-1
 57 455 l 1,16,17
 35 475 35 475 18 511.5 c 128,-1,18
 1 548 1 548 1 593 c 0,19,20
 1 639 1 639 17 676 c 128,-1,21
 33 713 33 713 62 739.5 c 128,-1,22
 91 766 91 766 130.5 780 c 128,-1,23
 170 794 170 794 217 794 c 0,0,1
EndSplineSet
EndChar

StartChar: MatraIiDflt.tm
Encoding: 3008 3008 105
Width: 0
GlyphClass: 2
Flags: W
LayerCount: 2
Fore
SplineSet
207 796 m 0,0,1
 246 796 246 796 276 786.5 c 128,-1,2
 306 777 306 777 325.5 761 c 128,-1,3
 345 745 345 745 355 724.5 c 128,-1,4
 365 704 365 704 365 682 c 0,5,6
 365 657 365 657 355.5 637 c 128,-1,7
 346 617 346 617 330.5 603 c 128,-1,8
 315 589 315 589 293.5 581.5 c 128,-1,9
 272 574 272 574 248 574 c 0,10,11
 201 574 201 574 170 602 c 128,-1,12
 139 630 139 630 139 673 c 256,13,14
 139 716 139 716 170 744 c 1,15,16
 127 736 127 736 100 701.5 c 128,-1,17
 73 667 73 667 73 615 c 0,18,19
 73 573 73 573 93 538 c 128,-1,20
 113 503 113 503 140 486 c 1,21,-1
 80 471 l 1,22,23
 63 479 63 479 48.5 494.5 c 128,-1,24
 34 510 34 510 23.5 530 c 128,-1,25
 13 550 13 550 7 572.5 c 128,-1,26
 1 595 1 595 1 617 c 0,27,28
 1 661 1 661 18 694.5 c 128,-1,29
 35 728 35 728 63.5 750.5 c 128,-1,30
 92 773 92 773 129 784.5 c 128,-1,31
 166 796 166 796 207 796 c 0,0,1
301 683 m 0,32,33
 301 710 301 710 282.5 726 c 128,-1,34
 264 742 264 742 239 744 c 1,35,36
 221 736 221 736 209.5 719.5 c 128,-1,37
 198 703 198 703 198 682 c 0,38,39
 198 658 198 658 213 644 c 128,-1,40
 228 630 228 630 250 630 c 0,41,42
 271 630 271 630 286 643.5 c 128,-1,43
 301 657 301 657 301 683 c 0,32,33
EndSplineSet
EndChar

StartChar: MatraUDflt.tm
Encoding: 3009 3009 106
Width: 0
GlyphClass: 2
Flags: W
LayerCount: 2
Fore
SplineSet
328 500 m 2,0,1
 404 500 404 500 448 464.5 c 128,-1,2
 492 429 492 429 492 367 c 0,3,4
 492 342 492 342 482.5 319.5 c 128,-1,5
 473 297 473 297 455 280.5 c 128,-1,6
 437 264 437 264 412 254 c 128,-1,7
 387 244 387 244 356 244 c 0,8,9
 329 244 329 244 306 253 c 128,-1,10
 283 262 283 262 266.5 277.5 c 128,-1,11
 250 293 250 293 240.5 313.5 c 128,-1,12
 231 334 231 334 231 356 c 0,13,14
 231 382 231 382 240 402.5 c 128,-1,15
 249 423 249 423 265 437 c 1,16,-1
 1 437 l 1,17,-1
 1 500 l 1,18,-1
 328 500 l 2,0,1
417 367 m 0,19,20
 417 397 417 397 396 415.5 c 128,-1,21
 375 434 375 434 344 435 c 1,22,23
 321 424 321 424 310 405.5 c 128,-1,24
 299 387 299 387 299 365 c 0,25,26
 299 341 299 341 315.5 324 c 128,-1,27
 332 307 332 307 358 307 c 256,28,29
 384 307 384 307 400.5 324 c 128,-1,30
 417 341 417 341 417 367 c 0,19,20
EndSplineSet
EndChar

StartChar: MatraUuDflt.tm
Encoding: 3010 3010 107
Width: 1
GlyphClass: 2
Flags: W
LayerCount: 2
Fore
SplineSet
438 633 m 0,0,1
 491 633 491 633 533.5 616 c 128,-1,2
 576 599 576 599 606 569.5 c 128,-1,3
 636 540 636 540 652 499 c 128,-1,4
 668 458 668 458 668 410 c 0,5,6
 668 366 668 366 654 329 c 128,-1,7
 640 292 640 292 617.5 262.5 c 128,-1,8
 595 233 595 233 566.5 211.5 c 128,-1,9
 538 190 538 190 510 178 c 1,10,-1
 474 235 l 1,11,12
 498 247 498 247 519 264 c 128,-1,13
 540 281 540 281 556.5 303 c 128,-1,14
 573 325 573 325 582.5 351.5 c 128,-1,15
 592 378 592 378 592 410 c 0,16,17
 592 482 592 482 550.5 526 c 128,-1,18
 509 570 509 570 432 570 c 0,19,20
 390 570 390 570 355.5 550.5 c 128,-1,21
 321 531 321 531 307 499 c 1,22,-1
 311 499 l 2,23,24
 388 499 388 499 427.5 466 c 128,-1,25
 467 433 467 433 467 379 c 0,26,27
 467 355 467 355 457.5 333.5 c 128,-1,28
 448 312 448 312 431 296.5 c 128,-1,29
 414 281 414 281 390.5 272 c 128,-1,30
 367 263 367 263 339 263 c 0,31,32
 309 263 309 263 285 274.5 c 128,-1,33
 261 286 261 286 245 305 c 128,-1,34
 229 324 229 324 220.5 349 c 128,-1,35
 212 374 212 374 212 402 c 0,36,37
 212 420 212 420 215 437 c 1,38,-1
 1 437 l 1,39,-1
 1 500 l 1,40,-1
 232 500 l 1,41,42
 241 522 241 522 258.5 546 c 128,-1,43
 276 570 276 570 302 589 c 128,-1,44
 328 608 328 608 362 620.5 c 128,-1,45
 396 633 396 633 438 633 c 0,0,1
288 435 m 1,46,47
 283 417 283 417 283 399 c 0,48,49
 283 367 283 367 299 347 c 128,-1,50
 315 327 315 327 343 327 c 0,51,52
 366 327 366 327 379.5 342.5 c 128,-1,53
 393 358 393 358 393 379 c 0,54,55
 393 407 393 407 371 421 c 128,-1,56
 349 435 349 435 309 435 c 2,57,-1
 288 435 l 1,46,47
EndSplineSet
EndChar

StartChar: MatraE.tm
Encoding: 3014 3014 108
Width: 836
GlyphClass: 2
Flags: W
LayerCount: 2
Fore
SplineSet
404 733 m 0,0,1
 488 733 488 733 554.5 706 c 128,-1,2
 621 679 621 679 667.5 630.5 c 128,-1,3
 714 582 714 582 738.5 514 c 128,-1,4
 763 446 763 446 763 364 c 2,5,-1
 763 0 l 1,6,-1
 688 0 l 1,7,-1
 688 353 l 2,8,9
 688 505 688 505 614.5 585.5 c 128,-1,10
 541 666 541 666 401 666 c 0,11,12
 341 666 341 666 289.5 645 c 128,-1,13
 238 624 238 624 200 584.5 c 128,-1,14
 162 545 162 545 140 487 c 128,-1,15
 118 429 118 429 118 354 c 0,16,17
 118 287 118 287 138.5 231 c 128,-1,18
 159 175 159 175 196 135 c 128,-1,19
 233 95 233 95 282.5 72.5 c 128,-1,20
 332 50 332 50 391 50 c 2,21,-1
 407 50 l 1,22,23
 386 54 386 54 364.5 65 c 128,-1,24
 343 76 343 76 326.5 93.5 c 128,-1,25
 310 111 310 111 299.5 135 c 128,-1,26
 289 159 289 159 289 188 c 0,27,28
 289 222 289 222 301.5 249.5 c 128,-1,29
 314 277 314 277 335.5 297 c 128,-1,30
 357 317 357 317 386.5 328 c 128,-1,31
 416 339 416 339 451 339 c 0,32,33
 484 339 484 339 513.5 328 c 128,-1,34
 543 317 543 317 565.5 297 c 128,-1,35
 588 277 588 277 601 248 c 128,-1,36
 614 219 614 219 614 183 c 0,37,38
 614 138 614 138 594.5 103 c 128,-1,39
 575 68 575 68 542.5 44 c 128,-1,40
 510 20 510 20 467.5 7.5 c 128,-1,41
 425 -5 425 -5 378 -5 c 0,42,43
 307 -5 307 -5 245.5 20 c 128,-1,44
 184 45 184 45 138.5 91.5 c 128,-1,45
 93 138 93 138 66.5 204.5 c 128,-1,46
 40 271 40 271 40 354 c 0,47,48
 40 439 40 439 68 509 c 128,-1,49
 96 579 96 579 145 629 c 128,-1,50
 194 679 194 679 260.5 706 c 128,-1,51
 327 733 327 733 404 733 c 0,0,1
359 184 m 0,52,53
 359 160 359 160 369.5 140.5 c 128,-1,54
 380 121 380 121 398 107 c 128,-1,55
 416 93 416 93 438.5 85.5 c 128,-1,56
 461 78 461 78 485 78 c 1,57,58
 511 91 511 91 526 116.5 c 128,-1,59
 541 142 541 142 541 178 c 0,60,61
 541 221 541 221 514.5 247 c 128,-1,62
 488 273 488 273 449 273 c 256,63,64
 410 273 410 273 384.5 249 c 128,-1,65
 359 225 359 225 359 184 c 0,52,53
EndSplineSet
EndChar

StartChar: MatraEe.tm
Encoding: 3015 3015 109
Width: 681
GlyphClass: 2
Flags: W
LayerCount: 2
Fore
SplineSet
399 736 m 0,0,1
 451 736 451 736 497.5 721.5 c 128,-1,2
 544 707 544 707 578 681.5 c 128,-1,3
 612 656 612 656 632 620.5 c 128,-1,4
 652 585 652 585 652 543 c 0,5,6
 652 509 652 509 639 482 c 128,-1,7
 626 455 626 455 604 436.5 c 128,-1,8
 582 418 582 418 553.5 408 c 128,-1,9
 525 398 525 398 494 398 c 0,10,11
 462 398 462 398 434.5 408.5 c 128,-1,12
 407 419 407 419 386.5 438.5 c 128,-1,13
 366 458 366 458 354 484.5 c 128,-1,14
 342 511 342 511 342 543 c 0,15,16
 342 568 342 568 351.5 590.5 c 128,-1,17
 361 613 361 613 376 630 c 128,-1,18
 391 647 391 647 410 658 c 128,-1,19
 429 669 429 669 448 672 c 1,20,21
 435 674 435 674 423 674.5 c 128,-1,22
 411 675 411 675 400 675 c 0,23,24
 349 675 349 675 298.5 654.5 c 128,-1,25
 248 634 248 634 208 594.5 c 128,-1,26
 168 555 168 555 143 497.5 c 128,-1,27
 118 440 118 440 118 365 c 256,28,29
 118 290 118 290 142.5 232 c 128,-1,30
 167 174 167 174 207 134 c 128,-1,31
 247 94 247 94 297.5 73.5 c 128,-1,32
 348 53 348 53 401 53 c 0,33,34
 405 53 405 53 416.5 53.5 c 128,-1,35
 428 54 428 54 442 56 c 1,36,37
 423 60 423 60 404.5 72 c 128,-1,38
 386 84 386 84 371 101.5 c 128,-1,39
 356 119 356 119 346.5 142 c 128,-1,40
 337 165 337 165 337 191 c 0,41,42
 337 223 337 223 349 249 c 128,-1,43
 361 275 361 275 382 294 c 128,-1,44
 403 313 403 313 432 323 c 128,-1,45
 461 333 461 333 494 333 c 0,46,47
 526 333 526 333 554.5 322.5 c 128,-1,48
 583 312 583 312 604.5 293.5 c 128,-1,49
 626 275 626 275 638.5 248 c 128,-1,50
 651 221 651 221 651 188 c 0,51,52
 651 144 651 144 631.5 108.5 c 128,-1,53
 612 73 612 73 577.5 47 c 128,-1,54
 543 21 543 21 495.5 7 c 128,-1,55
 448 -7 448 -7 393 -7 c 0,56,57
 319 -7 319 -7 254.5 20 c 128,-1,58
 190 47 190 47 142.5 96 c 128,-1,59
 95 145 95 145 68 213.5 c 128,-1,60
 41 282 41 282 41 365 c 0,61,62
 41 449 41 449 69 517.5 c 128,-1,63
 97 586 97 586 146 634.5 c 128,-1,64
 195 683 195 683 260 709.5 c 128,-1,65
 325 736 325 736 399 736 c 0,0,1
410 187 m 0,66,67
 410 166 410 166 418 148 c 128,-1,68
 426 130 426 130 440.5 116.5 c 128,-1,69
 455 103 455 103 475 95.5 c 128,-1,70
 495 88 495 88 519 88 c 2,71,-1
 522 88 l 1,72,73
 547 100 547 100 562.5 124 c 128,-1,74
 578 148 578 148 578 183 c 0,75,76
 578 219 578 219 554 243 c 128,-1,77
 530 267 530 267 492 267 c 0,78,79
 456 267 456 267 433 244.5 c 128,-1,80
 410 222 410 222 410 187 c 0,66,67
580 546 m 0,81,82
 580 578 580 578 566 602 c 128,-1,83
 552 626 552 626 530 639 c 0,84,85
 527 640 527 640 520 640 c 0,86,87
 478 640 478 640 446.5 614.5 c 128,-1,88
 415 589 415 589 415 544 c 0,89,90
 415 509 415 509 438.5 486.5 c 128,-1,91
 462 464 462 464 498 464 c 0,92,93
 532 464 532 464 556 486.5 c 128,-1,94
 580 509 580 509 580 546 c 0,81,82
EndSplineSet
EndChar

StartChar: MatraAi.tm
Encoding: 3016 3016 110
Width: 1051
GlyphClass: 2
Flags: W
LayerCount: 2
Fore
SplineSet
381 500 m 0,0,1
 446 500 446 500 501 480.5 c 128,-1,2
 556 461 556 461 595 435 c 1,3,4
 608 445 608 445 625 456.5 c 128,-1,5
 642 468 642 468 663.5 478 c 128,-1,6
 685 488 685 488 711 494 c 128,-1,7
 737 500 737 500 768 500 c 0,8,9
 822 500 822 500 866 481 c 128,-1,10
 910 462 910 462 941.5 428.5 c 128,-1,11
 973 395 973 395 990 348 c 128,-1,12
 1007 301 1007 301 1007 246 c 0,13,14
 1007 201 1007 201 998.5 163 c 128,-1,15
 990 125 990 125 976 93 c 128,-1,16
 962 61 962 61 944.5 35 c 128,-1,17
 927 9 927 9 910 -11 c 1,18,-1
 852 34 l 1,19,20
 865 50 865 50 879 71.5 c 128,-1,21
 893 93 893 93 904.5 119.5 c 128,-1,22
 916 146 916 146 923 178 c 128,-1,23
 930 210 930 210 930 248 c 0,24,25
 930 289 930 289 918 323.5 c 128,-1,26
 906 358 906 358 884 382.5 c 128,-1,27
 862 407 862 407 831 420.5 c 128,-1,28
 800 434 800 434 763 434 c 0,29,30
 727 434 727 434 698 423.5 c 128,-1,31
 669 413 669 413 649 397 c 1,32,33
 670 377 670 377 689 354.5 c 128,-1,34
 708 332 708 332 723 304.5 c 128,-1,35
 738 277 738 277 746.5 244 c 128,-1,36
 755 211 755 211 755 171 c 0,37,38
 755 86 755 86 713 39.5 c 128,-1,39
 671 -7 671 -7 599 -7 c 0,40,41
 530 -7 530 -7 488 39.5 c 128,-1,42
 446 86 446 86 446 169 c 0,43,44
 446 248 446 248 475.5 301.5 c 128,-1,45
 505 355 505 355 545 394 c 1,46,47
 520 408 520 408 479 422 c 128,-1,48
 438 436 438 436 372 436 c 0,49,50
 319 436 319 436 273.5 421.5 c 128,-1,51
 228 407 228 407 193.5 381 c 128,-1,52
 159 355 159 355 138 317.5 c 128,-1,53
 117 280 117 280 114 234 c 1,54,55
 133 260 133 260 164 276.5 c 128,-1,56
 195 293 195 293 232 293 c 0,57,58
 264 293 264 293 291 282 c 128,-1,59
 318 271 318 271 337.5 251.5 c 128,-1,60
 357 232 357 232 368 205 c 128,-1,61
 379 178 379 178 379 147 c 0,62,63
 379 112 379 112 367 84 c 128,-1,64
 355 56 355 56 334 35.5 c 128,-1,65
 313 15 313 15 283.5 4 c 128,-1,66
 254 -7 254 -7 219 -7 c 0,67,68
 180 -7 180 -7 148 8 c 128,-1,69
 116 23 116 23 93 50.5 c 128,-1,70
 70 78 70 78 57 117.5 c 128,-1,71
 44 157 44 157 44 207 c 0,72,73
 44 281 44 281 71.5 336 c 128,-1,74
 99 391 99 391 145.5 427.5 c 128,-1,75
 192 464 192 464 253 482 c 128,-1,76
 314 500 314 500 381 500 c 0,0,1
680 173 m 0,77,78
 680 206 680 206 672.5 234.5 c 128,-1,79
 665 263 665 263 653 287 c 128,-1,80
 641 311 641 311 626.5 329 c 128,-1,81
 612 347 612 347 598 359 c 1,82,83
 584 347 584 347 570.5 329 c 128,-1,84
 557 311 557 311 546 287.5 c 128,-1,85
 535 264 535 264 528 234.5 c 128,-1,86
 521 205 521 205 521 171 c 0,87,88
 521 120 521 120 541 89 c 128,-1,89
 561 58 561 58 602 58 c 0,90,91
 640 58 640 58 660 89 c 128,-1,92
 680 120 680 120 680 173 c 0,77,78
217 230 m 0,93,94
 198 230 198 230 182.5 223.5 c 128,-1,95
 167 217 167 217 154 206 c 128,-1,96
 141 195 141 195 132 181.5 c 128,-1,97
 123 168 123 168 117 153 c 1,98,99
 126 105 126 105 155 80.5 c 128,-1,100
 184 56 184 56 219 56 c 0,101,102
 258 56 258 56 281.5 81 c 128,-1,103
 305 106 305 106 305 144 c 256,104,105
 305 182 305 182 282 206 c 128,-1,106
 259 230 259 230 217 230 c 0,93,94
EndSplineSet
EndChar

StartChar: MatraO.tm
Encoding: 3018 3018 111
Width: 2251
GlyphClass: 2
Flags: W
LayerCount: 2
Fore
SplineSet
404 733 m 0,0,1
 488 733 488 733 554.5 706 c 128,-1,2
 621 679 621 679 667.5 630.5 c 128,-1,3
 714 582 714 582 738.5 514 c 128,-1,4
 763 446 763 446 763 364 c 2,5,-1
 763 0 l 1,6,-1
 688 0 l 1,7,-1
 688 353 l 2,8,9
 688 505 688 505 614.5 585.5 c 128,-1,10
 541 666 541 666 401 666 c 0,11,12
 341 666 341 666 289.5 645 c 128,-1,13
 238 624 238 624 200 584.5 c 128,-1,14
 162 545 162 545 140 487 c 128,-1,15
 118 429 118 429 118 354 c 0,16,17
 118 287 118 287 138.5 231 c 128,-1,18
 159 175 159 175 196 135 c 128,-1,19
 233 95 233 95 282.5 72.5 c 128,-1,20
 332 50 332 50 391 50 c 2,21,-1
 407 50 l 1,22,23
 386 54 386 54 364.5 65 c 128,-1,24
 343 76 343 76 326.5 93.5 c 128,-1,25
 310 111 310 111 299.5 135 c 128,-1,26
 289 159 289 159 289 188 c 0,27,28
 289 222 289 222 301.5 249.5 c 128,-1,29
 314 277 314 277 335.5 297 c 128,-1,30
 357 317 357 317 386.5 328 c 128,-1,31
 416 339 416 339 451 339 c 0,32,33
 484 339 484 339 513.5 328 c 128,-1,34
 543 317 543 317 565.5 297 c 128,-1,35
 588 277 588 277 601 248 c 128,-1,36
 614 219 614 219 614 183 c 0,37,38
 614 138 614 138 594.5 103 c 128,-1,39
 575 68 575 68 542.5 44 c 128,-1,40
 510 20 510 20 467.5 7.5 c 128,-1,41
 425 -5 425 -5 378 -5 c 0,42,43
 307 -5 307 -5 245.5 20 c 128,-1,44
 184 45 184 45 138.5 91.5 c 128,-1,45
 93 138 93 138 66.5 204.5 c 128,-1,46
 40 271 40 271 40 354 c 0,47,48
 40 439 40 439 68 509 c 128,-1,49
 96 579 96 579 145 629 c 128,-1,50
 194 679 194 679 260.5 706 c 128,-1,51
 327 733 327 733 404 733 c 0,0,1
2178 495 m 1,52,-1
 2178 432 l 1,53,-1
 2073 432 l 1,54,-1
 2073 0 l 1,55,-1
 1996 0 l 1,56,-1
 1996 432 l 1,57,-1
 1821 432 l 1,58,-1
 1821 0 l 1,59,-1
 1746 0 l 1,60,-1
 1746 495 l 1,61,-1
 2178 495 l 1,52,-1
359 184 m 0,62,63
 359 160 359 160 369.5 140.5 c 128,-1,64
 380 121 380 121 398 107 c 128,-1,65
 416 93 416 93 438.5 85.5 c 128,-1,66
 461 78 461 78 485 78 c 1,67,68
 511 91 511 91 526 116.5 c 128,-1,69
 541 142 541 142 541 178 c 0,70,71
 541 221 541 221 514.5 247 c 128,-1,72
 488 273 488 273 449 273 c 256,73,74
 410 273 410 273 384.5 249 c 128,-1,75
 359 225 359 225 359 184 c 0,62,63
EndSplineSet
EndChar

StartChar: MatraOo.tm
Encoding: 3019 3019 112
Width: 708
GlyphClass: 2
Flags: W
LayerCount: 2
Fore
SplineSet
399 736 m 0,0,1
 451 736 451 736 497.5 721.5 c 128,-1,2
 544 707 544 707 578 681.5 c 128,-1,3
 612 656 612 656 632 620.5 c 128,-1,4
 652 585 652 585 652 543 c 0,5,6
 652 509 652 509 639 482 c 128,-1,7
 626 455 626 455 604 436.5 c 128,-1,8
 582 418 582 418 553.5 408 c 128,-1,9
 525 398 525 398 494 398 c 0,10,11
 462 398 462 398 434.5 408.5 c 128,-1,12
 407 419 407 419 386.5 438.5 c 128,-1,13
 366 458 366 458 354 484.5 c 128,-1,14
 342 511 342 511 342 543 c 0,15,16
 342 568 342 568 351.5 590.5 c 128,-1,17
 361 613 361 613 376 630 c 128,-1,18
 391 647 391 647 410 658 c 128,-1,19
 429 669 429 669 448 672 c 1,20,21
 435 674 435 674 423 674.5 c 128,-1,22
 411 675 411 675 400 675 c 0,23,24
 349 675 349 675 298.5 654.5 c 128,-1,25
 248 634 248 634 208 594.5 c 128,-1,26
 168 555 168 555 143 497.5 c 128,-1,27
 118 440 118 440 118 365 c 256,28,29
 118 290 118 290 142.5 232 c 128,-1,30
 167 174 167 174 207 134 c 128,-1,31
 247 94 247 94 297.5 73.5 c 128,-1,32
 348 53 348 53 401 53 c 0,33,34
 405 53 405 53 416.5 53.5 c 128,-1,35
 428 54 428 54 442 56 c 1,36,37
 423 60 423 60 404.5 72 c 128,-1,38
 386 84 386 84 371 101.5 c 128,-1,39
 356 119 356 119 346.5 142 c 128,-1,40
 337 165 337 165 337 191 c 0,41,42
 337 223 337 223 349 249 c 128,-1,43
 361 275 361 275 382 294 c 128,-1,44
 403 313 403 313 432 323 c 128,-1,45
 461 333 461 333 494 333 c 0,46,47
 526 333 526 333 554.5 322.5 c 128,-1,48
 583 312 583 312 604.5 293.5 c 128,-1,49
 626 275 626 275 638.5 248 c 128,-1,50
 651 221 651 221 651 188 c 0,51,52
 651 144 651 144 631.5 108.5 c 128,-1,53
 612 73 612 73 577.5 47 c 128,-1,54
 543 21 543 21 495.5 7 c 128,-1,55
 448 -7 448 -7 393 -7 c 0,56,57
 319 -7 319 -7 254.5 20 c 128,-1,58
 190 47 190 47 142.5 96 c 128,-1,59
 95 145 95 145 68 213.5 c 128,-1,60
 41 282 41 282 41 365 c 0,61,62
 41 449 41 449 69 517.5 c 128,-1,63
 97 586 97 586 146 634.5 c 128,-1,64
 195 683 195 683 260 709.5 c 128,-1,65
 325 736 325 736 399 736 c 0,0,1
1825 495 m 1,66,-1
 1825 432 l 1,67,-1
 1720 432 l 1,68,-1
 1720 0 l 1,69,-1
 1643 0 l 1,70,-1
 1643 432 l 1,71,-1
 1468 432 l 1,72,-1
 1468 0 l 1,73,-1
 1393 0 l 1,74,-1
 1393 495 l 1,75,-1
 1825 495 l 1,66,-1
410 187 m 0,76,77
 410 166 410 166 418 148 c 128,-1,78
 426 130 426 130 440.5 116.5 c 128,-1,79
 455 103 455 103 475 95.5 c 128,-1,80
 495 88 495 88 519 88 c 2,81,-1
 522 88 l 1,82,83
 547 100 547 100 562.5 124 c 128,-1,84
 578 148 578 148 578 183 c 0,85,86
 578 219 578 219 554 243 c 128,-1,87
 530 267 530 267 492 267 c 0,88,89
 456 267 456 267 433 244.5 c 128,-1,90
 410 222 410 222 410 187 c 0,76,77
580 546 m 0,91,92
 580 578 580 578 566 602 c 128,-1,93
 552 626 552 626 530 639 c 0,94,95
 527 640 527 640 520 640 c 0,96,97
 478 640 478 640 446.5 614.5 c 128,-1,98
 415 589 415 589 415 544 c 0,99,100
 415 509 415 509 438.5 486.5 c 128,-1,101
 462 464 462 464 498 464 c 0,102,103
 532 464 532 464 556 486.5 c 128,-1,104
 580 509 580 509 580 546 c 0,91,92
EndSplineSet
EndChar

StartChar: MatraAu.tm
Encoding: 3020 3020 113
Width: 2183
GlyphClass: 2
Flags: W
LayerCount: 2
Fore
SplineSet
404 733 m 0,0,1
 488 733 488 733 554.5 706 c 128,-1,2
 621 679 621 679 667.5 630.5 c 128,-1,3
 714 582 714 582 738.5 514 c 128,-1,4
 763 446 763 446 763 364 c 2,5,-1
 763 0 l 1,6,-1
 688 0 l 1,7,-1
 688 353 l 2,8,9
 688 505 688 505 614.5 585.5 c 128,-1,10
 541 666 541 666 401 666 c 0,11,12
 341 666 341 666 289.5 645 c 128,-1,13
 238 624 238 624 200 584.5 c 128,-1,14
 162 545 162 545 140 487 c 128,-1,15
 118 429 118 429 118 354 c 0,16,17
 118 287 118 287 138.5 231 c 128,-1,18
 159 175 159 175 196 135 c 128,-1,19
 233 95 233 95 282.5 72.5 c 128,-1,20
 332 50 332 50 391 50 c 2,21,-1
 407 50 l 1,22,23
 386 54 386 54 364.5 65 c 128,-1,24
 343 76 343 76 326.5 93.5 c 128,-1,25
 310 111 310 111 299.5 135 c 128,-1,26
 289 159 289 159 289 188 c 0,27,28
 289 222 289 222 301.5 249.5 c 128,-1,29
 314 277 314 277 335.5 297 c 128,-1,30
 357 317 357 317 386.5 328 c 128,-1,31
 416 339 416 339 451 339 c 0,32,33
 484 339 484 339 513.5 328 c 128,-1,34
 543 317 543 317 565.5 297 c 128,-1,35
 588 277 588 277 601 248 c 128,-1,36
 614 219 614 219 614 183 c 0,37,38
 614 138 614 138 594.5 103 c 128,-1,39
 575 68 575 68 542.5 44 c 128,-1,40
 510 20 510 20 467.5 7.5 c 128,-1,41
 425 -5 425 -5 378 -5 c 0,42,43
 307 -5 307 -5 245.5 20 c 128,-1,44
 184 45 184 45 138.5 91.5 c 128,-1,45
 93 138 93 138 66.5 204.5 c 128,-1,46
 40 271 40 271 40 354 c 0,47,48
 40 439 40 439 68 509 c 128,-1,49
 96 579 96 579 145 629 c 128,-1,50
 194 679 194 679 260.5 706 c 128,-1,51
 327 733 327 733 404 733 c 0,0,1
2185 496 m 1,52,-1
 2185 432 l 1,53,-1
 2078 432 l 1,54,-1
 2078 0 l 1,55,-1
 2003 0 l 1,56,-1
 2003 432 l 1,57,-1
 1833 432 l 1,58,-1
 1833 0 l 1,59,-1
 1760 0 l 1,60,-1
 1760 249 l 1,61,62
 1750 339 1750 339 1699 387 c 128,-1,63
 1648 435 1648 435 1569 435 c 0,64,65
 1489 435 1489 435 1438 382 c 128,-1,66
 1387 329 1387 329 1384 229 c 1,67,68
 1402 258 1402 258 1434 275.5 c 128,-1,69
 1466 293 1466 293 1505 293 c 0,70,71
 1537 293 1537 293 1564 282 c 128,-1,72
 1591 271 1591 271 1610.5 251.5 c 128,-1,73
 1630 232 1630 232 1641 205 c 128,-1,74
 1652 178 1652 178 1652 147 c 0,75,76
 1652 112 1652 112 1640 84 c 128,-1,77
 1628 56 1628 56 1607 35.5 c 128,-1,78
 1586 15 1586 15 1556.5 4 c 128,-1,79
 1527 -7 1527 -7 1492 -7 c 0,80,81
 1453 -7 1453 -7 1420.5 9 c 128,-1,82
 1388 25 1388 25 1365 54.5 c 128,-1,83
 1342 84 1342 84 1329.5 125.5 c 128,-1,84
 1317 167 1317 167 1317 218 c 0,85,86
 1317 285 1317 285 1337 337.5 c 128,-1,87
 1357 390 1357 390 1391.5 426 c 128,-1,88
 1426 462 1426 462 1472.5 481 c 128,-1,89
 1519 500 1519 500 1572 500 c 0,90,91
 1609 500 1609 500 1640 490.5 c 128,-1,92
 1671 481 1671 481 1695 466 c 128,-1,93
 1719 451 1719 451 1736.5 432 c 128,-1,94
 1754 413 1754 413 1763 393 c 1,95,-1
 1763 496 l 1,96,-1
 2185 496 l 1,52,-1
359 184 m 0,97,98
 359 160 359 160 369.5 140.5 c 128,-1,99
 380 121 380 121 398 107 c 128,-1,100
 416 93 416 93 438.5 85.5 c 128,-1,101
 461 78 461 78 485 78 c 1,102,103
 511 91 511 91 526 116.5 c 128,-1,104
 541 142 541 142 541 178 c 0,105,106
 541 221 541 221 514.5 247 c 128,-1,107
 488 273 488 273 449 273 c 256,108,109
 410 273 410 273 384.5 249 c 128,-1,110
 359 225 359 225 359 184 c 0,97,98
1490 230 m 0,111,112
 1471 230 1471 230 1455.5 223.5 c 128,-1,113
 1440 217 1440 217 1427 206 c 128,-1,114
 1414 195 1414 195 1405 181.5 c 128,-1,115
 1396 168 1396 168 1390 153 c 1,116,117
 1399 105 1399 105 1428 80.5 c 128,-1,118
 1457 56 1457 56 1492 56 c 0,119,120
 1531 56 1531 56 1554.5 81 c 128,-1,121
 1578 106 1578 106 1578 144 c 256,122,123
 1578 182 1578 182 1555 206 c 128,-1,124
 1532 230 1532 230 1490 230 c 0,111,112
EndSplineSet
EndChar

StartChar: PulliDflt.tm
Encoding: 3021 3021 114
Width: 0
GlyphClass: 2
Flags: W
LayerCount: 2
Fore
SplineSet
-106 703 m 0,0,1
 -81 703 -81 703 -64.5 686.5 c 128,-1,2
 -48 670 -48 670 -48 647 c 256,3,4
 -48 624 -48 624 -64.5 607.5 c 128,-1,5
 -81 591 -81 591 -104 591 c 0,6,7
 -129 591 -129 591 -145.5 607.5 c 128,-1,8
 -162 624 -162 624 -162 647 c 256,9,10
 -162 670 -162 670 -145.5 686.5 c 128,-1,11
 -129 703 -129 703 -106 703 c 0,0,1
EndSplineSet
EndChar

StartChar: Om.tm
Encoding: 3024 3024 115
Width: 811
GlyphClass: 2
Flags: W
LayerCount: 2
Fore
SplineSet
408 528 m 0,0,1
 485 528 485 528 552 506 c 128,-1,2
 619 484 619 484 668 446 c 128,-1,3
 717 408 717 408 745 355.5 c 128,-1,4
 773 303 773 303 773 243 c 0,5,6
 773 171 773 171 737.5 132 c 128,-1,7
 702 93 702 93 645 93 c 0,8,9
 605 93 605 93 578 117 c 128,-1,10
 551 141 551 141 551 185 c 0,11,12
 551 191 551 191 551.5 195.5 c 128,-1,13
 552 200 552 200 554 206 c 256,14,15
 556 212 556 212 560 219 c 1,16,-1
 558 221 l 1,17,18
 551 217 551 217 543 207 c 0,19,20
 533 195 533 195 526.5 177.5 c 128,-1,21
 520 160 520 160 520 132 c 0,22,23
 520 76 520 76 564 46 c 128,-1,24
 608 16 608 16 681 16 c 2,25,-1
 728 16 l 1,26,-1
 728 -47 l 1,27,-1
 713 -47 l 2,28,29
 700 -47 700 -47 691 -54 c 128,-1,30
 682 -61 682 -61 673 -74.5 c 128,-1,31
 664 -88 664 -88 652.5 -107 c 128,-1,32
 641 -126 641 -126 624 -150 c 0,33,34
 600 -183 600 -183 574.5 -207.5 c 128,-1,35
 549 -232 549 -232 519.5 -249 c 128,-1,36
 490 -266 490 -266 454.5 -274.5 c 128,-1,37
 419 -283 419 -283 374 -283 c 0,38,39
 318 -283 318 -283 270 -266.5 c 128,-1,40
 222 -250 222 -250 187.5 -217.5 c 128,-1,41
 153 -185 153 -185 133.5 -137 c 128,-1,42
 114 -89 114 -89 114 -25 c 0,43,44
 114 7 114 7 120 33 c 128,-1,45
 126 59 126 59 137 79 c 1,46,47
 93 94 93 94 65.5 135.5 c 128,-1,48
 38 177 38 177 38 246 c 0,49,50
 38 304 38 304 63.5 355.5 c 128,-1,51
 89 407 89 407 137 445.5 c 128,-1,52
 185 484 185 484 253.5 506 c 128,-1,53
 322 528 322 528 408 528 c 0,0,1
320 198 m 0,54,55
 320 173 320 173 311.5 150.5 c 128,-1,56
 303 128 303 128 289 111 c 1,57,58
 311 91 311 91 311 52 c 2,59,-1
 311 -73 l 1,60,-1
 372 -73 l 1,61,-1
 372 37 l 2,62,63
 372 77 372 77 395 100 c 128,-1,64
 418 123 418 123 456 123 c 2,65,-1
 459 123 l 1,66,-1
 459 132 l 2,67,68
 459 195 459 195 494.5 234.5 c 128,-1,69
 530 274 530 274 584 285 c 1,70,-1
 615 243 l 1,71,72
 608 235 608 235 603.5 224 c 128,-1,73
 599 213 599 213 599 198 c 0,74,75
 599 177 599 177 612.5 165 c 128,-1,76
 626 153 626 153 646 153 c 0,77,78
 670 153 670 153 686 175 c 128,-1,79
 702 197 702 197 702 239 c 0,80,81
 702 290 702 290 678.5 331.5 c 128,-1,82
 655 373 655 373 614.5 402.5 c 128,-1,83
 574 432 574 432 520 448.5 c 128,-1,84
 466 465 466 465 405 465 c 0,85,86
 343 465 343 465 290.5 451.5 c 128,-1,87
 238 438 238 438 198 412 c 128,-1,88
 158 386 158 386 133.5 349 c 128,-1,89
 109 312 109 312 104 265 c 1,90,91
 118 288 118 288 142.5 302.5 c 128,-1,92
 167 317 167 317 202 317 c 0,93,94
 225 317 225 317 246.5 307.5 c 128,-1,95
 268 298 268 298 284.5 282 c 128,-1,96
 301 266 301 266 310.5 244 c 128,-1,97
 320 222 320 222 320 198 c 0,54,55
639 -30 m 1,98,99
 621 -28 621 -28 598.5 -23.5 c 128,-1,100
 576 -19 576 -19 558 -9 c 1,101,-1
 558 -12 l 2,102,103
 558 -32 558 -32 551.5 -51 c 128,-1,104
 545 -70 545 -70 531 -85 c 128,-1,105
 517 -100 517 -100 495 -109 c 128,-1,106
 473 -118 473 -118 442 -118 c 2,107,-1
 255 -118 l 1,108,-1
 255 49 l 2,109,110
 255 87 255 87 227 87 c 0,111,112
 204 87 204 87 192.5 55.5 c 128,-1,113
 181 24 181 24 181 -24 c 0,114,115
 181 -124 181 -124 232 -174 c 128,-1,116
 283 -224 283 -224 377 -224 c 0,117,118
 413 -224 413 -224 440 -216.5 c 128,-1,119
 467 -209 467 -209 488.5 -197 c 128,-1,120
 510 -185 510 -185 527 -169 c 128,-1,121
 544 -153 544 -153 558 -135 c 0,122,123
 574 -114 574 -114 585.5 -97 c 128,-1,124
 597 -80 597 -80 605.5 -67 c 128,-1,125
 614 -54 614 -54 622 -44.5 c 128,-1,126
 630 -35 630 -35 639 -30 c 1,98,99
185 261 m 0,127,128
 159 261 159 261 139.5 246 c 128,-1,129
 120 231 120 231 109 204 c 1,130,131
 114 166 114 166 136 147 c 128,-1,132
 158 128 158 128 184 128 c 0,133,134
 213 128 213 128 233 146 c 128,-1,135
 253 164 253 164 253 195 c 0,136,137
 253 223 253 223 233.5 242 c 128,-1,138
 214 261 214 261 185 261 c 0,127,128
427 -73 m 1,139,-1
 444 -73 l 2,140,141
 476 -73 476 -73 491.5 -53.5 c 128,-1,142
 507 -34 507 -34 507 1 c 0,143,144
 507 38 507 38 493 58 c 128,-1,145
 479 78 479 78 459 78 c 0,146,147
 445 78 445 78 436 68.5 c 128,-1,148
 427 59 427 59 427 36 c 2,149,-1
 427 -73 l 1,139,-1
391 229 m 256,150,151
 408 229 408 229 417.5 217.5 c 128,-1,152
 427 206 427 206 427 192 c 0,153,154
 427 176 427 176 417.5 165.5 c 128,-1,155
 408 155 408 155 391 155 c 256,156,157
 374 155 374 155 364.5 165.5 c 128,-1,158
 355 176 355 176 355 192 c 0,159,160
 355 206 355 206 364.5 217.5 c 128,-1,161
 374 229 374 229 391 229 c 256,150,151
EndSplineSet
EndChar

StartChar: MatraAuSpare.tm
Encoding: 3031 3031 116
Width: 917
GlyphClass: 2
Flags: W
LayerCount: 2
Fore
SplineSet
919 496 m 1,0,-1
 919 432 l 1,1,-1
 812 432 l 1,2,-1
 812 0 l 1,3,-1
 737 0 l 1,4,-1
 737 432 l 1,5,-1
 567 432 l 1,6,-1
 567 0 l 1,7,-1
 494 0 l 1,8,-1
 494 249 l 1,9,10
 484 339 484 339 433 387 c 128,-1,11
 382 435 382 435 303 435 c 0,12,13
 223 435 223 435 172 382 c 128,-1,14
 121 329 121 329 118 229 c 1,15,16
 136 258 136 258 168 275.5 c 128,-1,17
 200 293 200 293 239 293 c 0,18,19
 271 293 271 293 298 282 c 128,-1,20
 325 271 325 271 344.5 251.5 c 128,-1,21
 364 232 364 232 375 205 c 128,-1,22
 386 178 386 178 386 147 c 0,23,24
 386 112 386 112 374 84 c 128,-1,25
 362 56 362 56 341 35.5 c 128,-1,26
 320 15 320 15 290.5 4 c 128,-1,27
 261 -7 261 -7 226 -7 c 0,28,29
 187 -7 187 -7 154.5 9 c 128,-1,30
 122 25 122 25 99 54.5 c 128,-1,31
 76 84 76 84 63.5 125.5 c 128,-1,32
 51 167 51 167 51 218 c 0,33,34
 51 285 51 285 71 337.5 c 128,-1,35
 91 390 91 390 125.5 426 c 128,-1,36
 160 462 160 462 206.5 481 c 128,-1,37
 253 500 253 500 306 500 c 0,38,39
 343 500 343 500 374 490.5 c 128,-1,40
 405 481 405 481 429 466 c 128,-1,41
 453 451 453 451 470.5 432 c 128,-1,42
 488 413 488 413 497 393 c 1,43,-1
 497 496 l 1,44,-1
 919 496 l 1,0,-1
224 230 m 0,45,46
 205 230 205 230 189.5 223.5 c 128,-1,47
 174 217 174 217 161 206 c 128,-1,48
 148 195 148 195 139 181.5 c 128,-1,49
 130 168 130 168 124 153 c 1,50,51
 133 105 133 105 162 80.5 c 128,-1,52
 191 56 191 56 226 56 c 0,53,54
 265 56 265 56 288.5 81 c 128,-1,55
 312 106 312 106 312 144 c 256,56,57
 312 182 312 182 289 206 c 128,-1,58
 266 230 266 230 224 230 c 0,45,46
EndSplineSet
EndChar

StartChar: Zero.tm
Encoding: 3046 3046 117
Width: 519
GlyphClass: 2
Flags: W
LayerCount: 2
Fore
SplineSet
262 500 m 0,0,1
 310 500 310 500 349 482 c 128,-1,2
 388 464 388 464 416.5 431 c 128,-1,3
 445 398 445 398 460.5 351 c 128,-1,4
 476 304 476 304 476 246 c 0,5,6
 476 187 476 187 460.5 140.5 c 128,-1,7
 445 94 445 94 416.5 61 c 128,-1,8
 388 28 388 28 348 10.5 c 128,-1,9
 308 -7 308 -7 258 -7 c 0,10,11
 210 -7 210 -7 171 10.5 c 128,-1,12
 132 28 132 28 103.5 61 c 128,-1,13
 75 94 75 94 59.5 140.5 c 128,-1,14
 44 187 44 187 44 246 c 0,15,16
 44 304 44 304 59.5 351 c 128,-1,17
 75 398 75 398 103.5 431 c 128,-1,18
 132 464 132 464 172 482 c 128,-1,19
 212 500 212 500 262 500 c 0,0,1
120 246 m 0,20,21
 120 205 120 205 129 170.5 c 128,-1,22
 138 136 138 136 156 111.5 c 128,-1,23
 174 87 174 87 200.5 73 c 128,-1,24
 227 59 227 59 262 59 c 0,25,26
 296 59 296 59 322 73 c 128,-1,27
 348 87 348 87 365 111.5 c 128,-1,28
 382 136 382 136 391 170.5 c 128,-1,29
 400 205 400 205 400 246 c 0,30,31
 400 331 400 331 364 382.5 c 128,-1,32
 328 434 328 434 258 434 c 0,33,34
 190 434 190 434 155 382.5 c 128,-1,35
 120 331 120 331 120 246 c 0,20,21
EndSplineSet
EndChar

StartChar: One.tm
Encoding: 3047 3047 118
Width: 665
GlyphClass: 2
Flags: W
LayerCount: 2
Fore
SplineSet
559 495 m 1,0,-1
 559 433 l 1,1,-1
 409 433 l 1,2,-1
 409 293 l 1,3,-1
 455 293 l 2,4,5
 548 293 548 293 594 252 c 128,-1,6
 640 211 640 211 640 141 c 0,7,8
 640 108 640 108 628 80.5 c 128,-1,9
 616 53 616 53 594.5 33.5 c 128,-1,10
 573 14 573 14 543.5 3.5 c 128,-1,11
 514 -7 514 -7 479 -7 c 0,12,13
 452 -7 452 -7 434 -2 c 1,14,-1
 442 61 l 1,15,16
 450 59 450 59 459.5 58 c 128,-1,17
 469 57 469 57 477 57 c 0,18,19
 516 57 516 57 540 80 c 128,-1,20
 564 103 564 103 564 141 c 0,21,22
 564 230 564 230 452 230 c 2,23,-1
 409 230 l 1,24,-1
 409 146 l 2,25,26
 409 79 409 79 361 36 c 128,-1,27
 313 -7 313 -7 226 -7 c 0,28,29
 185 -7 185 -7 149.5 4 c 128,-1,30
 114 15 114 15 88 36 c 128,-1,31
 62 57 62 57 47 86.5 c 128,-1,32
 32 116 32 116 32 153 c 0,33,34
 32 180 32 180 40 202 c 128,-1,35
 48 224 48 224 61.5 240.5 c 128,-1,36
 75 257 75 257 92.5 268 c 128,-1,37
 110 279 110 279 129 283 c 1,38,-1
 129 495 l 1,39,-1
 559 495 l 1,0,-1
197 230 m 2,40,41
 155 230 155 230 130 210 c 128,-1,42
 105 190 105 190 105 152 c 0,43,44
 105 109 105 109 139 82.5 c 128,-1,45
 173 56 173 56 230 56 c 0,46,47
 281 56 281 56 309 82.5 c 128,-1,48
 337 109 337 109 337 156 c 2,49,-1
 337 230 l 1,50,-1
 197 230 l 2,40,41
201 293 m 1,51,-1
 337 293 l 1,52,-1
 337 433 l 1,53,-1
 201 433 l 1,54,-1
 201 293 l 1,51,-1
EndSplineSet
EndChar

StartChar: Two.tm
Encoding: 3048 3048 119
Width: 778
GlyphClass: 2
Flags: W
LayerCount: 2
Fore
SplineSet
252 500 m 0,0,1
 303 500 303 500 343 486.5 c 128,-1,2
 383 473 383 473 410 449 c 128,-1,3
 437 425 437 425 451 392.5 c 128,-1,4
 465 360 465 360 465 323 c 0,5,6
 465 281 465 281 450 249 c 128,-1,7
 435 217 435 217 408 194 c 128,-1,8
 381 171 381 171 344 157 c 128,-1,9
 307 143 307 143 264 137 c 2,10,-1
 161 124 l 2,11,12
 137 121 137 121 125.5 113.5 c 128,-1,13
 114 106 114 106 114 91 c 256,14,15
 114 76 114 76 125.5 69.5 c 128,-1,16
 137 63 137 63 154 63 c 2,17,-1
 775 63 l 1,18,-1
 775 0 l 1,19,-1
 164 0 l 2,20,21
 100 0 100 0 69.5 25 c 128,-1,22
 39 50 39 50 39 94 c 0,23,24
 39 137 39 137 70 158.5 c 128,-1,25
 101 180 101 180 158 188 c 2,26,-1
 254 201 l 2,27,28
 282 205 282 205 306.5 214.5 c 128,-1,29
 331 224 331 224 349 239 c 128,-1,30
 367 254 367 254 377 275 c 128,-1,31
 387 296 387 296 387 323 c 0,32,33
 387 376 387 376 350 405.5 c 128,-1,34
 313 435 313 435 248 435 c 0,35,36
 184 435 184 435 154.5 407.5 c 128,-1,37
 125 380 125 380 125 344 c 0,38,39
 125 318 125 318 137 299.5 c 128,-1,40
 149 281 149 281 169 269 c 1,41,-1
 136 215 l 1,42,43
 102 229 102 229 76 262.5 c 128,-1,44
 50 296 50 296 50 344 c 0,45,46
 50 375 50 375 62 403 c 128,-1,47
 74 431 74 431 99 452.5 c 128,-1,48
 124 474 124 474 162 487 c 128,-1,49
 200 500 200 500 252 500 c 0,0,1
EndSplineSet
EndChar

StartChar: Three.tm
Encoding: 3049 3049 120
Width: 751
GlyphClass: 2
Flags: W
LayerCount: 2
Fore
SplineSet
545 495 m 1,0,-1
 545 433 l 1,1,-1
 375 433 l 1,2,-1
 375 287 l 1,3,4
 389 306 389 306 415.5 321 c 128,-1,5
 442 336 442 336 477 336 c 0,6,7
 507 336 507 336 533 326.5 c 128,-1,8
 559 317 559 317 578.5 298 c 128,-1,9
 598 279 598 279 609 252 c 128,-1,10
 620 225 620 225 620 191 c 0,11,12
 620 152 620 152 602.5 115.5 c 128,-1,13
 585 79 585 79 556 62 c 1,14,-1
 748 62 l 1,15,-1
 748 0 l 1,16,-1
 302 0 l 1,17,-1
 302 62 l 1,18,-1
 416 62 l 2,19,20
 443 62 443 62 467 71 c 128,-1,21
 491 80 491 80 508 96 c 128,-1,22
 525 112 525 112 535 134.5 c 128,-1,23
 545 157 545 157 545 184 c 0,24,25
 545 221 545 221 524 248.5 c 128,-1,26
 503 276 503 276 458 276 c 0,27,28
 428 276 428 276 404 256 c 128,-1,29
 380 236 380 236 374 203 c 1,30,-1
 374 145 l 1,31,-1
 304 145 l 1,32,-1
 304 433 l 1,33,-1
 147 433 l 1,34,-1
 147 0 l 1,35,-1
 73 0 l 1,36,-1
 73 495 l 1,37,-1
 545 495 l 1,0,-1
EndSplineSet
EndChar

StartChar: Four.tm
Encoding: 3050 3050 121
Width: 751
GlyphClass: 2
Flags: W
LayerCount: 2
Fore
SplineSet
703 495 m 1,0,-1
 703 229 l 1,1,-1
 409 229 l 1,2,-1
 409 146 l 2,3,4
 409 79 409 79 361 36 c 128,-1,5
 313 -7 313 -7 226 -7 c 0,6,7
 185 -7 185 -7 149.5 4 c 128,-1,8
 114 15 114 15 88 36 c 128,-1,9
 62 57 62 57 47 86.5 c 128,-1,10
 32 116 32 116 32 153 c 0,11,12
 32 180 32 180 40 202 c 128,-1,13
 48 224 48 224 61.5 240.5 c 128,-1,14
 75 257 75 257 92.5 268 c 128,-1,15
 110 279 110 279 129 283 c 1,16,-1
 129 495 l 1,17,-1
 553 495 l 1,18,-1
 553 433 l 1,19,-1
 409 433 l 1,20,-1
 409 291 l 1,21,-1
 630 291 l 1,22,-1
 630 495 l 1,23,-1
 703 495 l 1,0,-1
197 230 m 2,24,25
 155 230 155 230 130 210 c 128,-1,26
 105 190 105 190 105 152 c 0,27,28
 105 109 105 109 139 82.5 c 128,-1,29
 173 56 173 56 230 56 c 0,30,31
 281 56 281 56 309 82.5 c 128,-1,32
 337 109 337 109 337 156 c 2,33,-1
 337 230 l 1,34,-1
 197 230 l 2,24,25
201 293 m 1,35,-1
 337 293 l 1,36,-1
 337 433 l 1,37,-1
 201 433 l 1,38,-1
 201 293 l 1,35,-1
EndSplineSet
EndChar

StartChar: Five.tm
Encoding: 3051 3051 122
Width: 950
GlyphClass: 2
Flags: W
LayerCount: 2
Fore
SplineSet
758 317 m 256,0,1
 795 317 795 317 824.5 302 c 128,-1,2
 854 287 854 287 875 260 c 128,-1,3
 896 233 896 233 907 195.5 c 128,-1,4
 918 158 918 158 918 113 c 0,5,6
 918 33 918 33 888.5 -34 c 128,-1,7
 859 -101 859 -101 805 -149.5 c 128,-1,8
 751 -198 751 -198 673.5 -225.5 c 128,-1,9
 596 -253 596 -253 500 -253 c 0,10,11
 400 -253 400 -253 316.5 -220 c 128,-1,12
 233 -187 233 -187 173 -124 c 128,-1,13
 113 -61 113 -61 79.5 29.5 c 128,-1,14
 46 120 46 120 46 235 c 0,15,16
 46 343 46 343 78.5 436.5 c 128,-1,17
 111 530 111 530 173.5 599 c 128,-1,18
 236 668 236 668 327 707.5 c 128,-1,19
 418 747 418 747 535 747 c 0,20,21
 602 747 602 747 657 734.5 c 128,-1,22
 712 722 712 722 756.5 702.5 c 128,-1,23
 801 683 801 683 834 659 c 128,-1,24
 867 635 867 635 889 613 c 1,25,-1
 849 567 l 1,26,27
 825 588 825 588 793 608.5 c 128,-1,28
 761 629 761 629 721.5 645 c 128,-1,29
 682 661 682 661 634 671 c 128,-1,30
 586 681 586 681 530 681 c 0,31,32
 430 681 430 681 353.5 647.5 c 128,-1,33
 277 614 277 614 225.5 554.5 c 128,-1,34
 174 495 174 495 148 413 c 128,-1,35
 122 331 122 331 122 235 c 0,36,37
 122 135 122 135 148.5 56.5 c 128,-1,38
 175 -22 175 -22 225 -76.5 c 128,-1,39
 275 -131 275 -131 345.5 -159.5 c 128,-1,40
 416 -188 416 -188 505 -188 c 0,41,42
 583 -188 583 -188 645 -166.5 c 128,-1,43
 707 -145 707 -145 750.5 -105.5 c 128,-1,44
 794 -66 794 -66 817.5 -11.5 c 128,-1,45
 841 43 841 43 841 109 c 0,46,47
 841 173 841 173 816 214.5 c 128,-1,48
 791 256 791 256 737 256 c 0,49,50
 708 256 708 256 684.5 237.5 c 128,-1,51
 661 219 661 219 650 187 c 1,52,-1
 650 0 l 1,53,-1
 575 0 l 1,54,-1
 575 432 l 1,55,-1
 403 432 l 1,56,-1
 403 0 l 1,57,-1
 329 0 l 1,58,-1
 329 495 l 1,59,-1
 840 495 l 1,60,-1
 840 432 l 1,61,-1
 650 432 l 1,62,-1
 650 266 l 1,63,64
 664 286 664 286 692.5 301.5 c 128,-1,65
 721 317 721 317 758 317 c 256,0,1
EndSplineSet
EndChar

StartChar: Six.tm
Encoding: 3052 3052 123
Width: 861
GlyphClass: 2
Flags: W
LayerCount: 2
Fore
SplineSet
569 495 m 1,0,-1
 569 433 l 1,1,-1
 409 433 l 1,2,-1
 409 293 l 1,3,-1
 428 293 l 2,4,5
 461 293 461 293 483 287 c 128,-1,6
 505 281 505 281 519.5 271 c 128,-1,7
 534 261 534 261 542.5 249.5 c 128,-1,8
 551 238 551 238 556 228 c 1,9,10
 560 239 560 239 568.5 250.5 c 128,-1,11
 577 262 577 262 591 271.5 c 128,-1,12
 605 281 605 281 625.5 287 c 128,-1,13
 646 293 646 293 673 293 c 2,14,-1
 849 293 l 1,15,-1
 849 235 l 1,16,-1
 773 235 l 1,17,-1
 773 0 l 1,18,-1
 702 0 l 1,19,-1
 702 233 l 1,20,-1
 664 233 l 2,21,22
 627 233 627 233 609 211 c 128,-1,23
 591 189 591 189 591 152 c 2,24,-1
 591 0 l 1,25,-1
 520 0 l 1,26,-1
 520 145 l 2,27,28
 520 188 520 188 500 209.5 c 128,-1,29
 480 231 480 231 429 231 c 2,30,-1
 409 231 l 1,31,-1
 409 146 l 2,32,33
 409 79 409 79 361 36 c 128,-1,34
 313 -7 313 -7 226 -7 c 0,35,36
 185 -7 185 -7 149.5 4 c 128,-1,37
 114 15 114 15 88 36 c 128,-1,38
 62 57 62 57 47 86.5 c 128,-1,39
 32 116 32 116 32 153 c 0,40,41
 32 180 32 180 40 202 c 128,-1,42
 48 224 48 224 61.5 240.5 c 128,-1,43
 75 257 75 257 92.5 268 c 128,-1,44
 110 279 110 279 129 283 c 1,45,-1
 129 495 l 1,46,-1
 569 495 l 1,0,-1
197 230 m 2,47,48
 155 230 155 230 130 210 c 128,-1,49
 105 190 105 190 105 152 c 0,50,51
 105 109 105 109 139 82.5 c 128,-1,52
 173 56 173 56 230 56 c 0,53,54
 281 56 281 56 309 82.5 c 128,-1,55
 337 109 337 109 337 156 c 2,56,-1
 337 230 l 1,57,-1
 197 230 l 2,47,48
201 293 m 1,58,-1
 337 293 l 1,59,-1
 337 433 l 1,60,-1
 201 433 l 1,61,-1
 201 293 l 1,58,-1
EndSplineSet
EndChar

StartChar: Seven.tm
Encoding: 3053 3053 124
Width: 677
GlyphClass: 2
Flags: W
LayerCount: 2
Fore
SplineSet
682 495 m 1,0,-1
 682 433 l 1,1,-1
 572 433 l 1,2,-1
 572 0 l 1,3,-1
 499 0 l 1,4,-1
 499 433 l 1,5,-1
 350 433 l 2,6,7
 302 433 302 433 261 420.5 c 128,-1,8
 220 408 220 408 189 383.5 c 128,-1,9
 158 359 158 359 138 321 c 128,-1,10
 118 283 118 283 113 232 c 1,11,12
 132 259 132 259 163 276 c 128,-1,13
 194 293 194 293 232 293 c 0,14,15
 264 293 264 293 291 282 c 128,-1,16
 318 271 318 271 337.5 251.5 c 128,-1,17
 357 232 357 232 368 205 c 128,-1,18
 379 178 379 178 379 147 c 0,19,20
 379 112 379 112 367 84 c 128,-1,21
 355 56 355 56 334 35.5 c 128,-1,22
 313 15 313 15 283.5 4 c 128,-1,23
 254 -7 254 -7 219 -7 c 0,24,25
 180 -7 180 -7 148 8.5 c 128,-1,26
 116 24 116 24 93 52.5 c 128,-1,27
 70 81 70 81 57 121 c 128,-1,28
 44 161 44 161 44 211 c 0,29,30
 44 281 44 281 67.5 334 c 128,-1,31
 91 387 91 387 132.5 423 c 128,-1,32
 174 459 174 459 229.5 477 c 128,-1,33
 285 495 285 495 348 495 c 2,34,-1
 682 495 l 1,0,-1
217 230 m 0,35,36
 198 230 198 230 182.5 223.5 c 128,-1,37
 167 217 167 217 154 206 c 128,-1,38
 141 195 141 195 132 181.5 c 128,-1,39
 123 168 123 168 117 153 c 1,40,41
 126 105 126 105 155 80.5 c 128,-1,42
 184 56 184 56 219 56 c 0,43,44
 258 56 258 56 281.5 81 c 128,-1,45
 305 106 305 106 305 144 c 256,46,47
 305 182 305 182 282 206 c 128,-1,48
 259 230 259 230 217 230 c 0,35,36
EndSplineSet
EndChar

StartChar: Eight.tm
Encoding: 3054 3054 125
Width: 1009
GlyphClass: 2
Flags: W
LayerCount: 2
Fore
SplineSet
661 199 m 1,0,1
 663 206 663 206 664 216.5 c 128,-1,2
 665 227 665 227 665 241 c 0,3,4
 665 281 665 281 653.5 316.5 c 128,-1,5
 642 352 642 352 619 378 c 128,-1,6
 596 404 596 404 562.5 419 c 128,-1,7
 529 434 529 434 485 434 c 0,8,9
 437 434 437 434 411.5 411.5 c 128,-1,10
 386 389 386 389 386 355 c 0,11,12
 386 329 386 329 400.5 312.5 c 128,-1,13
 415 296 415 296 435 288 c 1,14,-1
 411 235 l 1,15,16
 367 246 367 246 339.5 278 c 128,-1,17
 312 310 312 310 312 356 c 0,18,19
 312 388 312 388 325.5 414.5 c 128,-1,20
 339 441 339 441 362.5 460 c 128,-1,21
 386 479 386 479 418.5 489.5 c 128,-1,22
 451 500 451 500 490 500 c 0,23,24
 548 500 548 500 594.5 480 c 128,-1,25
 641 460 641 460 673.5 425 c 128,-1,26
 706 390 706 390 723.5 343 c 128,-1,27
 741 296 741 296 741 241 c 0,28,29
 741 228 741 228 740.5 217 c 128,-1,30
 740 206 740 206 738 199 c 1,31,-1
 860 199 l 1,32,-1
 860 495 l 1,33,-1
 934 495 l 1,34,-1
 934 -82 l 1,35,-1
 860 -82 l 1,36,-1
 860 137 l 1,37,-1
 728 137 l 1,38,39
 711 83 711 83 675.5 43.5 c 128,-1,40
 640 4 640 4 589.5 -21.5 c 128,-1,41
 539 -47 539 -47 477 -59 c 128,-1,42
 415 -71 415 -71 346 -71 c 0,43,44
 276 -71 276 -71 216 -59.5 c 128,-1,45
 156 -48 156 -48 112 -26 c 128,-1,46
 68 -4 68 -4 43 28 c 128,-1,47
 18 60 18 60 18 101 c 0,48,49
 18 148 18 148 48.5 173.5 c 128,-1,50
 79 199 79 199 136 199 c 2,51,-1
 661 199 l 1,0,1
349 -4 m 0,52,53
 462 -4 462 -4 541.5 32 c 128,-1,54
 621 68 621 68 648 137 c 1,55,-1
 145 137 l 2,56,57
 119 137 119 137 108 125.5 c 128,-1,58
 97 114 97 114 97 97 c 0,59,60
 97 76 97 76 115 58 c 128,-1,61
 133 40 133 40 166 26 c 128,-1,62
 199 12 199 12 245.5 4 c 128,-1,63
 292 -4 292 -4 349 -4 c 0,52,53
EndSplineSet
EndChar

StartChar: Nine.tm
Encoding: 3055 3055 126
Width: 997
GlyphClass: 2
Flags: W
LayerCount: 2
Fore
SplineSet
554 495 m 1,0,-1
 554 433 l 1,1,-1
 409 433 l 1,2,-1
 409 292 l 1,3,-1
 532 292 l 1,4,5
 560 340 560 340 610.5 367.5 c 128,-1,6
 661 395 661 395 728 395 c 0,7,8
 779 395 779 395 820.5 379.5 c 128,-1,9
 862 364 862 364 891.5 335.5 c 128,-1,10
 921 307 921 307 937 267 c 128,-1,11
 953 227 953 227 953 179 c 0,12,13
 953 116 953 116 934.5 70 c 128,-1,14
 916 24 916 24 890 -12 c 1,15,-1
 832 28 l 1,16,17
 850 54 850 54 865.5 89.5 c 128,-1,18
 881 125 881 125 881 179 c 0,19,20
 881 251 881 251 838 292.5 c 128,-1,21
 795 334 795 334 722 334 c 0,22,23
 683 334 683 334 653 321 c 128,-1,24
 623 308 623 308 605 287 c 1,25,26
 699 287 699 287 747.5 245.5 c 128,-1,27
 796 204 796 204 796 135 c 0,28,29
 796 106 796 106 786 80.5 c 128,-1,30
 776 55 776 55 757 35.5 c 128,-1,31
 738 16 738 16 711.5 4.5 c 128,-1,32
 685 -7 685 -7 651 -7 c 0,33,34
 611 -7 611 -7 582 7 c 128,-1,35
 553 21 553 21 534 44 c 128,-1,36
 515 67 515 67 506 98 c 128,-1,37
 497 129 497 129 497 163 c 0,38,39
 497 180 497 180 499.5 198 c 128,-1,40
 502 216 502 216 507 231 c 1,41,-1
 409 231 l 1,42,-1
 409 146 l 2,43,44
 409 79 409 79 361 36 c 128,-1,45
 313 -7 313 -7 226 -7 c 0,46,47
 185 -7 185 -7 149.5 4 c 128,-1,48
 114 15 114 15 88 36 c 128,-1,49
 62 57 62 57 47 86.5 c 128,-1,50
 32 116 32 116 32 153 c 0,51,52
 32 180 32 180 40 202 c 128,-1,53
 48 224 48 224 61.5 240.5 c 128,-1,54
 75 257 75 257 92.5 268 c 128,-1,55
 110 279 110 279 129 283 c 1,56,-1
 129 495 l 1,57,-1
 554 495 l 1,0,-1
197 230 m 2,58,59
 155 230 155 230 130 210 c 128,-1,60
 105 190 105 190 105 152 c 0,61,62
 105 109 105 109 139 82.5 c 128,-1,63
 173 56 173 56 230 56 c 0,64,65
 281 56 281 56 309 82.5 c 128,-1,66
 337 109 337 109 337 156 c 2,67,-1
 337 230 l 1,68,-1
 197 230 l 2,58,59
578 228 m 1,69,70
 573 213 573 213 570.5 195.5 c 128,-1,71
 568 178 568 178 568 164 c 0,72,73
 568 106 568 106 594 81 c 128,-1,74
 620 56 620 56 654 56 c 0,75,76
 683 56 683 56 704 76.5 c 128,-1,77
 725 97 725 97 725 135 c 0,78,79
 725 182 725 182 691.5 205 c 128,-1,80
 658 228 658 228 598 228 c 2,81,-1
 578 228 l 1,69,70
201 293 m 1,82,-1
 337 293 l 1,83,-1
 337 433 l 1,84,-1
 201 433 l 1,85,-1
 201 293 l 1,82,-1
EndSplineSet
EndChar

StartChar: Ten.tm
Encoding: 3056 3056 127
Width: 718
GlyphClass: 2
Flags: W
LayerCount: 2
Fore
SplineSet
144 495 m 1,0,-1
 144 154 l 2,1,2
 144 107 144 107 165 83.5 c 128,-1,3
 186 60 186 60 223 60 c 0,4,5
 263 60 263 60 286 89 c 128,-1,6
 309 118 309 118 309 177 c 2,7,-1
 309 495 l 1,8,-1
 384 495 l 1,9,-1
 384 183 l 2,10,11
 384 120 384 120 406.5 90 c 128,-1,12
 429 60 429 60 470 60 c 0,13,14
 504 60 504 60 527 78 c 128,-1,15
 550 96 550 96 564 128.5 c 128,-1,16
 578 161 578 161 584.5 206.5 c 128,-1,17
 591 252 591 252 591 306 c 0,18,19
 591 380 591 380 577.5 440 c 128,-1,20
 564 500 564 500 535.5 542 c 128,-1,21
 507 584 507 584 464 606.5 c 128,-1,22
 421 629 421 629 363 629 c 0,23,24
 311 629 311 629 276.5 616.5 c 128,-1,25
 242 604 242 604 218 590 c 1,26,-1
 188 642 l 1,27,28
 214 661 214 661 260.5 678 c 128,-1,29
 307 695 307 695 365 695 c 0,30,31
 440 695 440 695 496.5 666.5 c 128,-1,32
 553 638 553 638 590.5 587 c 128,-1,33
 628 536 628 536 647 465.5 c 128,-1,34
 666 395 666 395 666 311 c 0,35,36
 666 242 666 242 655.5 183.5 c 128,-1,37
 645 125 645 125 621.5 82.5 c 128,-1,38
 598 40 598 40 561.5 16.5 c 128,-1,39
 525 -7 525 -7 474 -7 c 0,40,41
 426 -7 426 -7 391.5 18.5 c 128,-1,42
 357 44 357 44 346 81 c 1,43,44
 332 43 332 43 299.5 18 c 128,-1,45
 267 -7 267 -7 211 -7 c 0,46,47
 145 -7 145 -7 107 35.5 c 128,-1,48
 69 78 69 78 69 153 c 2,49,-1
 69 495 l 1,50,-1
 144 495 l 1,0,-1
EndSplineSet
EndChar

StartChar: Hundred.tm
Encoding: 3057 3057 128
Width: 769
GlyphClass: 2
Flags: W
LayerCount: 2
Fore
SplineSet
771 495 m 1,0,-1
 771 432 l 1,1,-1
 664 432 l 1,2,-1
 664 0 l 1,3,-1
 590 0 l 1,4,-1
 590 432 l 1,5,-1
 384 432 l 1,6,-1
 384 0 l 1,7,-1
 312 0 l 1,8,-1
 312 322 l 2,9,10
 312 344 312 344 307 364 c 128,-1,11
 302 384 302 384 291.5 400 c 128,-1,12
 281 416 281 416 264.5 425.5 c 128,-1,13
 248 435 248 435 224 435 c 0,14,15
 182 435 182 435 162.5 409 c 128,-1,16
 143 383 143 383 143 335 c 2,17,-1
 143 0 l 1,18,-1
 69 0 l 1,19,-1
 69 332 l 2,20,21
 69 377 69 377 80 408.5 c 128,-1,22
 91 440 91 440 111 460.5 c 128,-1,23
 131 481 131 481 157.5 490.5 c 128,-1,24
 184 500 184 500 216 500 c 0,25,26
 247 500 247 500 274.5 483.5 c 128,-1,27
 302 467 302 467 316 445 c 1,28,-1
 316 495 l 1,29,-1
 771 495 l 1,0,-1
EndSplineSet
EndChar

StartChar: Thousand.tm
Encoding: 3058 3058 129
Width: 917
GlyphClass: 2
Flags: W
LayerCount: 2
Fore
SplineSet
559 495 m 1,0,-1
 559 433 l 1,1,-1
 409 433 l 1,2,-1
 409 293 l 1,3,-1
 836 293 l 1,4,-1
 836 233 l 1,5,-1
 740 233 l 1,6,-1
 740 152 l 1,7,-1
 751 152 l 2,8,9
 784 152 784 152 812.5 141.5 c 128,-1,10
 841 131 841 131 862 111.5 c 128,-1,11
 883 92 883 92 895 63 c 128,-1,12
 907 34 907 34 907 -3 c 0,13,14
 907 -86 907 -86 851.5 -133.5 c 128,-1,15
 796 -181 796 -181 688 -181 c 2,16,-1
 547 -181 l 2,17,18
 525 -181 525 -181 516 -190.5 c 128,-1,19
 507 -200 507 -200 507 -215 c 0,20,21
 507 -227 507 -227 511 -237.5 c 128,-1,22
 515 -248 515 -248 520 -256 c 1,23,-1
 468 -278 l 1,24,25
 460 -266 460 -266 453 -249 c 128,-1,26
 446 -232 446 -232 446 -210 c 0,27,28
 446 -189 446 -189 453.5 -173.5 c 128,-1,29
 461 -158 461 -158 472.5 -148 c 128,-1,30
 484 -138 484 -138 498.5 -133 c 128,-1,31
 513 -128 513 -128 528 -128 c 2,32,-1
 684 -128 l 2,33,34
 766 -128 766 -128 804.5 -93 c 128,-1,35
 843 -58 843 -58 843 0 c 0,36,37
 843 43 843 43 820.5 71.5 c 128,-1,38
 798 100 798 100 750 100 c 2,39,-1
 741 100 l 1,40,-1
 741 41 l 2,41,42
 741 19 741 19 733.5 -2 c 128,-1,43
 726 -23 726 -23 709.5 -39 c 128,-1,44
 693 -55 693 -55 667 -65 c 128,-1,45
 641 -75 641 -75 605 -75 c 0,46,47
 577 -75 577 -75 551 -67 c 128,-1,48
 525 -59 525 -59 505.5 -43.5 c 128,-1,49
 486 -28 486 -28 474 -5.5 c 128,-1,50
 462 17 462 17 462 46 c 0,51,52
 462 99 462 99 496.5 125.5 c 128,-1,53
 531 152 531 152 585 152 c 2,54,-1
 680 152 l 1,55,-1
 680 233 l 1,56,-1
 409 233 l 1,57,-1
 409 146 l 2,58,59
 409 79 409 79 361 36 c 128,-1,60
 313 -7 313 -7 226 -7 c 0,61,62
 185 -7 185 -7 149.5 4 c 128,-1,63
 114 15 114 15 88 36 c 128,-1,64
 62 57 62 57 47 86.5 c 128,-1,65
 32 116 32 116 32 153 c 0,66,67
 32 180 32 180 40 202 c 128,-1,68
 48 224 48 224 61.5 240.5 c 128,-1,69
 75 257 75 257 92.5 268 c 128,-1,70
 110 279 110 279 129 283 c 1,71,-1
 129 495 l 1,72,-1
 559 495 l 1,0,-1
197 230 m 2,73,74
 155 230 155 230 130 210 c 128,-1,75
 105 190 105 190 105 152 c 0,76,77
 105 109 105 109 139 82.5 c 128,-1,78
 173 56 173 56 230 56 c 0,79,80
 281 56 281 56 309 82.5 c 128,-1,81
 337 109 337 109 337 156 c 2,82,-1
 337 230 l 1,83,-1
 197 230 l 2,73,74
201 293 m 1,84,-1
 337 293 l 1,85,-1
 337 433 l 1,86,-1
 201 433 l 1,87,-1
 201 293 l 1,84,-1
590 100 m 2,88,89
 561 100 561 100 543.5 85.5 c 128,-1,90
 526 71 526 71 526 43 c 256,91,92
 526 15 526 15 547.5 -2.5 c 128,-1,93
 569 -20 569 -20 607 -20 c 0,94,95
 643 -20 643 -20 661 -1.5 c 128,-1,96
 679 17 679 17 679 48 c 2,97,-1
 679 100 l 1,98,-1
 590 100 l 2,88,89
EndSplineSet
EndChar

StartChar: DaySign.tm
Encoding: 3059 3059 130
Width: 780
GlyphClass: 2
Flags: W
LayerCount: 2
Fore
SplineSet
326 500 m 0,0,1
 383 500 383 500 432 480.5 c 128,-1,2
 481 461 481 461 517 425.5 c 128,-1,3
 553 390 553 390 573.5 341 c 128,-1,4
 594 292 594 292 594 233 c 0,5,6
 594 206 594 206 589.5 180 c 128,-1,7
 585 154 585 154 578 131.5 c 128,-1,8
 571 109 571 109 562.5 91.5 c 128,-1,9
 554 74 554 74 547 63 c 1,10,-1
 777 63 l 1,11,-1
 777 0 l 1,12,-1
 482 0 l 1,13,-1
 459 48 l 1,14,15
 488 84 488 84 502.5 130.5 c 128,-1,16
 517 177 517 177 517 228 c 0,17,18
 517 274 517 274 503.5 312 c 128,-1,19
 490 350 490 350 464.5 377 c 128,-1,20
 439 404 439 404 403 419 c 128,-1,21
 367 434 367 434 321 434 c 0,22,23
 274 434 274 434 236 419 c 128,-1,24
 198 404 198 404 171 377 c 128,-1,25
 144 350 144 350 128.5 311.5 c 128,-1,26
 113 273 113 273 112 227 c 1,27,28
 130 256 130 256 162 274.5 c 128,-1,29
 194 293 194 293 234 293 c 0,30,31
 266 293 266 293 293 282 c 128,-1,32
 320 271 320 271 339.5 251.5 c 128,-1,33
 359 232 359 232 370 205 c 128,-1,34
 381 178 381 178 381 147 c 0,35,36
 381 112 381 112 369 84 c 128,-1,37
 357 56 357 56 336 35.5 c 128,-1,38
 315 15 315 15 285.5 4 c 128,-1,39
 256 -7 256 -7 221 -7 c 0,40,41
 182 -7 182 -7 150 9 c 128,-1,42
 118 25 118 25 95 54.5 c 128,-1,43
 72 84 72 84 59 125.5 c 128,-1,44
 46 167 46 167 46 217 c 0,45,46
 46 280 46 280 67 332.5 c 128,-1,47
 88 385 88 385 125 422 c 128,-1,48
 162 459 162 459 213.5 479.5 c 128,-1,49
 265 500 265 500 326 500 c 0,0,1
219 230 m 0,50,51
 200 230 200 230 184.5 223.5 c 128,-1,52
 169 217 169 217 156 206 c 128,-1,53
 143 195 143 195 134 181.5 c 128,-1,54
 125 168 125 168 119 153 c 1,55,56
 128 105 128 105 157 80.5 c 128,-1,57
 186 56 186 56 221 56 c 0,58,59
 260 56 260 56 283.5 81 c 128,-1,60
 307 106 307 106 307 144 c 256,61,62
 307 182 307 182 284 206 c 128,-1,63
 261 230 261 230 219 230 c 0,50,51
EndSplineSet
EndChar

StartChar: MonthSign.tm
Encoding: 3060 3060 131
Width: 989
GlyphClass: 2
Flags: W
LayerCount: 2
Fore
SplineSet
741 820 m 0,0,1
 774 820 774 820 803 810.5 c 128,-1,2
 832 801 832 801 854 783 c 128,-1,3
 876 765 876 765 888.5 738 c 128,-1,4
 901 711 901 711 901 677 c 0,5,6
 901 645 901 645 891.5 618 c 128,-1,7
 882 591 882 591 869 571 c 1,8,-1
 986 571 l 1,9,-1
 986 518 l 1,10,-1
 815 518 l 1,11,-1
 794 563 l 1,12,13
 808 581 808 581 821 610 c 128,-1,14
 834 639 834 639 834 675 c 0,15,16
 834 723 834 723 806.5 747.5 c 128,-1,17
 779 772 779 772 734 772 c 0,18,19
 719 772 719 772 707 769.5 c 128,-1,20
 695 767 695 767 685 762 c 1,21,22
 717 751 717 751 740.5 724.5 c 128,-1,23
 764 698 764 698 764 663 c 0,24,25
 764 639 764 639 755 620 c 128,-1,26
 746 601 746 601 731 587.5 c 128,-1,27
 716 574 716 574 696 566.5 c 128,-1,28
 676 559 676 559 654 559 c 0,29,30
 610 559 610 559 580 586.5 c 128,-1,31
 550 614 550 614 550 659 c 0,32,33
 550 698 550 698 574 725 c 1,34,35
 536 717 536 717 511.5 688.5 c 128,-1,36
 487 660 487 660 487 614 c 256,37,38
 487 568 487 568 512 532.5 c 128,-1,39
 537 497 537 497 574 467 c 1,40,-1
 580 463 l 2,41,42
 598 448 598 448 615 428 c 128,-1,43
 632 408 632 408 645 382 c 128,-1,44
 658 356 658 356 666 322.5 c 128,-1,45
 674 289 674 289 674 249 c 0,46,47
 674 192 674 192 659 145.5 c 128,-1,48
 644 99 644 99 612 67 c 128,-1,49
 580 35 580 35 530 17.5 c 128,-1,50
 480 0 480 0 411 0 c 2,51,-1
 73 0 l 1,52,-1
 73 495 l 1,53,-1
 146 495 l 1,54,-1
 146 63 l 1,55,-1
 320 63 l 1,56,-1
 320 338 l 2,57,58
 320 409 320 409 359.5 450.5 c 128,-1,59
 399 492 399 492 464 496 c 1,60,61
 443 519 443 519 429.5 552 c 128,-1,62
 416 585 416 585 416 615 c 0,63,64
 416 657 416 657 433 688 c 128,-1,65
 450 719 450 719 477 739.5 c 128,-1,66
 504 760 504 760 538.5 769.5 c 128,-1,67
 573 779 573 779 609 779 c 0,68,69
 619 779 619 779 624 778 c 0,70,71
 645 795 645 795 675 807.5 c 128,-1,72
 705 820 705 820 741 820 c 0,0,1
393 63 m 1,73,-1
 419 63 l 2,74,75
 467 63 467 63 501 76 c 128,-1,76
 535 89 535 89 556.5 113 c 128,-1,77
 578 137 578 137 588 171 c 128,-1,78
 598 205 598 205 598 247 c 0,79,80
 598 294 598 294 587.5 329 c 128,-1,81
 577 364 577 364 560 387.5 c 128,-1,82
 543 411 543 411 521 422.5 c 128,-1,83
 499 434 499 434 475 434 c 0,84,85
 440 434 440 434 416.5 411 c 128,-1,86
 393 388 393 388 393 333 c 2,87,-1
 393 63 l 1,73,-1
702 664 m 0,88,89
 702 693 702 693 680.5 710 c 128,-1,90
 659 727 659 727 633 728 c 1,91,92
 622 717 622 717 615 701.5 c 128,-1,93
 608 686 608 686 608 666 c 0,94,95
 608 641 608 641 622 627 c 128,-1,96
 636 613 636 613 656 613 c 0,97,98
 677 613 677 613 689.5 627 c 128,-1,99
 702 641 702 641 702 664 c 0,88,89
EndSplineSet
EndChar

StartChar: YearSign.tm
Encoding: 3061 3061 132
Width: 2073
GlyphClass: 2
Flags: W
LayerCount: 2
Fore
SplineSet
954 63 m 1,0,-1
 954 495 l 1,1,-1
 1424 495 l 1,2,-1
 1424 432 l 1,3,-1
 1274 432 l 1,4,-1
 1274 266 l 1,5,6
 1289 288 1289 288 1319 303.5 c 128,-1,7
 1349 319 1349 319 1382 319 c 0,8,9
 1460 319 1460 319 1505 267.5 c 128,-1,10
 1550 216 1550 216 1550 127 c 0,11,12
 1550 43 1550 43 1508.5 -31.5 c 128,-1,13
 1467 -106 1467 -106 1378.5 -161.5 c 128,-1,14
 1290 -217 1290 -217 1153 -249 c 128,-1,15
 1016 -281 1016 -281 826 -281 c 0,16,17
 657 -281 657 -281 514 -250.5 c 128,-1,18
 371 -220 371 -220 266.5 -157.5 c 128,-1,19
 162 -95 162 -95 103 0 c 128,-1,20
 44 95 44 95 44 225 c 0,21,22
 44 295 44 295 64.5 362 c 128,-1,23
 85 429 85 429 128.5 488 c 128,-1,24
 172 547 172 547 239.5 596.5 c 128,-1,25
 307 646 307 646 402 682 c 128,-1,26
 497 718 497 718 620 738 c 128,-1,27
 743 758 743 758 897 758 c 0,28,29
 1120 758 1120 758 1279 721 c 128,-1,30
 1438 684 1438 684 1539 616 c 128,-1,31
 1640 548 1640 548 1687 453 c 128,-1,32
 1734 358 1734 358 1734 241 c 2,33,-1
 1734 186 l 2,34,35
 1734 121 1734 121 1761 89.5 c 128,-1,36
 1788 58 1788 58 1839 58 c 256,37,38
 1890 58 1890 58 1921.5 100.5 c 128,-1,39
 1953 143 1953 143 1953 218 c 0,40,41
 1953 260 1953 260 1943.5 295 c 128,-1,42
 1934 330 1934 330 1918 358.5 c 128,-1,43
 1902 387 1902 387 1880 408 c 128,-1,44
 1858 429 1858 429 1834 443 c 1,45,-1
 1875 502 l 1,46,47
 1902 485 1902 485 1930 459 c 128,-1,48
 1958 433 1958 433 1980 398 c 128,-1,49
 2002 363 2002 363 2016 318 c 128,-1,50
 2030 273 2030 273 2030 218 c 0,51,52
 2030 167 2030 167 2016 125 c 128,-1,53
 2002 83 2002 83 1976.5 54 c 128,-1,54
 1951 25 1951 25 1915 9 c 128,-1,55
 1879 -7 1879 -7 1836 -7 c 0,56,57
 1748 -7 1748 -7 1703.5 44.5 c 128,-1,58
 1659 96 1659 96 1659 183 c 2,59,-1
 1659 236 l 2,60,61
 1659 344 1659 344 1617.5 428.5 c 128,-1,62
 1576 513 1576 513 1484.5 571 c 128,-1,63
 1393 629 1393 629 1247 659.5 c 128,-1,64
 1101 690 1101 690 892 690 c 0,65,66
 750 690 750 690 637.5 672.5 c 128,-1,67
 525 655 525 655 439.5 623.5 c 128,-1,68
 354 592 354 592 293 548.5 c 128,-1,69
 232 505 232 505 193.5 453 c 128,-1,70
 155 401 155 401 137.5 343 c 128,-1,71
 120 285 120 285 120 225 c 0,72,73
 120 111 120 111 174 27.5 c 128,-1,74
 228 -56 228 -56 323.5 -110 c 128,-1,75
 419 -164 419 -164 549 -190 c 128,-1,76
 679 -216 679 -216 832 -216 c 0,77,78
 997 -216 997 -216 1118 -189 c 128,-1,79
 1239 -162 1239 -162 1318 -116 c 128,-1,80
 1397 -70 1397 -70 1435 -8.5 c 128,-1,81
 1473 53 1473 53 1473 123 c 0,82,83
 1473 183 1473 183 1447 219.5 c 128,-1,84
 1421 256 1421 256 1367 256 c 0,85,86
 1338 256 1338 256 1312.5 238 c 128,-1,87
 1287 220 1287 220 1274 185 c 1,88,-1
 1274 0 l 1,89,-1
 1198 0 l 1,90,-1
 1198 432 l 1,91,-1
 1028 432 l 1,92,-1
 1028 0 l 1,93,-1
 696 0 l 1,94,-1
 673 48 l 1,95,96
 702 84 702 84 716.5 130.5 c 128,-1,97
 731 177 731 177 731 228 c 0,98,99
 731 274 731 274 717.5 312 c 128,-1,100
 704 350 704 350 678.5 377 c 128,-1,101
 653 404 653 404 617 419 c 128,-1,102
 581 434 581 434 535 434 c 0,103,104
 488 434 488 434 450 419 c 128,-1,105
 412 404 412 404 385 377 c 128,-1,106
 358 350 358 350 342.5 311.5 c 128,-1,107
 327 273 327 273 326 227 c 1,108,109
 344 256 344 256 376 274.5 c 128,-1,110
 408 293 408 293 448 293 c 0,111,112
 480 293 480 293 507 282 c 128,-1,113
 534 271 534 271 553.5 251.5 c 128,-1,114
 573 232 573 232 584 205 c 128,-1,115
 595 178 595 178 595 147 c 0,116,117
 595 112 595 112 583 84 c 128,-1,118
 571 56 571 56 550 35.5 c 128,-1,119
 529 15 529 15 499.5 4 c 128,-1,120
 470 -7 470 -7 435 -7 c 0,121,122
 396 -7 396 -7 364 9 c 128,-1,123
 332 25 332 25 309 54.5 c 128,-1,124
 286 84 286 84 273 125.5 c 128,-1,125
 260 167 260 167 260 217 c 0,126,127
 260 280 260 280 281 332.5 c 128,-1,128
 302 385 302 385 339 422 c 128,-1,129
 376 459 376 459 427.5 479.5 c 128,-1,130
 479 500 479 500 540 500 c 0,131,132
 597 500 597 500 646 480.5 c 128,-1,133
 695 461 695 461 731 425.5 c 128,-1,134
 767 390 767 390 787.5 341 c 128,-1,135
 808 292 808 292 808 233 c 0,136,137
 808 206 808 206 803.5 180 c 128,-1,138
 799 154 799 154 792 131.5 c 128,-1,139
 785 109 785 109 776.5 91.5 c 128,-1,140
 768 74 768 74 761 63 c 1,141,-1
 954 63 l 1,0,-1
433 230 m 0,142,143
 414 230 414 230 398.5 223.5 c 128,-1,144
 383 217 383 217 370 206 c 128,-1,145
 357 195 357 195 348 181.5 c 128,-1,146
 339 168 339 168 333 153 c 1,147,148
 342 105 342 105 371 80.5 c 128,-1,149
 400 56 400 56 435 56 c 0,150,151
 474 56 474 56 497.5 81 c 128,-1,152
 521 106 521 106 521 144 c 256,153,154
 521 182 521 182 498 206 c 128,-1,155
 475 230 475 230 433 230 c 0,142,143
EndSplineSet
EndChar

StartChar: DebitSign.tm
Encoding: 3062 3062 133
Width: 883
GlyphClass: 2
Flags: W
LayerCount: 2
Fore
SplineSet
810 495 m 1,0,-1
 810 -124 l 1,1,-1
 582 -124 l 1,2,3
 575 -161 575 -161 552 -191 c 128,-1,4
 529 -221 529 -221 491.5 -242.5 c 128,-1,5
 454 -264 454 -264 404.5 -276 c 128,-1,6
 355 -288 355 -288 295 -288 c 0,7,8
 240 -288 240 -288 195.5 -277 c 128,-1,9
 151 -266 151 -266 119.5 -246.5 c 128,-1,10
 88 -227 88 -227 70.5 -200.5 c 128,-1,11
 53 -174 53 -174 53 -143 c 0,12,13
 53 -101 53 -101 80.5 -81 c 128,-1,14
 108 -61 108 -61 154 -61 c 2,15,-1
 515 -61 l 1,16,-1
 515 0 l 1,17,-1
 73 0 l 1,18,-1
 73 495 l 1,19,-1
 150 495 l 1,20,-1
 150 67 l 1,21,-1
 511 67 l 1,22,-1
 511 495 l 1,23,-1
 588 495 l 1,24,-1
 588 -61 l 1,25,-1
 734 -61 l 1,26,-1
 734 495 l 1,27,-1
 810 495 l 1,0,-1
298 -225 m 0,28,29
 339 -225 339 -225 375 -218 c 128,-1,30
 411 -211 411 -211 438.5 -197.5 c 128,-1,31
 466 -184 466 -184 484 -165.5 c 128,-1,32
 502 -147 502 -147 508 -124 c 1,33,-1
 158 -124 l 2,34,35
 143 -124 143 -124 136 -131.5 c 128,-1,36
 129 -139 129 -139 129 -150 c 0,37,38
 129 -166 129 -166 141.5 -180 c 128,-1,39
 154 -194 154 -194 176.5 -204 c 128,-1,40
 199 -214 199 -214 230 -219.5 c 128,-1,41
 261 -225 261 -225 298 -225 c 0,28,29
EndSplineSet
EndChar

